{"glyphs":{"0":{"ha":696,"x_min":30,"x_max":648,"o":"m 182 -77 q 101 -18 136 -62 q 48 92 66 27 q 33 239 30 157 q 64 404 35 320 q 135 591 91 510 q 231 722 179 671 q 343 789 283 772 q 461 792 403 807 q 554 747 513 779 q 621 663 595 715 q 647 538 646 612 q 620 358 648 464 q 542 160 590 248 q 434 14 494 72 q 309 -68 374 -45 q 182 -77 243 -92 m 106 387 q 85 239 84 307 q 106 121 85 172 q 155 33 126 71 q 221 -15 183 -5 q 360 36 285 -16 q 473 132 435 88 q 529 239 511 176 q 574 387 563 323 q 583 497 586 450 q 568 595 579 544 q 515 677 556 647 q 460 715 475 708 q 340 713 395 735 q 246 650 286 692 q 168 545 206 609 q 106 387 130 480 z "},"1":{"ha":301,"x_min":5,"x_max":269,"o":"m 156 570 q 162 598 157 576 q 171 643 167 620 q 179 686 175 666 q 183 713 183 705 q 159 705 176 712 q 124 692 142 699 q 88 678 106 685 q 65 671 71 671 q 56 671 62 671 q 49 671 50 671 q 84 736 61 712 q 136 778 107 761 q 195 812 164 795 q 252 850 227 829 l 255 849 q 256 850 255 849 q 258 850 256 850 q 268 825 267 848 q 269 789 269 802 q 216 601 243 699 q 162 400 189 503 q 111 194 136 297 q 68 -3 87 91 q 39 -26 57 -15 q 14 -45 22 -37 q 7 -16 8 -33 q 7 14 5 0 l 156 570 z "},"2":{"ha":468,"x_min":14,"x_max":454,"o":"m 324 494 q 357 549 349 522 q 377 613 366 575 q 394 711 393 674 q 361 758 395 749 q 305 739 331 766 q 259 677 279 711 q 223 612 239 643 q 195 586 208 582 q 187 628 178 590 q 227 722 202 677 q 279 796 251 766 q 338 840 308 826 q 391 849 368 853 q 426 820 415 841 q 437 767 437 799 q 431 696 438 735 q 414 616 425 656 q 371 499 396 549 q 317 410 346 449 q 260 337 289 370 q 204 272 231 304 q 157 205 178 240 q 125 129 136 171 q 169 107 148 121 q 210 79 190 94 q 252 50 231 64 q 297 28 273 37 q 321 24 309 27 q 345 24 334 20 q 368 41 357 27 q 387 85 378 54 q 393 136 395 113 q 387 177 392 159 q 380 214 382 195 q 382 252 377 232 q 389 272 385 260 q 399 277 393 283 l 452 225 q 452 197 454 221 q 444 142 449 172 q 433 87 438 111 q 426 54 427 62 q 395 -11 414 14 q 354 -48 376 -35 q 311 -64 332 -61 q 273 -62 289 -66 q 235 -42 252 -57 q 201 -10 217 -27 q 168 20 184 7 q 129 39 151 34 q 100 33 115 43 q 71 9 85 23 q 42 -14 57 -4 q 14 -20 27 -24 q 72 138 37 68 q 148 269 107 209 q 234 383 189 330 q 324 494 279 437 z "},"3":{"ha":597,"x_min":27,"x_max":590,"o":"m 41 199 q 83 293 57 260 q 144 351 109 326 l 148 349 q 156 317 164 345 q 143 286 152 300 q 124 258 134 271 q 105 229 114 244 q 92 198 96 214 q 89 134 84 165 q 106 80 94 103 q 138 42 119 57 q 172 26 156 27 q 252 29 209 20 q 335 65 294 38 q 410 140 376 92 q 465 264 445 189 q 474 352 477 311 q 458 427 471 393 q 425 482 446 460 q 381 511 404 505 q 332 514 357 518 q 285 517 308 510 q 271 524 277 519 q 270 548 266 529 q 290 577 274 567 q 328 596 305 587 q 376 612 351 605 q 424 633 400 620 q 466 667 448 647 q 494 723 484 688 q 492 733 494 726 q 487 741 491 741 q 472 747 483 743 q 448 755 461 751 q 424 763 435 760 q 408 768 412 766 q 360 772 382 773 q 317 768 338 772 q 276 764 296 765 q 240 766 256 762 q 225 793 224 770 q 233 840 227 817 q 259 854 236 848 q 308 857 282 860 q 358 848 334 854 q 392 840 382 841 q 421 832 399 838 q 468 819 444 826 q 515 806 492 812 q 547 798 537 800 q 563 807 551 803 q 581 808 575 811 q 586 793 582 807 q 569 745 590 779 q 530 684 548 711 q 494 631 511 656 q 471 598 476 606 q 464 593 465 595 q 457 583 457 586 q 456 579 456 581 l 453 574 l 453 568 q 452 566 452 567 q 491 511 473 540 q 519 448 509 483 q 530 368 530 412 q 517 270 530 323 q 450 104 494 170 q 352 3 406 39 q 243 -45 298 -34 q 140 -45 187 -57 q 95 -18 118 -38 q 56 35 72 3 q 33 109 39 68 q 41 199 27 149 z "},"4":{"ha":536,"x_min":24,"x_max":507,"o":"m 330 415 q 310 426 330 415 q 262 449 290 437 q 205 474 235 461 q 155 496 175 487 l 129 503 q 106 507 115 507 q 85 507 96 507 q 62 505 75 507 q 33 495 50 502 q 25 510 24 500 q 30 530 26 519 q 47 559 30 533 q 90 623 65 585 q 146 703 115 661 q 203 781 176 745 q 250 840 229 817 q 274 863 270 863 q 288 827 296 857 q 280 809 283 818 q 267 802 277 800 l 138 594 l 134 578 q 220 539 180 566 q 305 499 259 513 q 326 496 312 499 q 342 494 339 492 l 354 505 q 357 514 354 506 q 362 532 359 522 q 368 552 365 541 q 373 571 370 563 q 389 635 381 605 q 404 693 396 665 q 417 753 411 722 q 427 821 423 785 q 439 841 434 831 q 452 849 444 850 q 453 847 452 849 q 456 845 454 845 q 465 825 460 838 q 468 810 471 812 l 411 521 q 410 495 407 502 q 420 484 412 488 q 444 491 433 483 q 464 513 456 499 q 479 544 472 528 q 490 574 487 560 q 503 562 499 571 q 507 543 506 553 q 505 519 507 533 q 499 496 502 505 q 479 456 492 472 q 452 433 467 441 q 422 421 438 426 q 393 415 406 416 q 389 399 391 410 q 383 376 387 388 q 377 355 380 365 q 372 339 374 345 q 350 256 359 294 q 333 178 340 217 q 319 96 326 140 q 301 -8 312 52 q 307 -25 309 -12 q 301 -49 304 -38 q 284 -83 296 -69 q 259 -92 273 -96 q 247 -88 254 -92 q 241 -71 240 -84 l 330 415 z "},"5":{"ha":524,"x_min":8,"x_max":506,"o":"m 23 178 q 39 228 28 203 q 62 269 50 252 q 91 296 75 286 q 126 302 107 307 q 141 292 134 298 q 142 266 148 285 q 140 258 141 259 l 68 184 q 66 178 66 183 q 64 170 65 172 q 58 123 57 145 q 64 84 58 102 q 80 54 71 66 q 102 39 90 42 q 180 37 136 30 q 269 70 225 45 q 350 142 313 95 q 407 259 387 189 q 425 374 423 324 q 412 461 426 425 q 372 522 397 498 q 309 555 346 545 q 243 553 277 564 q 176 551 209 543 l 156 556 q 163 591 159 566 q 172 647 167 617 q 180 702 178 677 q 186 739 183 727 q 183 771 183 754 q 184 804 183 788 q 191 836 186 821 q 208 863 195 852 q 336 857 269 860 q 468 850 404 854 q 476 849 471 850 q 486 848 481 848 q 499 839 492 845 q 502 814 506 833 q 475 780 494 788 q 435 773 457 772 q 393 779 414 774 q 366 783 373 783 q 337 787 354 785 q 302 788 320 788 q 262 793 283 791 l 247 777 l 214 655 q 218 636 210 640 q 231 632 225 632 q 287 627 258 624 q 345 621 316 629 q 416 580 385 612 q 463 500 448 548 q 477 389 479 452 q 456 250 476 327 q 389 105 431 163 q 294 14 346 47 q 189 -32 241 -20 q 95 -31 136 -43 l 35 -15 q 9 70 11 18 q 23 178 8 122 z "},"6":{"ha":442,"x_min":27,"x_max":434,"o":"m 54 332 q 108 497 76 416 q 179 650 140 578 q 263 785 218 723 q 355 894 308 848 l 361 891 q 370 876 369 890 q 368 849 372 863 l 361 831 q 284 734 326 796 q 205 600 243 671 q 138 452 168 528 q 94 316 109 377 q 80 216 79 262 q 94 135 81 170 q 127 79 106 100 q 174 50 148 57 q 229 211 199 146 q 285 313 259 275 q 332 363 311 350 q 363 373 354 376 q 395 355 380 369 q 418 321 410 342 q 431 273 427 300 q 425 212 434 245 q 345 43 393 104 q 247 -41 297 -19 q 150 -46 197 -62 q 73 20 103 -30 q 35 149 42 69 q 54 332 27 228 m 239 137 q 232 111 236 126 q 226 81 228 95 q 225 57 224 66 q 235 45 227 47 q 270 50 251 41 q 307 78 289 58 q 340 123 324 98 q 362 178 355 149 q 372 242 372 212 q 351 278 373 273 q 313 273 330 285 q 283 241 297 262 q 258 193 269 221 q 239 137 247 165 z "},"7":{"ha":404,"x_min":47,"x_max":378,"o":"m 122 129 q 214 442 164 288 q 307 754 264 597 q 261 767 289 760 q 205 781 233 774 q 149 787 178 787 q 100 783 121 787 q 85 768 90 777 q 78 751 81 760 q 68 737 75 743 q 47 735 62 731 l 90 897 q 131 873 114 890 q 172 850 148 857 q 218 845 195 845 q 267 845 241 845 q 317 844 292 845 q 366 838 342 844 q 375 836 372 838 q 378 815 378 833 q 373 796 377 811 q 366 766 369 781 q 359 735 362 750 q 354 715 355 720 q 311 570 334 642 q 266 429 289 499 q 220 286 243 358 q 176 140 197 213 l 138 -3 q 142 -19 141 -5 q 140 -39 144 -33 q 133 -45 138 -39 q 121 -58 127 -52 q 108 -71 114 -65 q 98 -81 102 -77 q 95 -81 96 -81 l 92 -81 q 79 -50 77 -77 q 89 11 81 -23 q 106 77 96 45 q 122 129 117 110 z "},"8":{"ha":503,"x_min":16,"x_max":500,"o":"m 53 283 q 83 363 65 330 q 119 425 100 397 q 160 480 138 453 q 205 537 182 507 q 193 588 201 566 q 178 631 186 610 q 168 677 170 651 q 178 743 167 704 q 243 878 202 834 q 328 909 283 921 q 389 882 359 901 q 434 821 418 864 q 448 838 442 826 q 460 860 453 849 q 475 878 468 871 q 491 882 481 884 q 496 861 500 879 q 490 837 492 844 q 479 803 483 811 q 463 774 476 795 q 433 734 453 762 q 389 671 412 705 q 343 608 365 637 q 316 567 321 578 l 309 548 q 342 488 328 522 q 360 414 355 454 q 363 328 365 373 q 347 233 361 282 q 306 113 330 165 q 254 24 282 60 q 193 -26 227 -11 q 125 -33 160 -42 q 31 67 46 -11 q 53 283 16 145 m 95 248 q 79 163 81 198 q 84 108 76 129 q 109 74 92 87 q 152 54 125 61 q 161 52 155 53 q 173 48 167 50 q 186 45 179 46 q 195 45 194 45 q 255 119 229 69 q 297 224 281 168 q 311 309 308 269 q 309 386 315 350 q 288 448 302 422 q 252 488 274 475 q 201 440 224 464 q 157 389 178 416 q 122 327 137 361 q 95 248 107 293 m 228 743 q 222 657 213 690 q 262 616 232 624 q 292 627 273 613 q 330 665 311 642 q 364 713 349 688 q 387 757 380 738 q 381 789 391 776 q 357 813 372 803 q 328 829 342 823 q 309 836 313 836 q 262 816 285 844 q 228 743 239 788 z "},"9":{"ha":351,"x_min":38,"x_max":321,"o":"m 217 468 l 214 488 q 149 480 159 481 q 106 488 138 479 q 56 545 73 498 q 66 700 38 591 q 139 862 95 808 q 235 902 183 916 q 292 854 270 892 q 321 753 315 817 q 302 671 315 726 q 275 547 290 616 q 241 401 259 477 q 208 257 224 326 q 179 133 193 189 q 161 53 165 77 l 146 0 q 134 -43 141 -23 q 109 -69 127 -64 l 102 -27 l 217 468 m 102 696 q 97 587 81 623 q 142 543 113 551 q 215 577 186 532 q 266 705 244 623 l 256 787 q 246 825 256 817 q 224 837 236 834 q 156 809 190 846 q 102 696 122 772 z "}," ":{"ha":694,"x_min":0,"x_max":0,"o":""},"$":{"ha":454,"x_min":20,"x_max":427,"o":"m 145 -222 q 178 -72 163 -122 q 186 -18 193 -22 q 132 12 165 -8 q 70 62 99 33 q 31 127 41 91 q 30 199 20 163 q 54 262 37 228 q 82 325 71 297 q 117 375 94 353 q 164 403 140 397 q 170 377 174 395 q 149 336 164 357 q 118 296 134 316 q 85 254 102 275 q 62 205 69 233 q 68 139 52 170 q 113 91 85 109 q 171 70 141 73 q 218 84 201 66 q 241 159 229 119 q 262 237 252 198 q 277 317 271 277 q 279 389 283 357 q 248 423 263 404 q 220 465 232 442 q 203 513 209 487 q 206 570 198 540 q 264 667 224 637 q 351 700 304 696 q 353 722 351 707 q 360 755 355 738 q 372 785 365 772 q 391 804 380 798 l 392 804 q 394 804 393 804 q 396 803 395 803 q 405 798 401 802 q 408 781 408 795 q 406 759 408 776 q 401 720 403 742 q 398 677 400 697 q 397 652 396 658 q 404 621 397 635 q 416 591 411 606 q 425 559 422 576 q 420 518 427 543 q 406 488 415 499 q 383 468 396 477 q 361 450 370 458 q 349 429 351 442 q 360 399 347 425 q 386 336 373 373 q 406 256 399 298 q 400 176 412 214 q 336 60 374 103 q 243 -11 298 16 l 190 -210 q 180 -222 187 -218 q 165 -225 172 -225 q 145 -222 156 -227 m 320 334 q 290 208 304 270 q 267 80 277 146 l 271 76 q 298 85 286 72 q 318 116 309 98 q 334 154 327 134 q 345 186 340 174 q 351 224 347 201 q 351 271 354 248 q 342 312 349 294 q 320 334 335 330 m 254 559 q 254 530 250 544 q 267 504 259 517 q 285 481 275 491 q 301 468 294 472 l 338 602 q 332 622 342 616 q 317 628 323 628 q 298 625 308 632 q 279 608 289 618 q 264 585 270 598 q 254 559 258 571 m 359 515 l 373 511 q 379 540 377 524 q 373 562 381 556 l 359 515 z "},"&":{"ha":464,"x_min":68,"x_max":458,"o":"m 347 8 q 315 -10 334 -1 q 275 -26 296 -19 q 233 -37 254 -34 q 198 -37 212 -41 q 99 36 130 -18 q 91 176 68 90 q 121 247 100 213 q 163 311 142 281 q 203 371 184 342 q 229 423 222 400 q 235 463 233 442 q 237 505 237 484 q 237 547 236 526 q 244 589 239 567 q 277 648 255 624 q 332 663 300 673 q 361 642 350 659 q 375 602 372 625 q 376 555 378 579 q 369 511 374 530 q 338 444 359 477 q 297 388 317 411 q 416 349 381 373 q 454 293 450 326 q 443 219 458 260 q 414 132 427 178 q 400 37 401 87 q 431 -65 399 -14 l 416 -125 l 347 8 m 127 168 q 133 72 111 110 q 201 22 155 34 q 233 22 210 18 q 270 33 255 26 q 297 51 285 41 q 313 76 309 61 q 315 104 317 87 q 315 141 312 121 q 318 178 319 161 q 326 205 317 194 q 304 196 313 197 q 285 199 296 195 q 265 225 266 203 q 269 270 264 247 q 268 312 273 293 q 250 335 263 331 q 213 305 231 327 q 163 229 195 283 q 127 168 132 175 m 338 316 q 332 276 332 297 q 338 231 331 255 q 356 189 345 206 q 381 164 368 171 q 389 189 384 171 q 408 240 395 208 q 399 290 422 273 q 338 316 377 307 m 301 613 q 271 532 273 567 q 286 475 270 498 q 328 501 321 488 q 338 530 334 514 q 338 572 343 552 q 301 613 332 593 z "},"'":{"ha":141,"x_min":37,"x_max":123,"o":"m 37 591 q 50 654 37 620 q 64 719 64 688 q 56 766 64 747 q 47 811 47 784 q 99 788 75 811 q 121 734 123 765 q 113 693 118 715 q 100 650 109 671 q 79 608 91 628 q 50 576 66 589 q 42 582 47 576 q 37 591 37 587 z "},"(":{"ha":422,"x_min":103,"x_max":435,"o":"m 122 351 q 144 410 127 373 q 186 491 161 448 q 239 580 210 534 q 296 660 267 625 q 352 715 326 694 q 400 730 378 735 q 425 720 414 726 q 425 692 435 715 q 377 670 403 692 q 326 614 351 648 q 275 536 300 579 q 230 452 250 494 q 195 373 210 411 q 172 315 179 335 q 153 224 156 274 q 154 120 151 174 q 168 16 157 66 q 194 -75 179 -35 q 222 -138 209 -115 q 244 -159 235 -161 q 209 -180 239 -189 q 157 -137 178 -172 q 124 -52 137 -102 q 107 57 111 -1 q 104 172 103 115 q 111 277 106 229 q 122 351 115 324 z "},")":{"ha":395,"x_min":27,"x_max":385,"o":"m 117 -62 q 159 7 136 -41 q 205 119 182 56 q 248 256 228 183 q 286 397 269 328 q 316 528 304 467 q 335 628 328 589 q 298 732 331 694 q 205 787 266 770 q 231 823 213 818 q 275 822 250 829 q 346 775 321 810 q 378 697 370 741 q 380 607 385 654 q 366 525 376 560 q 356 440 365 492 q 332 328 347 388 q 296 203 316 267 q 252 79 277 138 q 200 -30 228 19 q 144 -108 172 -79 q 86 -144 117 -137 q 27 -123 56 -151 q 44 -81 35 -90 q 64 -74 53 -73 q 87 -76 75 -75 q 117 -62 100 -77 z "},"*":{"ha":415,"x_min":66,"x_max":382,"o":"m 199 389 q 175 382 187 389 q 152 367 163 374 q 130 355 141 359 q 109 353 118 350 q 79 377 91 357 q 72 415 66 397 q 88 434 76 429 q 112 444 100 439 q 136 455 123 449 q 151 475 148 461 q 152 482 152 477 q 153 490 152 487 q 111 522 129 510 q 85 547 94 534 q 74 576 76 559 q 80 623 72 594 q 195 536 156 602 q 209 554 199 540 q 231 584 218 568 q 256 611 244 600 q 275 620 267 623 q 296 605 288 616 q 306 579 304 594 q 309 549 308 564 q 311 522 309 533 l 382 502 q 363 465 376 475 q 338 452 351 456 q 314 446 324 448 q 301 434 304 444 l 264 298 l 221 309 l 199 389 z "},"+":{"ha":623,"x_min":53,"x_max":606,"o":"m 289 321 q 250 330 277 324 q 194 342 224 335 q 138 357 164 350 q 102 365 113 363 q 64 391 76 376 q 61 435 53 406 l 290 374 q 312 479 304 431 q 334 576 320 526 q 348 592 338 590 q 370 591 358 594 q 391 581 381 587 q 395 553 400 574 l 347 376 q 365 370 351 376 q 382 363 378 365 q 425 358 395 362 q 488 349 454 354 q 552 342 522 345 q 595 338 582 339 q 606 332 606 345 q 580 309 606 320 q 496 294 553 298 q 338 316 439 290 l 283 110 l 232 110 l 289 321 z "},"-":{"ha":491,"x_min":73,"x_max":452,"o":"m 73 363 q 78 385 73 378 q 92 392 83 391 q 111 393 100 393 q 132 392 121 392 q 190 394 149 393 q 277 395 231 395 q 363 397 323 396 q 420 399 404 397 l 429 399 q 447 390 442 399 q 452 369 452 381 q 446 350 452 357 q 420 342 441 343 l 90 336 q 75 347 77 335 q 73 363 73 358 z "},".":{"ha":186,"x_min":95,"x_max":174,"o":"m 140 69 q 162 45 151 65 q 171 14 174 26 q 134 -12 153 -16 q 104 9 114 -8 q 101 47 95 27 q 140 69 107 66 z "},"/":{"ha":662,"x_min":35,"x_max":640,"o":"m 37 41 q 37 45 35 42 q 53 68 39 49 q 98 128 66 87 q 192 243 130 170 q 351 427 254 317 q 590 697 448 537 l 594 700 q 599 700 598 699 q 604 701 600 701 q 626 700 612 703 q 635 677 640 697 q 631 665 635 674 q 621 650 627 656 q 610 637 614 644 q 601 628 605 629 q 458 488 529 562 q 319 336 387 414 q 188 177 252 259 q 71 15 123 95 q 69 12 71 12 l 65 11 q 45 18 53 9 q 37 41 38 27 z "},":":{"ha":187,"x_min":49,"x_max":155,"o":"m 50 138 q 66 159 53 152 q 94 164 80 167 q 118 150 109 160 q 123 125 127 140 q 104 100 119 110 q 69 96 90 90 q 60 110 68 96 q 50 132 52 123 q 49 134 49 133 l 50 138 m 130 374 q 152 361 149 369 q 152 342 155 354 q 132 318 145 323 q 108 319 118 313 q 96 336 98 324 q 113 366 95 349 q 120 372 114 368 q 130 374 126 376 z "},";":{"ha":245,"x_min":122,"x_max":205,"o":"m 151 -76 q 161 -58 153 -64 q 179 -56 168 -52 q 200 -68 195 -60 q 205 -89 205 -77 q 202 -112 205 -100 q 197 -133 199 -123 q 191 -155 195 -140 q 179 -187 186 -171 q 163 -214 172 -203 q 142 -222 155 -225 l 129 -218 q 136 -168 133 -194 q 142 -127 140 -148 q 148 -92 145 -107 q 149 -85 148 -91 q 151 -76 151 -79 m 130 121 q 167 141 138 149 q 187 106 194 136 q 151 84 179 76 q 130 121 122 91 z "},"<":{"ha":719,"x_min":109,"x_max":677,"o":"m 111 362 q 126 379 114 374 q 148 388 138 384 q 179 399 156 391 q 230 418 202 408 q 282 437 258 427 q 313 449 307 446 q 350 470 324 456 q 407 504 376 484 q 473 544 438 524 q 540 585 509 564 q 594 619 571 605 q 629 643 617 633 q 637 642 632 642 q 643 642 642 642 q 661 630 654 637 q 667 610 669 623 q 627 568 661 594 q 545 515 593 543 q 442 460 496 488 q 340 411 388 433 q 260 376 292 389 q 229 361 229 362 q 229 347 227 353 q 236 336 231 342 l 677 -122 l 674 -127 q 675 -132 674 -130 q 674 -134 675 -133 q 656 -161 670 -149 q 625 -170 642 -174 q 616 -163 616 -167 q 609 -149 617 -160 q 555 -82 587 -123 q 492 -2 524 -41 q 436 64 461 37 q 410 96 411 92 q 376 127 399 106 q 324 174 353 149 q 262 227 296 199 q 199 280 229 254 q 144 326 170 307 q 109 353 119 345 l 111 362 z "},"=":{"ha":331,"x_min":90,"x_max":293,"o":"m 98 149 q 104 165 100 159 q 119 174 109 172 q 131 170 122 171 q 150 165 140 168 q 169 161 160 163 q 182 157 178 159 q 234 142 206 151 q 281 113 262 134 q 247 98 270 100 q 198 98 224 96 q 150 105 172 100 q 115 114 127 110 q 98 149 90 121 m 92 349 q 107 365 96 365 q 130 361 118 365 q 170 352 144 359 q 222 334 197 345 q 269 307 248 323 q 293 273 289 292 l 275 264 l 123 305 q 102 323 115 308 q 92 349 90 338 z "},">":{"ha":665,"x_min":102,"x_max":636,"o":"m 534 374 q 371 532 450 442 q 228 708 292 623 q 220 722 224 709 q 218 738 216 735 q 234 747 221 739 q 255 758 247 755 l 258 757 q 259 756 259 755 q 260 757 259 757 q 278 748 271 754 q 292 734 285 742 q 449 549 368 635 q 624 377 530 463 q 632 354 636 368 l 632 347 q 602 333 623 345 q 560 308 582 321 q 518 283 538 294 q 492 267 498 271 q 432 222 475 254 q 341 153 389 190 q 252 84 293 117 q 194 37 210 52 q 180 18 187 28 q 163 -2 172 7 q 142 -16 153 -11 q 119 -18 132 -20 l 107 -15 q 104 -3 106 -12 q 103 12 103 5 q 102 24 103 19 q 103 31 102 30 l 534 374 z "},"?":{"ha":642,"x_min":149,"x_max":547,"o":"m 159 -33 q 171 -3 164 -12 q 190 4 178 7 q 202 -12 201 0 q 199 -42 203 -24 q 199 -43 199 -43 q 198 -45 198 -43 l 197 -47 q 182 -66 193 -56 q 168 -76 171 -76 q 156 -72 160 -76 q 152 -62 152 -68 q 154 -46 152 -56 q 159 -33 156 -37 m 245 209 q 210 176 218 174 q 202 204 201 179 q 213 269 203 229 q 233 349 222 309 q 252 420 243 388 q 259 461 260 453 q 371 537 330 498 q 436 615 412 576 q 469 686 460 654 q 484 741 479 718 q 497 827 495 784 q 492 906 499 871 q 468 966 484 941 q 426 1000 452 991 q 368 996 399 1006 q 308 964 336 986 q 254 909 279 943 q 209 831 228 876 q 201 793 199 810 q 195 730 202 776 q 168 728 187 685 q 168 842 149 772 q 214 939 182 895 q 285 1012 247 982 q 362 1056 323 1042 q 431 1062 401 1070 q 496 1023 471 1053 q 534 949 522 993 q 545 849 547 905 q 526 734 543 793 q 487 624 510 669 q 434 544 464 579 q 368 479 404 509 q 290 419 332 450 q 287 406 290 416 q 283 393 283 396 q 262 302 271 349 q 245 209 254 256 z "},"@":{"ha":655,"x_min":46,"x_max":637,"o":"m 79 448 q 137 600 100 530 q 229 709 174 669 q 342 757 283 750 q 456 749 400 764 q 549 697 509 735 q 606 606 589 659 q 630 495 623 553 q 618 365 637 437 q 590 284 608 324 q 547 214 572 244 q 492 168 522 183 q 427 161 463 153 q 397 180 411 165 q 370 214 382 195 q 350 245 358 232 q 336 259 342 258 q 315 254 330 262 q 283 237 300 247 q 255 229 267 227 q 225 236 243 232 q 186 261 199 243 q 169 325 174 279 q 171 399 164 370 q 235 505 191 473 q 335 521 279 536 q 384 464 373 510 q 397 357 395 418 q 405 260 399 297 q 438 214 411 222 q 517 250 486 202 q 567 362 549 297 q 581 481 583 425 q 560 584 579 538 q 508 661 541 629 q 430 704 475 693 q 323 700 373 719 q 231 637 273 681 q 159 530 190 593 q 109 395 127 467 q 91 268 92 335 q 107 143 90 201 q 157 44 125 85 q 239 -11 189 3 q 315 -12 286 -24 q 362 18 345 0 q 391 53 380 37 q 412 68 401 69 q 427 41 429 64 q 420 0 425 18 q 220 -57 323 -69 q 96 68 145 -37 q 50 261 46 172 q 79 448 53 350 m 214 366 q 209 309 203 331 q 244 279 214 288 q 298 301 275 271 q 332 373 320 331 q 340 401 335 385 q 345 433 345 418 q 343 458 346 448 q 327 472 340 469 q 257 450 288 483 q 214 366 227 416 z "},"A":{"ha":1016,"x_min":12,"x_max":1050,"o":"m 844 406 q 764 418 807 408 q 677 438 722 427 q 587 458 632 449 q 506 468 543 467 q 448 394 476 438 q 389 302 419 350 q 326 208 358 254 q 257 125 293 161 q 182 65 221 88 q 99 42 142 42 q 84 42 95 42 q 62 43 73 42 q 42 43 52 43 q 27 43 33 43 q 12 65 12 53 q 27 85 12 77 q 113 92 69 75 q 197 142 156 109 q 277 220 239 175 q 351 315 316 266 q 414 411 385 363 q 463 496 442 458 q 451 504 458 498 q 434 517 444 510 q 416 530 425 524 q 406 538 408 536 q 372 569 395 548 q 326 614 350 590 q 284 660 302 637 q 262 696 266 682 q 267 714 262 708 q 281 723 273 720 q 299 726 289 726 q 321 726 309 726 q 389 716 355 726 q 456 696 423 707 q 524 676 490 685 q 591 667 557 667 q 643 758 617 700 q 694 881 669 817 q 745 1004 719 945 q 798 1099 772 1063 q 836 1154 823 1143 q 853 1160 849 1165 q 856 1143 857 1156 q 854 1126 854 1131 q 859 1057 856 1108 q 864 940 861 1006 q 870 800 867 873 q 878 661 873 726 q 884 551 882 595 q 890 496 887 506 l 905 496 q 997 534 964 525 q 1040 540 1029 544 q 1042 522 1050 536 q 1015 492 1035 509 q 965 461 994 476 q 905 439 936 446 q 902 366 901 411 q 909 267 903 320 q 922 155 914 213 q 937 43 929 98 q 949 -58 944 -12 q 956 -134 954 -104 q 955 -145 956 -142 q 951 -149 954 -148 q 942 -150 948 -149 q 926 -156 936 -151 q 899 -17 907 -85 q 884 121 890 52 q 871 262 879 191 q 844 406 863 334 m 547 510 q 663 488 605 495 q 753 472 720 481 q 699 532 735 496 q 604 595 663 567 q 574 557 593 581 q 547 510 556 533 m 836 481 q 835 610 837 533 q 830 767 833 686 q 823 919 827 848 q 815 1031 819 990 l 640 639 l 836 481 m 377 681 q 339 675 345 686 q 345 646 334 665 q 380 606 357 628 q 431 568 404 585 q 481 541 457 551 q 519 538 506 532 q 530 553 526 545 q 538 571 534 562 q 547 593 541 581 q 563 624 552 606 q 527 636 553 628 q 471 653 500 644 q 414 670 441 662 q 377 681 388 678 z "},"B":{"ha":1419,"x_min":9,"x_max":1375,"o":"m 589 320 q 590 346 589 327 q 591 369 591 365 q 612 384 602 381 q 635 387 621 387 q 655 382 643 387 q 673 368 667 377 q 673 349 678 359 q 642 328 667 339 q 665 222 642 274 q 726 131 688 171 q 815 66 764 91 q 925 42 867 42 q 1069 85 997 42 q 1200 193 1142 127 q 1295 336 1259 258 q 1332 486 1332 415 q 1297 593 1332 545 q 1211 674 1263 642 q 1097 724 1158 707 q 982 742 1036 742 q 903 738 935 742 q 840 731 871 734 q 777 728 810 728 q 693 735 743 728 l 392 186 q 305 85 359 127 q 182 42 251 42 q 107 61 140 42 q 54 111 75 80 q 21 180 33 141 q 9 254 9 218 q 43 241 31 254 q 64 210 54 229 q 83 170 73 191 q 106 130 92 149 q 142 98 119 111 q 198 85 164 85 q 293 142 248 96 q 379 256 338 187 q 460 406 420 324 q 541 572 500 488 q 626 734 582 656 q 719 869 670 812 q 812 985 757 921 q 935 1106 868 1050 q 1077 1201 1002 1162 q 1225 1240 1152 1240 q 1305 1203 1279 1240 q 1332 1118 1332 1166 q 1299 1003 1332 1054 q 1220 912 1265 952 q 1130 840 1175 872 q 1061 784 1085 808 q 1162 749 1107 768 q 1264 698 1217 731 q 1343 614 1312 665 q 1375 484 1375 564 q 1356 383 1375 438 q 1303 275 1336 328 q 1224 171 1270 221 q 1128 83 1179 121 q 1025 23 1078 46 q 920 0 971 0 q 799 27 859 0 q 692 98 739 54 q 617 200 646 142 q 589 320 589 258 m 1217 1211 q 1164 1202 1194 1211 q 1104 1177 1134 1192 q 1048 1144 1074 1162 q 1002 1111 1021 1126 q 966 1076 991 1101 q 914 1024 941 1051 q 864 972 887 997 q 833 940 841 948 q 809 907 823 929 q 778 862 795 886 q 747 815 761 838 q 722 774 732 792 q 789 777 751 774 q 867 784 827 780 q 943 791 907 788 q 1002 798 978 795 q 1083 854 1035 819 q 1178 934 1131 890 q 1260 1027 1225 978 q 1303 1124 1295 1076 q 1280 1189 1303 1166 q 1217 1211 1257 1211 z "},"C":{"ha":662,"x_min":24,"x_max":636,"o":"m 37 241 q 33 376 24 293 q 66 555 42 460 q 128 751 91 651 q 212 935 165 852 q 313 1075 259 1019 q 426 1142 368 1131 q 453 1139 442 1142 q 476 1124 464 1137 q 504 1096 487 1114 q 536 1049 521 1078 q 559 979 551 1020 q 563 883 568 937 q 555 871 562 875 q 541 868 548 868 l 537 868 q 534 869 536 868 q 530 931 533 894 q 515 1003 526 968 q 481 1062 505 1038 q 419 1086 458 1086 q 347 1045 387 1086 q 271 939 308 1004 q 198 793 233 873 q 136 635 163 712 q 94 490 110 557 q 77 385 77 423 q 90 283 77 340 q 129 176 103 227 q 195 92 155 126 q 292 57 235 57 q 404 90 350 57 q 503 171 458 122 q 578 277 547 220 q 620 385 609 335 q 634 370 632 382 q 636 349 636 358 q 635 338 636 346 q 633 328 635 331 q 585 224 618 281 q 506 117 552 167 q 405 33 460 66 q 292 0 350 0 q 201 22 241 0 q 127 79 160 45 q 72 157 95 114 q 37 241 49 199 z "},"D":{"ha":928,"x_min":30,"x_max":952,"o":"m 140 834 q 142 866 141 848 q 148 905 144 884 q 153 948 151 925 l 184 948 q 182 899 184 925 q 176 836 180 873 q 164 747 171 799 q 147 618 157 694 q 124 438 137 543 q 96 193 111 334 q 144 234 122 217 q 195 251 165 251 q 255 235 229 251 q 302 193 281 218 q 342 139 323 168 q 383 85 361 110 q 433 43 406 60 q 499 26 461 26 q 587 51 541 26 q 677 117 633 76 q 762 210 722 157 q 831 315 802 262 q 878 421 861 369 q 895 514 895 473 q 895 517 895 515 q 894 521 894 519 q 831 469 861 490 q 767 433 800 448 q 696 413 734 419 q 616 407 659 407 q 477 439 533 407 q 387 524 420 471 q 338 644 353 576 q 324 785 324 712 q 340 920 324 845 q 390 1063 355 996 q 479 1175 425 1130 q 610 1219 533 1219 q 718 1196 670 1219 q 804 1132 765 1172 q 870 1040 842 1092 q 916 931 898 987 q 942 819 933 875 q 951 713 951 762 q 941 574 952 648 q 904 426 929 500 q 843 281 879 351 q 762 153 807 210 q 666 54 718 95 q 556 0 614 14 q 435 4 498 -14 q 309 79 373 22 q 270 139 286 109 q 224 193 254 170 q 209 203 220 197 q 195 208 198 209 q 136 164 156 198 q 102 92 115 130 q 73 22 88 53 q 30 -8 58 -8 l 41 65 l 140 834 m 365 779 q 379 650 365 711 q 425 546 393 590 q 507 475 456 502 q 631 449 557 449 q 764 468 709 442 q 852 541 819 494 q 898 652 886 589 q 905 785 910 716 q 876 922 899 854 q 817 1046 853 990 q 731 1141 780 1103 q 624 1191 682 1180 q 504 1147 553 1191 q 424 1039 454 1103 q 379 904 393 975 q 365 779 365 833 z "},"E":{"ha":712,"x_min":19,"x_max":741,"o":"m 19 236 q 35 326 19 282 q 77 410 52 369 q 132 488 102 452 q 191 556 163 524 l 191 563 q 184 627 191 597 q 176 694 176 658 q 187 770 176 727 q 218 859 198 812 q 267 951 239 906 q 327 1032 294 997 q 395 1090 359 1067 q 469 1112 431 1112 q 525 1099 499 1112 q 568 1065 551 1086 q 596 1015 586 1043 q 606 959 606 987 q 608 942 606 952 q 607 922 609 932 q 600 905 605 913 q 583 898 594 898 l 576 898 q 568 939 574 910 q 550 996 562 967 q 522 1047 538 1025 q 479 1069 505 1069 q 376 1029 423 1069 q 294 934 330 990 q 239 814 259 878 q 220 705 220 751 q 224 654 220 677 q 235 597 228 632 l 248 597 q 307 607 278 597 q 367 628 336 617 q 429 648 397 639 q 491 658 460 658 q 524 658 505 658 q 562 654 543 658 q 593 640 581 650 q 606 609 606 629 q 579 542 606 568 q 513 499 552 515 q 433 476 475 483 q 363 469 392 469 q 326 476 343 469 q 292 492 308 483 q 261 507 277 500 q 228 514 245 514 l 220 514 q 115 394 153 463 q 76 241 76 326 q 110 123 76 164 q 220 57 144 83 q 367 56 298 42 q 496 99 435 71 q 614 162 557 127 q 727 222 670 197 q 736 204 732 212 q 741 186 741 197 q 739 174 741 178 q 727 164 736 170 q 528 73 606 106 q 401 24 450 41 q 328 4 353 8 q 292 0 302 0 q 191 17 240 0 q 104 65 142 34 q 43 140 66 96 q 19 236 19 183 m 292 548 q 301 528 292 536 q 325 517 311 521 q 353 513 339 514 q 377 513 368 513 q 425 517 399 513 q 478 529 452 521 q 526 551 505 537 q 563 585 548 566 q 535 607 552 600 q 500 614 518 614 q 453 610 487 614 q 383 597 419 605 q 319 578 347 590 q 292 548 292 566 z "},"F":{"ha":1072,"x_min":7,"x_max":1147,"o":"m 7 186 q 45 227 22 210 q 100 243 69 243 q 111 241 107 243 q 121 228 115 239 q 111 224 118 227 q 97 217 104 221 q 83 206 90 213 q 76 191 76 199 q 98 161 76 176 q 153 131 119 146 q 229 102 187 115 q 311 77 271 88 q 383 60 350 66 q 435 54 416 54 q 575 81 514 54 q 684 153 636 109 q 767 258 731 198 q 833 385 803 317 q 846 418 844 407 q 849 452 849 430 q 835 486 849 472 q 798 499 821 499 l 791 499 q 781 494 788 498 q 768 485 774 490 q 755 475 761 480 q 747 469 749 471 q 734 481 736 473 q 732 498 732 488 q 733 524 732 507 q 736 558 734 541 q 747 587 739 575 q 769 598 754 598 q 794 587 784 598 q 815 562 804 576 q 839 537 826 548 q 869 526 852 526 l 875 526 q 909 725 905 629 q 914 925 914 821 l 905 925 q 730 823 823 867 q 536 780 636 780 q 472 790 503 780 q 410 811 441 800 q 351 832 380 822 q 290 842 321 842 q 270 834 278 842 q 254 817 262 826 q 239 800 247 807 q 217 792 231 792 q 216 832 217 804 q 218 889 216 860 q 227 942 220 918 q 248 970 233 966 q 270 942 264 962 q 278 913 275 922 q 410 848 343 872 q 556 825 477 825 q 650 839 593 825 q 766 876 708 853 q 870 930 823 899 q 932 997 917 962 q 958 1072 945 1028 q 991 1156 971 1115 q 1041 1225 1010 1196 q 1119 1255 1072 1255 q 1142 1244 1137 1255 q 1147 1218 1147 1234 q 1142 1179 1147 1195 q 1118 1141 1137 1164 q 1089 1105 1109 1130 q 1046 1054 1069 1081 q 1004 1002 1024 1027 q 975 970 983 978 q 973 856 981 913 q 953 743 966 799 q 929 630 940 686 q 918 519 918 574 q 933 501 918 505 q 960 498 948 498 q 1053 524 1012 498 q 1133 585 1093 551 l 1147 570 q 1143 561 1147 568 q 1131 543 1138 553 q 1116 525 1123 533 q 1103 514 1108 517 q 1055 483 1076 495 q 1014 463 1035 471 q 967 450 993 454 q 905 442 941 446 q 827 288 868 363 q 730 151 785 212 q 602 51 674 90 q 435 12 530 12 q 323 24 384 12 q 202 58 262 37 q 91 113 142 80 q 7 186 39 146 m 1111 1211 q 1069 1194 1089 1211 q 1034 1154 1048 1177 q 1011 1105 1020 1131 q 1002 1061 1002 1080 l 1002 1054 q 1071 1125 1039 1085 q 1118 1211 1103 1165 l 1111 1211 z "},"G":{"ha":1184,"x_min":7,"x_max":1275,"o":"m 547 321 q 564 400 547 362 q 608 467 581 438 q 673 513 636 496 q 753 530 711 530 q 727 496 753 514 q 671 453 701 477 q 614 395 640 429 q 589 313 589 361 q 610 213 589 259 q 666 132 631 167 q 748 76 701 96 q 848 56 795 56 q 967 92 918 57 q 1047 180 1016 126 q 1095 303 1078 235 q 1117 443 1111 372 q 1122 581 1123 514 q 1118 697 1122 647 q 1111 770 1116 718 q 1099 883 1105 823 q 1086 996 1092 943 q 1076 1069 1080 1048 q 970 981 1019 1020 q 873 913 922 943 q 769 859 823 883 q 647 812 715 834 q 642 806 647 811 q 633 798 636 800 l 335 357 q 275 292 305 332 q 212 216 245 252 q 140 153 178 179 q 56 126 102 126 q 27 130 39 126 q 7 157 15 134 q 13 165 8 160 q 20 171 18 170 q 184 257 114 198 q 319 398 255 316 q 447 583 382 480 q 591 798 511 685 q 592 805 591 800 q 593 812 593 810 q 581 842 593 826 q 555 880 570 859 q 530 930 541 902 q 518 998 518 959 q 519 1056 518 1025 q 529 1112 521 1086 q 557 1154 537 1138 q 613 1171 576 1171 q 656 1160 639 1171 q 685 1132 674 1150 q 701 1091 696 1114 q 705 1047 705 1069 q 692 958 705 1000 q 662 869 678 916 q 672 869 663 869 q 684 868 681 868 q 792 895 731 868 q 911 963 853 922 q 1014 1051 968 1004 q 1076 1141 1059 1099 q 1082 1171 1077 1146 q 1090 1225 1086 1196 q 1098 1278 1095 1253 q 1103 1310 1101 1303 q 1119 1358 1107 1331 q 1148 1410 1131 1385 q 1187 1451 1165 1435 q 1232 1468 1208 1468 q 1266 1445 1257 1468 q 1275 1402 1275 1423 q 1257 1332 1275 1369 q 1217 1262 1240 1295 q 1171 1200 1195 1229 q 1133 1153 1146 1171 q 1146 858 1133 1005 q 1162 556 1160 711 q 1160 439 1165 500 q 1141 317 1156 377 q 1102 203 1126 256 q 1040 107 1078 149 q 951 40 1002 65 q 833 14 901 15 q 720 39 772 14 q 629 106 667 64 q 568 204 590 149 q 547 321 547 259 m 562 1010 q 564 980 562 1001 q 570 937 566 959 q 585 899 575 916 q 613 882 595 882 l 617 882 q 620 883 618 882 q 665 946 655 907 q 677 1025 674 985 q 675 1055 677 1038 q 666 1088 673 1073 q 648 1115 659 1104 q 620 1126 636 1126 q 587 1114 598 1126 q 570 1083 576 1101 q 563 1045 564 1065 q 562 1010 562 1025 m 1234 1413 q 1197 1397 1214 1413 q 1168 1358 1180 1381 q 1152 1310 1157 1335 q 1146 1268 1146 1284 q 1147 1253 1146 1265 q 1147 1238 1147 1241 q 1182 1273 1165 1253 q 1210 1316 1199 1293 q 1227 1365 1221 1340 q 1234 1413 1234 1390 z "},"H":{"ha":1347,"x_min":5,"x_max":1312,"o":"m 9 174 q 52 245 15 217 q 123 288 88 273 l 123 274 q 81 229 96 245 q 60 202 66 213 q 52 187 53 191 q 50 182 50 183 q 84 117 50 149 q 166 59 118 84 q 264 18 214 34 q 346 1 313 1 q 446 24 395 1 q 543 85 496 47 q 630 173 589 123 q 702 275 671 222 q 749 378 732 327 q 766 473 766 430 q 757 510 766 495 q 736 541 747 525 q 715 572 726 556 q 705 612 705 589 q 730 694 705 665 q 807 743 754 724 q 825 833 814 791 q 831 925 836 876 q 784 905 819 917 q 702 884 749 894 q 605 867 655 875 q 512 859 555 860 q 439 866 469 859 q 407 892 410 873 q 407 911 407 901 q 409 932 407 922 q 416 951 411 943 q 429 959 420 959 q 463 909 430 925 q 543 892 495 894 q 646 901 590 891 q 748 927 701 911 q 824 962 795 943 q 850 1000 853 982 q 886 1113 867 1069 q 922 1183 906 1157 q 949 1218 937 1208 q 964 1227 962 1227 q 1000 1195 997 1219 q 991 1139 1004 1171 q 954 1071 978 1107 q 907 1000 929 1035 q 883 949 891 978 q 871 891 875 921 q 865 831 867 861 q 864 776 864 802 q 958 699 906 736 q 1059 621 1009 662 q 1149 530 1108 579 q 1206 415 1190 480 l 1278 1112 l 1312 1107 q 1287 783 1298 926 q 1267 513 1276 640 q 1249 263 1257 387 q 1234 1 1240 140 q 1211 -14 1229 -12 q 1184 -16 1194 -16 l 1184 330 q 1175 365 1184 339 q 1156 418 1166 391 q 1133 465 1145 445 q 1114 487 1120 486 q 1024 454 1066 463 q 935 445 982 445 q 911 446 928 445 q 878 450 895 448 q 844 454 861 452 q 822 458 827 457 q 747 275 789 366 q 646 113 704 184 q 511 -3 589 41 q 330 -42 433 -46 q 241 -20 297 -42 q 132 33 186 1 q 42 103 79 65 q 9 174 5 141 m 822 515 q 873 486 836 495 q 956 479 911 477 q 1042 492 1000 481 q 1105 515 1084 502 q 1083 538 1099 522 q 1050 572 1067 555 q 1016 606 1032 590 q 993 629 1000 623 q 970 647 987 635 q 935 673 954 659 q 896 695 916 686 q 864 701 876 704 q 849 671 856 697 q 836 614 842 646 q 827 553 830 582 q 822 515 823 525 m 750 629 q 758 585 750 606 q 777 544 766 563 q 804 614 795 579 q 812 689 812 650 q 768 673 785 689 q 750 629 750 658 m 970 1176 q 945 1164 954 1176 q 931 1136 936 1153 q 924 1103 926 1119 q 922 1078 922 1086 l 922 1072 q 954 1120 939 1095 q 970 1176 970 1146 z "},"I":{"ha":825,"x_min":19,"x_max":836,"o":"m 19 42 q 24 62 19 53 q 42 72 30 72 q 82 64 65 72 q 126 56 99 56 q 304 96 218 56 q 465 203 389 136 q 602 359 540 271 q 710 541 665 446 q 781 728 755 635 q 806 903 806 822 q 762 1059 806 1006 q 614 1112 718 1112 q 532 1077 568 1112 q 471 991 496 1042 q 433 888 446 941 q 419 799 419 834 q 454 671 419 724 q 563 597 488 618 l 533 585 q 522 588 532 583 q 498 599 511 593 q 470 613 484 605 q 448 627 456 621 q 388 704 401 655 q 374 802 374 753 q 390 910 374 849 q 435 1025 406 971 q 509 1117 465 1080 q 612 1154 553 1154 q 718 1134 675 1154 q 787 1078 761 1114 q 825 992 814 1042 q 836 884 836 943 q 791 628 836 754 q 671 391 747 502 q 494 190 595 279 q 278 42 392 100 q 200 12 244 26 q 114 -1 156 -1 q 88 1 104 -1 q 57 7 72 3 q 31 21 42 12 q 19 42 19 30 z "},"J":{"ha":830,"x_min":-65,"x_max":963,"o":"m -65 -247 q -57 -150 -65 -205 q -27 -45 -49 -95 q 31 38 -5 4 q 126 72 68 72 q 141 71 132 72 q 159 68 151 71 q 173 62 167 66 q 179 49 179 57 q 178 45 179 47 q 178 42 178 43 q 73 22 113 53 q 12 -58 34 -8 q -16 -164 -9 -107 q -23 -263 -23 -221 q -14 -372 -23 -311 q 20 -486 -4 -433 q 86 -577 45 -540 q 191 -614 127 -614 q 315 -583 258 -614 q 419 -498 372 -551 q 505 -379 467 -446 q 571 -243 543 -312 q 618 -106 600 -174 q 647 14 637 -39 q 562 47 601 27 q 494 97 522 68 q 451 165 467 126 q 435 255 435 203 q 452 427 429 357 q 521 557 476 498 q 627 679 566 617 q 761 825 689 741 q 780 908 774 859 q 797 1002 785 958 q 833 1080 808 1047 q 913 1112 859 1112 q 955 1104 947 1112 q 963 1061 963 1096 q 947 994 963 1025 q 910 932 932 962 q 863 877 888 903 q 819 825 838 850 q 811 797 817 818 q 804 769 806 776 q 798 715 803 761 q 785 610 792 669 q 771 491 777 551 q 761 399 765 431 q 737 237 753 315 q 722 75 722 159 q 790 80 761 75 q 854 85 819 85 q 870 79 864 85 q 876 64 876 72 q 850 31 876 38 q 792 20 825 23 q 729 12 760 18 q 690 -14 699 7 q 655 -143 677 -72 q 603 -286 633 -214 q 531 -423 572 -357 q 439 -542 490 -490 q 326 -625 388 -594 q 187 -656 263 -656 q 64 -616 113 -656 q -14 -513 15 -575 q -54 -380 -43 -452 q -65 -247 -65 -308 m 475 263 q 488 196 475 231 q 522 134 500 161 q 574 87 544 106 q 642 69 605 69 q 654 72 648 69 q 662 84 659 75 l 747 684 l 747 741 q 654 649 703 705 q 566 527 606 593 q 500 393 526 461 q 475 263 475 324 m 922 1076 q 878 1059 895 1076 q 851 1020 861 1043 q 836 971 841 997 q 831 925 831 945 q 832 919 831 924 q 833 911 833 914 q 897 984 872 943 q 922 1076 922 1025 z "},"K":{"ha":1198,"x_min":14,"x_max":2148,"o":"m 14 137 q 16 183 14 152 q 25 246 18 214 q 47 302 33 278 q 84 326 61 326 q 113 321 96 326 q 130 301 130 316 q 94 259 109 285 q 66 208 77 239 q 56 136 56 176 q 67 32 56 79 q 106 -48 79 -15 q 175 -100 133 -81 q 278 -119 217 -119 q 404 -96 343 -119 q 518 -34 465 -73 q 614 58 571 5 q 687 172 656 111 q 734 296 718 232 q 751 422 751 359 q 674 415 711 422 q 598 408 637 408 q 533 416 566 408 q 474 440 500 423 q 431 484 448 457 q 414 552 414 511 q 432 591 414 576 q 475 612 450 605 q 525 622 499 620 q 566 624 551 624 q 687 602 639 624 q 784 522 735 581 l 799 552 q 807 587 800 555 q 823 662 814 618 q 841 750 831 705 q 854 822 850 795 q 854 842 857 826 q 852 861 852 857 q 770 854 819 860 q 671 842 720 848 q 578 832 621 836 q 515 832 536 829 q 505 849 495 836 q 571 890 515 863 q 640 888 601 890 q 717 887 678 886 q 791 897 755 888 q 854 922 826 905 q 882 955 871 933 q 902 1002 892 977 q 919 1055 911 1028 q 938 1102 926 1081 q 967 1137 949 1123 q 1010 1152 985 1152 q 1040 1135 1036 1152 q 1043 1096 1043 1118 q 1032 1046 1043 1072 q 1004 999 1021 1021 q 966 957 987 977 q 926 922 945 937 l 841 522 l 841 513 q 1026 554 936 513 q 1198 661 1116 595 q 1348 802 1279 726 q 1468 949 1416 879 l 1496 949 l 1496 922 q 1481 899 1496 920 q 1446 852 1466 879 q 1404 796 1426 825 q 1369 750 1382 768 q 1262 647 1322 693 q 1133 564 1202 601 q 994 500 1065 528 q 854 452 922 472 l 854 445 l 854 438 q 909 336 875 400 q 985 191 943 271 q 1077 21 1028 111 q 1179 -157 1126 -69 q 1288 -327 1233 -245 q 1396 -469 1343 -408 q 1501 -567 1450 -530 q 1595 -604 1552 -604 q 1737 -589 1674 -604 q 1855 -544 1800 -574 q 1961 -471 1911 -514 q 2062 -372 2011 -427 q 2094 -322 2082 -347 q 2105 -266 2105 -297 q 2091 -206 2105 -232 q 2055 -159 2078 -180 q 2003 -124 2032 -138 q 1946 -100 1975 -110 l 1946 -83 q 2026 -95 1988 -83 q 2091 -130 2064 -107 q 2134 -186 2119 -152 q 2148 -263 2148 -220 q 2122 -368 2148 -317 q 2052 -463 2096 -419 q 1952 -543 2009 -507 q 1836 -605 1896 -579 q 1718 -644 1777 -631 q 1611 -658 1659 -658 q 1508 -624 1563 -659 q 1396 -528 1453 -589 q 1280 -388 1339 -468 q 1164 -220 1221 -308 q 1055 -43 1108 -133 q 958 125 1002 46 q 875 268 913 205 q 812 366 837 331 q 804 359 810 365 q 799 351 799 354 q 713 168 757 259 q 610 3 670 76 q 469 -115 551 -69 q 271 -161 388 -161 l 186 -161 q 102 -115 136 -148 q 50 -42 69 -83 q 22 45 31 -1 q 14 137 14 92 m 469 544 q 481 501 469 519 q 512 472 494 483 q 553 456 530 461 q 597 450 575 450 q 631 449 612 450 q 671 450 651 448 q 707 458 692 452 q 727 480 722 465 q 660 550 705 533 q 563 567 614 567 q 515 568 536 570 q 484 562 498 567 q 469 544 469 557 m 997 1093 q 975 1065 982 1085 q 968 1028 968 1044 l 970 1023 q 991 1048 985 1038 q 998 1078 998 1059 q 998 1086 998 1081 q 997 1093 998 1090 z "},"L":{"ha":1443,"x_min":46,"x_max":2196,"o":"m 916 236 q 854 201 899 225 q 760 149 810 176 q 665 98 709 122 q 602 65 621 73 q 472 27 540 34 q 338 20 404 20 q 239 31 290 20 q 144 66 187 42 q 74 128 102 90 q 46 224 46 167 q 69 311 46 274 q 129 374 92 347 q 212 418 165 400 q 306 446 258 435 q 398 465 354 457 q 473 477 442 472 l 500 477 q 648 455 575 477 q 788 406 720 433 q 802 399 791 404 q 827 387 812 393 q 853 374 841 381 q 872 363 865 366 q 880 358 873 362 q 894 349 886 354 q 908 340 902 345 q 916 335 914 336 q 932 327 921 332 q 944 321 943 321 q 1031 445 991 384 q 1086 553 1072 506 q 1000 557 1054 551 q 885 581 947 564 q 760 623 823 597 q 646 684 697 650 q 563 760 595 718 q 530 853 530 803 q 534 873 530 864 q 553 882 538 882 q 573 856 555 882 q 618 798 591 830 q 671 735 644 765 q 715 696 699 705 q 881 628 796 652 q 1057 604 966 604 q 1096 608 1073 604 q 1127 620 1119 612 l 1497 989 q 1560 1027 1518 1009 q 1645 1047 1602 1044 q 1721 1034 1687 1050 q 1756 971 1754 1019 q 1731 849 1756 902 q 1663 756 1705 796 q 1566 687 1621 716 q 1452 637 1511 658 q 1335 599 1393 616 q 1229 568 1278 582 q 1215 563 1226 567 q 1192 555 1204 559 q 1168 546 1179 551 q 1153 538 1157 541 q 1112 477 1131 506 q 1075 419 1093 448 q 1038 359 1057 391 q 994 290 1019 328 q 1095 127 1048 222 q 1187 -73 1142 31 q 1280 -278 1233 -176 q 1383 -460 1328 -380 q 1503 -589 1438 -540 q 1652 -637 1568 -639 q 1836 -634 1747 -637 q 1997 -605 1926 -631 q 2109 -520 2067 -579 q 2151 -349 2151 -461 q 2139 -276 2151 -311 q 2105 -210 2127 -241 q 2055 -155 2083 -179 q 1992 -114 2026 -130 q 2007 -113 1995 -114 q 2021 -111 2018 -111 q 2100 -135 2067 -111 q 2154 -194 2132 -159 q 2186 -271 2176 -229 q 2196 -350 2196 -312 q 2148 -544 2196 -475 q 2024 -646 2101 -613 q 1845 -686 1946 -680 q 1637 -693 1744 -693 q 1521 -675 1576 -703 q 1418 -593 1466 -647 q 1325 -467 1370 -540 q 1240 -313 1280 -395 q 1160 -149 1199 -232 q 1083 9 1120 -65 q 1008 143 1046 83 q 930 236 970 203 l 922 236 l 916 236 m 102 221 q 124 145 102 175 q 180 97 146 115 q 253 71 213 79 q 330 64 293 64 q 463 69 396 64 q 587 107 529 75 q 657 144 614 121 q 741 190 700 167 q 812 229 783 213 q 845 248 842 245 l 872 278 q 806 338 854 312 q 698 384 757 365 q 579 412 639 403 q 480 422 519 422 q 364 415 430 422 q 240 387 298 408 q 142 326 182 365 q 102 221 102 286 m 1706 948 q 1687 994 1706 982 q 1641 1004 1668 1006 q 1586 989 1614 1001 q 1541 960 1557 977 l 1226 632 l 1249 632 q 1333 642 1284 632 q 1433 672 1382 652 q 1533 720 1484 692 q 1621 782 1581 747 q 1683 859 1660 817 q 1706 948 1706 902 z "},"N":{"ha":951,"x_min":18,"x_max":1232,"o":"m 804 79 q 804 114 804 90 q 804 167 804 138 q 803 221 803 195 q 803 256 803 247 q 810 411 803 335 q 825 564 817 487 q 842 716 834 640 q 849 869 849 792 l 849 963 l 363 506 q 358 461 362 494 q 350 392 354 429 q 341 323 346 355 q 335 278 336 290 q 311 189 330 239 q 264 96 293 140 q 198 22 236 53 q 113 -8 160 -8 q 45 21 72 -8 q 20 94 18 50 q 56 219 26 157 q 127 338 85 281 q 216 445 168 395 q 305 534 264 495 q 307 563 307 541 q 308 591 308 585 q 307 652 308 625 q 301 705 305 678 q 292 763 297 732 q 278 833 286 793 q 266 847 274 845 q 248 849 258 849 q 242 848 247 849 q 235 848 237 848 q 140 789 193 814 q 33 764 88 764 q 37 789 33 780 q 49 803 41 799 q 68 810 57 807 q 94 819 79 812 q 127 836 103 823 q 179 861 152 848 q 230 888 206 875 q 264 905 254 901 q 271 905 266 905 q 278 906 277 906 q 306 892 294 906 q 321 863 317 879 l 365 566 l 876 1061 l 905 1034 q 906 1021 905 1032 q 908 996 907 1009 q 909 970 909 983 q 910 947 910 956 q 899 775 910 860 q 877 606 888 690 q 855 435 865 521 q 845 264 845 350 q 846 233 845 255 q 847 185 846 210 q 848 138 848 160 q 849 107 849 115 q 1118 -136 878 -136 q 1141 -134 1124 -136 q 1175 -130 1157 -132 q 1209 -125 1194 -127 q 1232 -121 1225 -122 q 1202 -146 1221 -137 q 1164 -159 1184 -155 q 1122 -163 1143 -163 q 1084 -164 1100 -164 q 974 -149 1020 -164 q 895 -102 928 -133 q 840 -26 863 -72 q 804 79 818 19 m 76 103 q 76 83 76 95 q 78 60 76 71 q 87 43 80 50 q 106 35 94 35 q 173 58 142 35 q 226 119 203 81 q 264 202 248 156 q 290 295 281 248 q 304 382 300 342 q 309 449 309 422 l 293 449 q 280 439 290 449 q 256 415 270 429 q 229 387 241 401 q 208 363 216 373 q 161 308 184 339 q 120 243 138 277 q 89 173 102 209 q 76 103 76 137 z "},"O":{"ha":766,"x_min":35,"x_max":819,"o":"m 35 435 q 35 474 35 449 q 35 522 35 499 q 36 564 35 545 q 37 585 37 582 q 40 614 37 589 q 47 671 43 639 q 56 734 52 703 q 64 784 61 765 q 79 845 68 806 q 106 924 90 884 q 149 991 123 963 q 208 1019 174 1019 l 208 997 q 102 722 127 863 q 76 425 76 581 q 79 320 76 368 q 96 230 83 273 q 136 149 110 187 q 208 71 161 110 q 231 58 221 60 q 255 57 240 57 q 397 96 332 57 q 514 197 463 136 q 600 330 566 258 q 647 469 633 403 q 467 482 540 463 q 348 549 393 502 q 283 671 302 595 q 263 854 263 747 q 267 945 263 891 q 280 1055 270 998 q 309 1168 290 1112 q 357 1269 328 1225 q 428 1341 387 1313 q 526 1369 469 1369 q 609 1339 574 1369 q 669 1268 644 1310 q 711 1179 694 1226 q 734 1097 727 1133 q 734 1055 734 1085 q 735 990 735 1024 q 735 926 735 956 q 735 883 735 895 q 727 718 735 798 q 719 556 719 639 l 719 541 l 819 585 l 819 576 q 804 556 819 566 q 785 545 800 553 q 753 528 770 537 q 722 511 736 519 q 704 499 707 503 q 695 476 701 495 q 682 435 689 457 q 669 393 675 412 q 662 369 663 373 q 598 241 635 305 q 512 127 562 178 q 401 45 463 76 q 263 14 339 14 q 136 58 180 14 q 68 166 91 102 q 40 304 45 231 q 35 435 35 377 m 304 817 q 318 705 304 762 q 361 602 332 648 q 436 527 391 556 q 547 498 481 498 q 578 497 560 498 q 613 498 595 496 q 644 507 631 500 q 662 526 658 513 q 668 553 663 534 q 677 592 673 571 q 685 631 681 613 q 692 655 689 648 l 692 670 q 694 722 692 680 q 698 812 696 764 q 702 901 700 860 q 704 954 704 943 q 698 1053 704 993 q 673 1170 692 1112 q 622 1272 655 1227 q 534 1325 589 1317 q 454 1301 488 1331 q 393 1223 419 1272 q 351 1112 368 1173 q 323 992 334 1051 q 308 885 312 933 q 304 817 304 837 z "},"P":{"ha":747,"x_min":18,"x_max":1112,"o":"m 18 151 q 35 260 18 213 q 79 347 52 307 q 142 425 107 388 q 214 509 176 463 q 241 540 222 518 q 283 589 259 562 q 333 645 307 616 q 383 701 359 674 q 427 749 407 728 q 456 779 446 769 q 503 939 491 860 q 511 1104 514 1019 q 452 1096 479 1104 q 399 1078 426 1088 q 341 1059 372 1067 q 271 1051 311 1051 l 271 1088 q 326 1089 301 1088 q 374 1096 351 1090 q 420 1110 397 1101 q 471 1135 444 1119 q 499 1158 484 1143 q 528 1189 514 1173 q 557 1215 543 1204 q 587 1226 572 1226 q 579 1139 587 1181 q 562 1053 571 1096 q 545 966 552 1009 q 541 879 538 924 l 854 1194 q 942 1258 899 1237 q 1043 1279 985 1279 q 1096 1267 1080 1279 q 1112 1217 1112 1255 q 1096 1099 1112 1166 q 1050 960 1080 1032 q 977 817 1020 887 q 884 690 935 746 q 778 600 834 635 q 662 566 722 566 q 582 588 620 566 q 513 637 544 610 q 503 588 510 623 q 486 515 495 553 q 468 442 476 476 q 456 395 460 408 q 439 345 449 369 q 419 298 429 320 q 376 212 403 263 q 313 113 349 160 q 231 32 277 65 q 134 -1 186 -1 q 82 12 104 -1 q 46 47 60 24 q 25 96 33 69 q 18 151 18 122 m 61 153 q 64 114 61 133 q 74 79 66 95 q 96 52 81 62 q 134 42 111 42 q 239 83 191 42 q 324 187 286 123 q 390 330 362 251 q 437 484 418 408 q 465 624 456 560 q 475 722 475 688 q 431 690 464 722 q 357 616 397 659 q 277 528 316 574 q 214 452 237 481 q 155 381 183 412 q 106 317 127 350 q 73 246 85 285 q 61 153 61 208 m 526 754 q 534 704 526 730 q 557 656 541 678 q 597 622 574 635 q 648 609 620 609 q 758 642 705 609 q 857 727 811 674 q 940 848 903 780 q 1003 985 977 916 q 1044 1122 1029 1055 q 1058 1237 1058 1188 q 950 1210 997 1237 q 854 1149 903 1183 q 821 1115 844 1138 q 770 1062 799 1092 q 711 1000 742 1032 q 652 939 681 968 q 602 885 624 909 q 570 850 579 861 q 544 822 553 831 q 530 804 534 812 q 526 785 526 796 q 526 754 526 774 z "},"Q":{"ha":933,"x_min":26,"x_max":963,"o":"m 519 198 q 465 141 495 171 q 401 86 435 111 q 328 45 366 61 q 248 30 290 30 q 176 45 212 30 q 113 87 141 61 q 64 146 84 113 q 37 214 45 179 q 26 357 26 273 q 37 534 26 441 q 70 720 49 627 q 121 890 91 814 q 191 1019 152 967 q 278 1082 229 1072 l 347 1082 q 332 1055 347 1067 q 298 1031 317 1043 q 260 1008 279 1020 q 235 983 241 996 q 173 838 206 920 q 115 667 140 755 q 77 490 90 579 q 76 323 64 401 q 130 182 88 244 q 254 84 171 119 q 323 94 288 75 q 391 140 358 113 q 450 198 423 168 q 491 241 476 228 q 458 401 475 321 q 429 559 442 480 q 410 712 416 637 q 406 854 403 787 q 413 929 410 887 q 423 1016 416 971 q 441 1105 430 1061 q 471 1188 453 1150 q 518 1255 490 1226 q 589 1297 547 1284 q 648 1273 624 1297 q 686 1210 671 1249 q 708 1124 701 1171 q 718 1031 715 1077 q 720 946 720 985 q 720 884 720 907 q 684 559 720 713 q 563 256 648 406 q 589 188 572 224 q 631 122 606 152 q 686 73 655 92 q 757 53 718 53 q 865 73 812 53 q 962 127 918 92 q 963 125 963 127 q 963 121 963 122 q 939 72 963 92 q 882 39 914 52 q 814 20 849 26 q 762 14 780 14 q 680 28 715 14 q 618 67 646 42 q 566 126 590 92 q 519 198 543 160 m 449 854 q 450 742 446 800 q 462 625 454 684 q 480 508 469 566 q 506 399 491 450 q 512 378 507 391 q 522 355 517 366 q 534 336 528 345 q 547 328 540 328 q 564 349 552 328 q 589 399 575 370 q 615 461 602 429 q 633 514 628 494 q 676 690 661 605 q 692 868 692 776 q 689 950 692 911 q 680 1027 686 989 q 665 1107 674 1065 q 647 1198 656 1149 q 628 1236 643 1215 q 590 1256 613 1256 q 557 1230 576 1256 q 522 1171 538 1204 q 492 1103 506 1137 q 476 1054 479 1069 q 469 1006 473 1038 q 460 943 464 975 q 452 886 456 911 q 449 854 449 860 z "},"M":{"ha":1290,"x_min":35,"x_max":1606,"o":"m 1133 -118 q 1129 126 1122 5 q 1149 367 1137 247 q 1175 608 1162 487 q 1191 850 1188 728 q 1191 873 1191 857 q 1190 908 1191 890 q 1190 943 1190 926 q 1190 966 1190 959 q 1189 972 1190 966 q 1185 987 1188 979 q 1179 1002 1183 996 q 1168 1009 1175 1009 q 1037 878 1096 954 q 928 716 978 802 q 838 544 879 631 q 762 381 798 457 q 745 333 757 368 q 718 260 732 298 q 692 187 704 222 q 677 137 681 152 q 663 130 674 134 q 648 125 652 125 q 640 130 646 125 q 633 137 635 134 q 633 151 633 141 q 636 186 633 161 q 645 256 639 212 q 663 374 651 300 q 691 559 674 449 q 734 822 708 669 q 722 844 731 841 q 705 844 713 848 q 688 833 696 841 q 677 822 680 826 q 640 777 663 808 q 585 707 616 746 q 520 624 555 667 q 454 541 486 581 q 399 471 423 502 q 363 423 374 439 q 350 375 359 410 q 329 302 340 340 q 307 229 317 264 q 293 182 297 194 q 262 115 282 149 q 217 54 243 81 q 159 11 191 27 q 92 -5 127 -5 q 46 -1 57 -5 q 35 39 35 4 q 40 83 35 66 q 64 125 45 100 q 212 319 157 239 q 297 452 267 399 q 336 535 327 505 q 349 581 346 566 q 355 610 353 585 q 359 671 358 636 q 359 744 359 705 q 357 812 358 783 q 353 858 355 842 q 349 865 351 873 q 191 799 247 822 q 108 765 134 776 q 76 752 81 754 q 71 750 71 750 q 56 757 62 750 q 49 773 49 764 q 59 787 49 780 q 82 798 69 793 q 106 804 95 802 q 121 808 118 807 q 174 835 144 818 q 234 867 203 852 q 294 896 264 883 q 349 910 324 909 q 387 896 374 910 q 404 862 400 882 q 408 819 408 842 q 407 776 407 795 q 399 658 407 718 q 392 524 392 598 q 543 720 481 642 q 644 846 604 799 q 707 913 685 894 q 742 931 730 932 q 761 911 754 930 q 777 865 768 892 q 777 844 777 857 q 777 817 777 830 q 776 791 776 803 q 776 779 776 780 q 766 709 773 760 q 750 601 760 658 q 732 494 741 544 q 719 423 724 444 q 787 553 751 481 q 862 695 823 624 q 941 834 901 766 q 1021 956 981 902 q 1102 1046 1061 1009 q 1181 1089 1143 1082 q 1221 1065 1208 1089 q 1240 1008 1234 1040 q 1247 941 1246 975 q 1248 887 1248 907 l 1248 850 q 1233 674 1246 768 q 1205 481 1219 581 q 1178 281 1191 382 q 1165 85 1165 180 q 1183 -94 1165 -9 q 1242 -248 1200 -179 q 1358 -363 1284 -316 q 1546 -430 1432 -411 q 1593 -416 1580 -418 q 1603 -420 1606 -415 q 1583 -433 1599 -425 q 1547 -450 1567 -442 q 1508 -460 1527 -457 q 1474 -460 1488 -464 q 1339 -431 1397 -460 q 1241 -353 1282 -401 q 1174 -244 1200 -305 q 1133 -118 1147 -183 m 91 38 q 136 52 113 38 q 178 85 159 65 q 212 128 197 106 q 235 167 228 151 q 243 193 236 172 q 261 238 251 213 q 280 287 271 263 q 293 324 289 311 l 293 332 q 243 275 277 313 q 175 193 210 236 q 115 106 140 149 q 91 38 91 64 z "},"R":{"ha":952,"x_min":20,"x_max":982,"o":"m 110 -52 q 35 2 50 -49 q 34 133 20 53 q 81 313 47 213 q 151 513 114 412 q 221 707 189 614 q 267 867 254 800 q 256 931 267 918 q 229 939 245 944 q 188 920 212 935 q 138 902 164 906 l 138 937 q 159 955 142 943 q 194 979 175 967 q 231 1000 213 990 q 259 1009 250 1009 q 280 1001 271 1009 q 295 981 289 993 q 304 957 301 970 q 309 937 308 944 q 313 912 311 930 q 317 873 315 894 q 322 835 320 853 q 324 808 324 817 q 344 836 327 817 q 387 880 361 856 q 443 930 412 903 q 504 981 473 958 q 562 1024 534 1005 q 605 1053 589 1043 q 720 1101 678 1096 q 779 1082 762 1105 q 789 1016 795 1059 q 762 920 784 972 q 703 812 739 868 q 624 710 667 757 q 532 631 581 663 q 438 595 484 600 q 494 523 465 571 q 551 416 522 475 q 610 298 579 358 q 674 189 642 239 q 743 107 707 138 q 821 76 780 76 q 911 93 865 76 q 982 151 958 110 q 966 94 982 117 q 925 56 949 71 q 868 32 901 41 q 804 20 836 23 q 698 66 742 23 q 619 172 654 110 q 553 304 585 233 q 486 432 522 374 q 404 524 450 490 q 293 545 358 557 q 236 291 259 392 q 197 127 213 190 q 170 33 180 64 q 149 -13 159 1 q 131 -34 140 -27 q 110 -52 122 -41 m 227 570 q 169 463 197 532 q 119 318 141 395 q 84 168 98 241 q 71 47 71 95 q 96 17 80 7 q 131 71 113 27 q 167 181 149 114 q 199 320 184 248 q 222 458 214 392 q 227 570 229 525 m 594 979 q 494 897 551 937 q 390 812 438 856 q 313 722 342 769 q 296 624 285 675 q 406 620 349 604 q 518 673 464 636 q 621 762 572 711 q 702 863 669 812 q 750 957 735 914 q 755 1021 765 1000 q 708 1036 746 1043 q 594 979 670 1029 z "},"S":{"ha":1206,"x_min":14,"x_max":1394,"o":"m 38 38 q 29 45 34 38 q 21 62 24 53 q 16 80 18 71 q 14 92 14 90 q 45 111 14 100 q 123 136 77 121 q 218 173 170 152 q 300 225 267 194 q 276 381 277 312 q 304 503 275 450 q 392 595 332 556 q 551 662 452 633 q 543 650 543 655 q 547 640 544 644 q 553 633 551 636 q 551 625 555 629 q 426 560 479 590 q 345 490 373 530 q 314 391 316 449 q 342 241 312 332 q 496 352 422 301 q 646 457 570 403 q 805 574 722 511 q 990 722 888 637 l 1019 1107 q 1042 1202 1023 1153 q 1096 1290 1062 1251 q 1173 1354 1130 1329 q 1264 1379 1215 1379 q 1369 1320 1344 1362 q 1381 1225 1394 1279 q 1327 1106 1369 1171 q 1235 975 1286 1042 q 1133 844 1184 909 q 1050 727 1082 780 q 1061 471 1069 597 q 1017 241 1053 346 q 920 66 982 137 q 770 -23 859 -4 q 568 1 682 -42 q 313 171 454 45 l 38 38 m 369 191 q 582 46 484 84 q 755 24 680 8 q 886 99 831 39 q 971 246 940 159 q 1009 441 1002 334 q 996 659 1016 548 l 369 191 m 1263 1336 q 1164 1298 1203 1329 q 1104 1221 1126 1267 q 1072 1120 1082 1176 q 1059 1007 1062 1065 q 1053 896 1055 949 q 1044 800 1051 842 q 1092 849 1062 815 q 1156 927 1122 883 q 1223 1021 1190 971 q 1284 1117 1257 1072 q 1329 1201 1312 1162 q 1345 1263 1345 1240 q 1320 1318 1345 1299 q 1263 1336 1295 1336 z "},"T":{"ha":1034,"x_min":19,"x_max":1133,"o":"m 19 320 q 30 391 19 353 q 60 464 41 430 q 110 519 80 498 q 180 541 140 541 q 218 534 197 541 q 239 503 239 526 q 171 491 203 503 q 115 457 138 479 q 76 402 91 435 q 61 328 61 369 q 94 220 61 270 q 178 134 127 171 q 287 77 228 98 q 399 56 346 56 q 589 109 503 56 q 734 241 674 163 q 926 637 863 420 q 990 1082 989 853 q 899 1013 944 1046 q 801 954 853 979 q 688 917 749 929 q 548 911 627 905 q 467 916 509 911 q 383 924 425 921 q 300 924 342 926 q 220 909 258 921 l 220 1097 q 250 1097 241 1107 q 262 1067 259 1088 q 262 1023 264 1047 q 258 978 259 998 q 419 965 342 978 q 578 952 496 952 q 695 967 635 952 q 812 1008 755 982 q 918 1072 868 1035 q 1002 1153 967 1108 q 1010 1200 1005 1171 q 1021 1263 1015 1230 q 1041 1324 1028 1295 q 1076 1369 1054 1352 q 1116 1345 1101 1369 q 1133 1297 1130 1322 q 1120 1245 1133 1268 q 1093 1201 1108 1222 q 1064 1159 1078 1180 q 1047 1111 1050 1138 q 1042 1067 1046 1097 q 1033 998 1038 1036 q 1022 918 1028 960 q 1010 838 1016 876 q 998 770 1004 800 q 990 727 993 741 q 949 577 975 656 q 887 418 924 498 q 802 266 850 339 q 694 136 754 193 q 562 47 635 80 q 406 14 490 14 q 277 37 345 14 q 152 100 209 60 q 57 196 95 140 q 19 320 19 252 m 1089 1297 q 1079 1267 1082 1282 q 1076 1225 1076 1252 q 1088 1249 1086 1237 q 1090 1275 1090 1260 q 1090 1286 1090 1278 q 1089 1297 1089 1294 z "},"U":{"ha":1142,"x_min":27,"x_max":1198,"o":"m 197 258 q 197 272 197 263 q 197 290 197 281 q 199 305 198 298 q 199 313 199 312 l 286 841 l 286 898 q 248 879 266 884 q 212 871 229 873 q 178 868 195 868 q 138 868 161 868 q 115 867 133 868 q 78 869 98 867 q 43 880 58 872 q 27 905 27 887 q 28 909 27 906 q 30 913 30 911 q 64 934 49 926 q 100 941 79 941 q 106 937 103 941 q 100 913 110 933 q 121 911 106 911 q 142 910 137 910 q 199 920 172 910 q 252 941 227 929 q 304 964 278 954 q 357 974 330 974 l 357 940 l 241 285 l 241 264 q 249 201 241 236 q 273 134 256 165 q 316 79 290 102 q 378 57 342 57 q 420 66 400 57 q 458 92 441 76 q 489 124 475 107 q 514 157 503 141 q 590 293 560 224 q 646 433 620 362 q 701 574 673 503 q 769 712 728 644 l 842 997 q 850 1008 844 1005 q 863 1012 856 1012 q 881 1000 878 1012 q 884 977 884 987 q 873 851 884 914 q 848 724 861 788 q 823 597 834 661 q 811 469 811 533 q 820 336 811 404 q 857 213 829 269 q 935 121 884 157 q 1067 84 986 84 q 1129 94 1107 84 q 1181 127 1152 104 q 1191 122 1184 127 q 1198 114 1198 117 q 1182 75 1198 90 q 1145 53 1166 60 q 1101 44 1123 46 q 1062 42 1078 42 q 934 69 986 42 q 848 140 882 96 q 797 243 814 184 q 772 366 780 302 q 766 493 765 429 q 769 613 766 557 q 754 572 765 600 q 730 511 743 545 q 701 440 716 477 q 670 370 685 403 q 644 310 655 336 q 627 271 632 283 q 585 188 609 233 q 530 104 562 142 q 459 40 499 66 q 369 14 419 14 q 286 36 320 14 q 233 94 252 58 q 205 172 214 129 q 197 258 197 216 z "},"V":{"ha":774,"x_min":11,"x_max":798,"o":"m 171 997 l 164 997 q 159 998 161 997 q 155 998 156 998 q 84 989 117 998 q 11 979 52 979 q 30 1010 11 1001 q 60 1023 38 1016 q 106 1040 81 1031 q 155 1057 132 1050 q 186 1069 178 1065 l 193 1069 q 208 1062 205 1069 q 214 1040 212 1055 q 220 998 216 1027 q 231 931 225 968 q 245 854 237 894 q 262 778 254 814 q 276 713 270 742 q 286 670 282 684 q 310 591 294 640 q 343 486 326 543 q 381 371 361 430 q 420 262 401 312 q 451 176 438 213 q 469 127 464 138 l 484 100 q 492 106 487 102 q 499 114 498 111 q 511 139 503 121 q 527 177 518 157 q 545 216 536 197 q 556 241 553 235 q 576 311 563 264 q 604 416 589 357 q 637 540 620 475 q 669 665 654 605 q 695 771 684 724 q 712 841 707 818 q 720 890 713 850 q 734 981 727 930 q 747 1079 741 1031 q 755 1153 753 1127 q 754 1176 757 1161 q 751 1205 751 1191 q 753 1233 750 1219 q 769 1253 757 1246 l 772 1253 q 774 1254 773 1253 q 776 1255 774 1255 q 798 1233 798 1255 l 798 1225 q 794 1173 796 1204 q 790 1113 792 1142 q 786 1062 788 1084 q 784 1040 784 1040 q 697 665 735 823 q 630 394 659 506 q 579 210 601 282 q 539 94 557 137 q 504 31 521 52 q 469 0 487 9 q 456 14 463 4 q 443 37 449 24 q 433 58 437 49 q 427 71 429 68 l 228 684 l 171 997 z "},"W":{"ha":1352,"x_min":19,"x_max":1320,"o":"m 692 670 q 652 515 671 587 q 612 373 633 442 q 566 237 591 304 q 506 100 540 170 q 490 85 499 85 q 469 84 481 84 q 418 111 439 84 q 381 174 396 138 q 359 246 366 210 q 349 298 351 282 q 345 330 347 308 q 341 378 343 353 q 337 425 339 403 q 335 456 335 448 q 335 525 335 477 q 336 631 335 572 q 337 755 336 690 q 338 878 338 819 q 340 985 339 937 q 340 1054 340 1032 l 305 1054 q 269 1036 296 1048 q 214 1010 243 1024 q 157 985 184 997 q 121 970 130 974 q 112 968 119 970 q 95 964 104 966 q 77 959 85 962 q 64 954 68 956 q 61 952 62 952 l 56 952 q 32 958 45 952 q 19 975 19 963 q 37 997 19 993 q 52 999 39 997 q 79 1003 64 1001 q 106 1007 94 1005 q 121 1010 118 1009 q 165 1031 133 1017 q 235 1061 198 1044 q 304 1090 273 1077 q 349 1111 336 1104 q 356 1112 351 1111 q 363 1112 361 1112 q 387 1103 381 1112 q 392 1078 392 1093 q 377 880 392 979 q 362 681 362 780 q 362 667 362 677 q 363 650 362 658 q 363 635 363 642 q 363 627 363 628 q 368 562 363 609 q 376 463 372 515 q 385 363 381 410 q 392 298 389 316 q 400 267 393 292 q 417 214 407 241 q 441 163 427 186 q 469 141 454 141 q 491 157 486 141 l 704 812 l 719 826 q 737 808 728 821 q 747 784 746 795 l 819 313 q 842 240 823 282 q 887 160 860 198 q 949 96 914 122 q 1021 69 983 69 q 1077 94 1051 69 q 1122 153 1103 119 q 1155 220 1142 187 q 1175 271 1168 254 q 1217 391 1196 326 q 1253 523 1237 456 q 1280 657 1270 590 q 1290 783 1290 724 q 1284 859 1290 817 q 1265 945 1278 902 q 1232 1028 1252 987 q 1185 1101 1213 1069 q 1124 1151 1158 1133 q 1047 1169 1089 1169 q 1022 1169 1039 1169 q 1004 1168 1005 1169 q 989 1160 1001 1168 q 975 1153 978 1153 q 967 1159 972 1153 q 962 1168 962 1165 q 977 1196 967 1185 q 998 1210 986 1206 q 1023 1214 1009 1214 q 1051 1214 1038 1214 q 1183 1170 1131 1214 q 1265 1061 1234 1126 q 1308 923 1295 997 q 1320 787 1320 849 q 1312 673 1320 746 q 1286 513 1303 600 q 1244 338 1270 427 q 1187 177 1219 250 q 1114 58 1154 104 q 1025 12 1073 12 q 931 41 974 12 q 857 112 888 69 q 804 204 825 155 q 774 298 784 254 q 770 330 774 305 q 762 388 766 354 q 751 463 757 422 q 739 542 745 503 q 728 614 734 581 q 719 670 722 648 q 718 680 718 675 q 718 686 719 684 q 715 691 718 689 q 704 697 712 693 l 692 670 z "},"X":{"ha":1232,"x_min":37,"x_max":1290,"o":"m 180 -269 q 290 -88 235 -183 q 397 106 345 7 q 494 302 449 205 q 574 487 540 399 q 457 597 503 540 q 377 720 411 655 q 315 858 343 785 q 251 1016 286 930 l 49 929 q 45 958 37 943 q 75 987 54 974 q 125 1015 96 1001 q 185 1038 155 1028 q 242 1052 216 1047 q 285 1057 269 1057 q 338 926 312 998 q 398 780 363 853 q 481 641 433 707 q 601 530 529 575 q 659 692 632 609 q 716 861 686 776 q 782 1025 746 945 q 867 1175 818 1105 q 874 1181 868 1183 q 888 1174 880 1180 q 901 1159 895 1168 q 907 1143 907 1150 q 823 932 859 1024 q 760 772 787 841 q 714 657 732 704 q 685 579 696 610 q 655 496 658 507 q 741 408 697 461 q 829 300 784 355 q 924 193 875 244 q 1028 109 974 141 q 1143 71 1082 77 q 1272 100 1204 65 q 1275 95 1272 100 q 1281 83 1278 90 q 1287 71 1284 76 q 1290 66 1290 66 q 1162 26 1215 35 q 1067 30 1109 16 q 984 77 1024 43 q 896 162 944 110 q 783 283 848 214 q 625 438 718 353 q 472 130 536 256 q 363 -78 408 4 q 288 -205 317 -160 q 239 -268 259 -250 q 206 -283 220 -286 q 180 -269 193 -281 z "},"Z":{"ha":1089,"x_min":20,"x_max":1674,"o":"m 1674 -38 q 1524 -163 1606 -127 q 1347 -199 1442 -199 q 1171 -176 1263 -199 q 985 -115 1080 -152 q 795 -37 890 -79 q 608 41 700 5 q 430 102 517 77 q 267 126 343 126 q 158 110 209 126 q 62 56 107 94 q 52 55 58 56 q 40 56 46 54 q 28 60 34 57 q 20 71 22 64 q 68 112 47 96 q 110 140 90 127 q 156 162 130 152 q 220 186 182 172 q 235 191 224 186 q 248 198 245 197 l 804 627 l 933 769 l 933 783 q 870 775 902 783 q 808 760 838 768 q 746 746 777 753 q 684 739 715 739 q 633 741 655 739 q 591 748 612 743 q 546 761 570 753 q 491 784 522 769 q 467 757 480 768 q 435 742 453 746 l 435 903 q 460 899 454 903 q 469 887 467 894 q 475 871 472 880 q 491 854 479 863 q 548 821 521 833 q 602 805 575 810 q 659 799 629 800 q 726 798 689 798 q 856 806 791 798 q 975 854 921 815 q 1021 901 1000 872 q 1063 958 1042 930 q 1110 1006 1085 986 q 1169 1027 1135 1027 q 1195 1022 1185 1027 q 1204 997 1204 1017 q 1173 943 1204 981 q 1094 857 1142 906 q 988 754 1046 808 q 878 652 930 700 q 786 566 826 604 q 734 514 746 529 q 688 479 718 503 q 620 427 658 456 q 541 364 582 397 q 460 302 499 331 q 392 249 422 273 q 349 214 362 225 q 334 200 345 212 q 320 186 323 189 q 421 168 358 190 q 564 110 484 146 q 738 31 644 73 q 932 -50 831 -12 q 1137 -113 1034 -88 q 1343 -137 1241 -137 q 1493 -119 1423 -137 q 1552 -104 1530 -113 q 1590 -83 1573 -95 q 1622 -56 1606 -72 q 1666 -19 1637 -41 q 1669 -28 1667 -18 q 1674 -38 1671 -38 m 1147 970 q 1141 970 1147 974 q 1128 959 1135 966 q 1118 946 1122 952 q 1118 940 1114 940 q 1136 950 1124 939 q 1147 970 1147 962 z "},"[":{"ha":933,"x_min":37,"x_max":911,"o":"m 107 30 q 109 80 107 46 q 111 157 110 114 q 114 249 113 201 q 117 340 115 297 q 119 418 118 384 q 121 469 121 453 q 121 494 121 473 q 122 525 122 515 q 116 654 122 589 q 92 784 110 719 q 87 802 91 789 q 79 827 83 814 q 70 853 75 841 q 64 869 65 865 q 59 879 64 871 q 50 897 54 887 q 41 915 45 907 q 37 925 37 922 q 47 939 37 928 q 64 954 57 949 l 66 954 q 68 955 68 954 q 69 956 68 956 q 168 946 121 956 q 263 924 216 936 q 361 903 311 913 q 469 892 412 892 q 499 893 477 892 q 545 895 521 894 q 591 897 570 895 q 620 898 612 898 q 640 905 625 899 q 671 915 654 910 q 707 924 689 920 q 739 928 726 928 q 715 863 739 882 q 655 838 690 844 q 577 836 620 833 q 500 838 534 838 q 479 838 491 838 q 454 840 467 838 q 431 841 441 841 q 419 841 420 841 q 364 848 404 842 q 278 860 324 853 q 192 873 232 867 q 136 883 152 880 q 135 873 136 880 q 134 863 134 865 q 148 709 134 788 q 164 556 161 631 q 164 501 164 537 q 163 419 164 465 q 162 322 163 373 q 161 225 161 271 q 159 142 160 179 q 159 88 159 106 q 203 94 180 88 q 247 108 225 100 q 290 121 269 115 q 335 127 311 127 l 910 127 q 911 112 910 123 q 909 88 911 100 q 901 66 907 76 q 883 57 895 57 q 709 71 796 57 q 533 85 623 85 q 467 87 495 85 q 414 87 439 88 q 364 82 389 85 q 307 71 339 79 q 269 57 290 66 q 226 37 247 47 q 182 20 205 27 q 141 14 160 14 q 121 14 133 14 q 107 30 110 15 z "},"\\":{"ha":519,"x_min":19,"x_max":506,"o":"m 463 14 q 422 74 450 34 q 359 165 395 114 q 286 271 324 216 q 212 377 247 327 q 149 467 176 427 q 107 526 121 507 q 90 547 103 532 q 64 578 77 563 q 39 608 52 594 q 20 627 26 623 q 20 634 20 629 q 19 642 19 639 q 24 661 19 652 q 42 670 30 670 l 49 670 q 59 661 53 667 q 71 648 65 655 q 83 635 77 642 q 92 627 90 629 l 448 141 q 467 122 457 129 q 486 108 477 115 q 500 89 495 100 q 506 57 506 77 q 498 25 506 41 q 476 0 491 9 l 463 14 z "},"]":{"ha":662,"x_min":14,"x_max":628,"o":"m 80 103 q 109 98 96 103 q 134 87 121 94 q 159 75 146 80 q 186 71 171 71 l 541 71 q 556 85 555 71 q 557 106 557 99 q 557 117 557 109 q 556 127 556 125 l 469 784 q 456 841 479 815 q 400 846 441 842 q 314 854 359 849 q 228 863 269 859 q 171 869 187 867 q 137 875 159 871 q 95 883 115 879 q 60 891 75 887 q 43 898 45 895 l 14 925 q 28 940 18 939 q 49 941 39 941 q 85 939 71 941 q 114 932 99 936 q 149 922 129 928 q 199 913 168 917 q 357 897 277 901 q 514 898 437 892 l 613 114 q 624 78 620 95 q 628 42 628 61 q 623 14 628 30 q 598 0 618 -1 l 186 14 q 109 37 137 16 q 80 103 80 57 z "},"^":{"ha":449,"x_min":20,"x_max":420,"o":"m 363 613 q 347 661 359 627 q 321 733 335 694 q 296 806 308 772 q 278 854 283 841 q 273 866 277 859 q 264 882 270 873 q 254 900 259 891 q 248 911 250 909 q 210 871 228 898 q 175 812 191 845 q 143 747 159 780 q 111 686 127 713 q 78 642 95 659 q 42 625 61 625 q 20 640 27 625 q 41 680 26 651 q 71 740 56 708 q 100 800 85 772 q 121 841 115 829 q 134 861 123 845 q 156 897 144 878 q 178 932 168 916 q 191 954 189 949 q 208 982 199 967 q 225 1010 216 997 q 247 1033 235 1024 q 278 1042 259 1042 q 286 1041 281 1042 q 292 1039 290 1040 q 303 951 292 998 q 331 857 315 905 q 364 768 347 810 q 392 697 381 727 q 396 687 392 694 q 406 669 400 680 q 415 651 411 659 q 419 640 419 643 l 419 637 q 420 635 419 636 q 420 632 420 633 q 410 608 420 618 q 385 597 399 597 q 363 613 370 597 z "},"_":{"ha":677,"x_min":30,"x_max":629,"o":"m 30 42 q 80 45 46 43 q 157 47 114 46 q 249 50 201 49 q 341 53 297 52 q 419 56 385 54 q 469 57 453 57 q 500 58 477 57 q 549 58 524 58 q 598 58 575 58 q 629 58 621 58 q 628 47 629 54 q 625 33 627 41 q 620 19 623 24 q 613 14 617 14 l 30 14 l 30 42 z "},"a":{"ha":605,"x_min":-1,"x_max":678,"o":"m 94 -4 q 23 39 45 9 q 0 105 1 68 q 16 184 -1 142 q 63 266 34 227 q 130 337 92 305 q 210 387 168 369 q 296 406 252 406 q 378 382 339 407 q 353 309 365 349 q 336 228 342 269 q 335 149 331 187 q 357 81 339 110 q 412 33 374 52 q 509 15 449 15 q 564 30 545 20 q 597 53 583 39 q 627 84 612 66 q 671 123 642 102 l 678 123 q 656 50 674 77 q 612 6 639 22 q 553 -14 586 -9 q 483 -19 519 -19 q 339 18 392 -19 q 279 138 286 54 q 256 96 275 122 q 211 47 237 71 q 153 8 184 23 q 94 -4 122 -7 m 47 114 q 49 85 47 99 q 56 61 50 72 q 71 44 61 50 q 100 38 81 38 q 172 72 136 39 q 238 149 209 104 q 286 241 267 193 q 307 321 304 289 q 254 353 290 351 q 178 328 218 354 q 100 247 137 301 q 47 114 64 193 z "},"Y":{"ha":902,"x_min":50,"x_max":859,"o":"m 98 -286 q 66 -229 77 -259 q 53 -175 56 -198 q 55 -138 50 -152 q 71 -130 60 -123 q 100 -168 83 -137 q 141 -264 118 -198 q 278 -471 214 -404 q 399 -548 342 -537 q 504 -519 456 -559 q 592 -407 552 -480 q 664 -234 632 -334 q 719 -23 696 -134 q 755 202 742 88 q 773 419 769 316 q 711 286 750 334 q 627 230 671 239 q 538 250 582 221 q 463 347 495 279 q 416 522 430 415 q 416 774 403 629 q 383 761 403 772 q 343 736 363 750 q 302 709 323 722 q 264 691 281 697 q 236 688 247 685 q 224 712 225 692 q 267 736 243 720 q 317 770 292 753 q 368 801 343 787 q 411 821 392 815 q 443 823 430 827 q 458 796 456 818 q 462 706 463 755 q 462 606 461 656 q 467 504 463 555 q 487 410 472 453 q 529 335 502 368 q 601 288 556 302 q 697 343 661 301 q 753 441 734 385 q 782 564 773 498 q 796 696 791 631 q 808 821 802 762 q 829 921 814 879 l 859 910 q 840 533 854 720 q 800 176 825 346 q 739 -140 774 5 q 657 -391 704 -286 q 553 -554 610 -496 q 425 -606 495 -612 q 273 -524 355 -600 q 98 -286 191 -449 z "},"b":{"ha":407,"x_min":4,"x_max":456,"o":"m 19 289 q 46 549 33 441 q 76 734 60 658 q 109 857 92 810 q 145 929 126 905 q 184 962 164 954 q 225 971 205 971 q 319 922 293 962 q 340 827 345 883 q 309 703 336 770 q 241 571 281 636 q 156 448 201 506 q 73 351 111 389 q 54 187 57 245 q 58 102 52 129 q 83 71 65 75 q 126 69 102 66 q 183 108 159 73 q 222 186 208 142 q 240 273 236 231 q 235 335 244 315 q 322 334 283 336 q 406 335 361 331 q 433 336 420 335 q 451 335 446 338 q 450 323 456 332 q 420 292 444 313 q 395 288 414 290 q 357 284 377 286 q 317 280 336 282 q 292 278 298 278 q 282 249 289 267 q 267 210 275 231 q 252 170 259 189 q 241 141 245 152 q 223 99 235 122 q 196 57 212 76 q 160 25 180 38 q 117 12 140 12 q 49 33 73 8 q 14 98 24 57 q 6 189 4 138 q 19 289 8 240 m 237 917 q 190 878 212 909 q 151 801 168 846 q 120 702 133 755 q 98 598 107 648 q 85 507 90 548 q 81 445 80 467 q 124 482 100 456 q 172 544 148 509 q 218 621 195 579 q 259 702 241 662 q 288 777 277 742 q 298 834 298 811 q 297 866 298 852 q 290 892 296 880 q 272 910 285 903 q 237 917 259 917 z "},"c":{"ha":503,"x_min":4,"x_max":528,"o":"m 518 106 q 243 12 349 30 q 83 16 138 -5 q 16 86 27 38 q 22 189 4 134 q 79 295 39 244 q 170 371 119 346 q 272 385 220 396 q 363 305 324 373 l 363 300 q 350 286 361 296 q 336 273 339 275 q 290 328 317 312 q 230 338 262 343 q 167 312 198 334 q 111 258 136 290 q 71 184 85 225 q 56 100 56 142 q 93 60 65 71 q 157 52 121 50 q 238 65 194 54 q 325 90 282 76 q 407 117 368 104 q 474 134 446 129 q 515 134 502 140 q 518 106 528 129 z "},"d":{"ha":627,"x_min":4,"x_max":673,"o":"m 4 118 q 72 278 35 220 q 153 364 109 336 q 248 398 197 392 q 358 404 300 404 q 378 496 369 453 q 397 578 387 538 q 421 654 407 617 q 457 731 435 692 q 475 765 471 755 q 499 774 479 774 q 528 762 518 774 q 541 731 537 749 q 545 694 545 713 q 545 662 545 675 q 525 551 545 604 q 479 446 505 498 q 433 342 454 393 q 412 235 412 290 q 415 185 412 213 q 428 132 418 157 q 454 90 438 107 q 500 73 471 73 q 541 81 521 73 q 578 97 560 88 q 616 113 597 106 q 656 119 636 119 q 665 119 659 119 q 673 118 670 118 q 594 54 646 76 q 496 33 543 33 q 441 43 463 33 q 407 73 420 53 q 382 117 393 92 q 358 175 372 142 q 304 115 334 148 q 240 55 274 83 q 168 9 206 27 q 85 -9 129 -9 q 41 1 58 -9 q 16 31 24 12 q 6 72 8 49 q 4 118 4 95 m 58 104 q 60 81 58 94 q 67 57 62 68 q 81 39 72 46 q 102 33 90 33 q 171 58 129 33 q 252 122 213 84 q 318 201 290 160 q 346 275 346 243 q 330 331 346 313 q 278 349 315 349 q 194 326 233 349 q 124 267 155 302 q 76 189 94 232 q 58 104 58 146 m 502 703 q 464 634 480 674 q 436 553 448 594 q 419 471 425 511 q 414 404 414 431 q 414 397 414 401 q 415 391 415 392 l 429 404 q 441 433 431 407 q 463 492 452 458 q 486 562 475 526 q 502 618 496 597 q 503 636 502 620 q 503 659 503 652 q 503 681 503 665 q 502 703 502 697 z "},"e":{"ha":491,"x_min":-4,"x_max":519,"o":"m 0 159 q 10 267 -4 209 q 55 372 24 324 q 130 453 85 420 q 228 486 175 486 q 259 474 247 486 q 271 444 271 463 q 248 355 271 399 q 190 273 224 312 q 119 199 156 233 q 57 141 81 165 q 56 135 57 140 q 56 127 56 130 q 68 90 56 106 q 98 63 80 73 q 138 47 117 53 q 176 42 159 42 q 271 52 231 42 q 347 83 312 62 q 412 134 381 104 q 475 201 442 164 q 486 217 484 212 q 489 227 488 222 q 492 234 490 231 q 505 244 495 237 q 517 232 515 240 q 519 216 519 224 q 475 132 509 176 q 393 52 441 88 q 290 -7 346 15 q 180 -22 235 -30 q 79 26 126 -15 q 0 159 31 68 m 231 430 q 165 410 197 430 q 109 359 133 389 q 69 292 84 328 q 54 228 54 256 q 55 213 54 225 q 57 198 56 201 q 112 238 81 212 q 169 297 142 264 q 213 364 195 330 q 231 430 231 399 z "},"f":{"ha":488,"x_min":-47,"x_max":545,"o":"m -47 -361 q -46 -271 -47 -312 q -39 -189 -45 -231 q -22 -96 -33 -146 q 8 20 -11 -46 l 224 548 q 282 526 267 553 q 292 452 297 498 q 267 349 288 406 q 217 238 245 292 q 156 141 189 184 q 96 77 123 98 q 113 41 100 56 q 144 18 126 26 q 180 7 161 9 q 218 4 199 4 q 356 27 293 4 q 480 92 419 50 q 500 109 494 100 q 513 124 507 118 q 525 134 518 130 q 545 138 532 138 q 524 88 545 113 q 470 43 503 64 q 395 6 437 23 q 314 -24 354 -11 q 239 -44 274 -37 q 184 -53 205 -52 q 197 -131 184 -94 q 212 -210 210 -168 q 205 -267 212 -231 q 189 -344 199 -302 q 164 -427 179 -385 q 129 -502 149 -468 q 85 -557 109 -536 q 34 -579 61 -579 q -13 -552 4 -579 q -37 -489 -30 -525 q -46 -417 -45 -453 q -47 -361 -47 -381 m -5 -343 q -5 -387 -5 -357 q 1 -446 -4 -416 q 16 -499 7 -476 q 46 -522 26 -522 q 77 -503 61 -522 q 106 -452 92 -483 q 130 -385 119 -422 q 150 -315 141 -349 q 163 -253 159 -281 q 168 -214 168 -225 q 165 -149 168 -178 q 151 -96 161 -119 q 120 -54 140 -72 q 66 -22 100 -37 q 31 -75 45 -34 q 8 -166 16 -115 q -3 -266 0 -217 q -5 -343 -5 -315 m 138 206 q 175 256 157 228 q 208 316 193 285 q 231 379 222 347 q 240 441 240 411 q 239 452 240 444 q 239 463 239 460 l 224 449 l 138 221 l 138 206 z "},"g":{"ha":597,"x_min":-45,"x_max":656,"o":"m -42 -559 q -44 -534 -43 -553 q -45 -509 -45 -515 q -34 -439 -45 -473 q -7 -371 -23 -404 q 31 -308 9 -338 q 75 -254 53 -278 q 113 -220 84 -244 q 173 -170 141 -197 q 233 -121 205 -144 q 273 -90 262 -99 q 287 -40 286 -65 q 288 11 288 -15 q 287 39 288 18 q 286 68 286 61 q 248 46 270 58 q 201 22 225 34 q 153 3 178 11 q 106 -4 127 -4 q 48 20 73 -3 q 12 76 23 42 q 5 151 0 110 q 37 234 9 193 q 116 312 64 275 q 250 372 168 349 q 279 371 262 372 q 314 366 297 370 q 342 351 331 361 q 354 321 354 340 q 352 254 354 296 q 348 167 350 213 q 344 79 346 121 q 342 11 342 37 q 342 -3 342 8 q 343 -18 343 -15 q 420 18 387 -1 q 486 56 453 37 q 555 92 518 75 q 642 125 591 110 q 656 103 656 117 q 637 90 656 100 q 585 63 617 79 q 514 28 553 47 q 438 -12 475 8 q 372 -52 401 -33 q 328 -90 342 -72 q 321 -153 327 -107 q 308 -252 315 -199 q 295 -351 301 -304 q 286 -416 289 -399 q 271 -492 279 -454 q 244 -561 262 -530 q 197 -611 227 -591 q 122 -631 168 -631 q 80 -626 103 -631 q 34 -612 57 -621 q -9 -589 11 -602 q -42 -559 -30 -575 m 0 -503 q 13 -540 0 -524 q 45 -566 26 -556 q 87 -582 65 -576 q 129 -587 110 -587 q 186 -561 163 -587 q 224 -494 209 -534 q 250 -404 240 -453 q 264 -311 259 -355 q 271 -230 270 -266 q 273 -180 273 -194 l 273 -146 q 186 -212 233 -172 q 97 -300 138 -252 q 28 -399 56 -347 q 0 -503 0 -452 m 57 75 q 76 44 57 50 q 111 38 95 38 q 201 64 164 39 q 261 121 237 88 q 294 186 285 153 q 302 240 304 220 l 302 255 q 288 307 302 286 q 245 328 274 328 q 171 309 210 334 q 102 245 132 285 q 58 159 72 206 q 57 75 45 113 z "},"h":{"ha":609,"x_min":-3,"x_max":646,"o":"m 0 0 q 4 75 -3 22 q 23 195 11 127 q 52 340 35 263 q 85 491 68 418 q 117 626 102 564 q 141 727 132 688 q 154 770 146 743 q 174 822 161 796 q 203 866 186 848 q 241 884 220 884 q 254 882 245 884 q 267 878 262 880 l 267 880 q 281 858 275 873 q 292 824 288 842 q 298 789 296 806 q 300 764 300 772 q 284 642 300 697 q 245 541 269 586 q 195 458 222 496 q 146 385 168 419 q 111 320 123 351 q 100 256 98 289 q 136 299 117 278 q 177 336 156 320 q 223 362 198 353 q 278 372 248 372 q 316 369 297 372 q 342 342 335 366 q 343 290 343 323 q 345 221 343 258 q 353 149 347 184 q 370 88 358 114 q 399 52 381 62 q 445 54 416 41 q 575 109 530 96 q 633 117 620 122 q 633 95 646 113 q 589 59 620 77 q 515 26 559 41 q 427 11 472 11 q 347 41 373 11 q 309 117 320 71 q 297 216 297 163 q 298 313 297 269 q 283 328 296 327 q 262 330 271 330 q 196 302 224 330 q 146 235 168 275 q 106 149 123 194 q 73 68 90 104 q 38 11 56 31 q 0 0 20 -9 m 141 456 q 195 515 172 467 q 230 624 217 564 q 247 742 243 684 q 248 830 251 800 q 232 847 244 860 q 198 754 220 834 q 184 696 193 735 q 168 616 176 656 q 151 543 159 576 q 141 499 142 509 q 140 489 141 498 q 140 476 140 480 q 140 466 140 473 q 141 456 141 458 z "},"i":{"ha":312,"x_min":8,"x_max":366,"o":"m 20 323 q 26 343 22 326 q 38 382 31 361 q 54 420 45 403 q 77 438 64 438 q 100 432 91 438 q 106 407 109 426 q 64 276 79 340 q 49 140 49 212 q 55 91 49 115 q 75 48 61 66 q 111 18 90 30 q 164 7 133 7 q 312 57 267 47 q 361 60 357 66 q 338 34 366 53 q 269 -1 311 15 q 178 -25 227 -16 q 92 -20 129 -34 q 54 -3 72 -14 q 24 40 35 7 q 10 140 12 73 q 20 323 8 206 m 178 652 q 168 604 178 618 q 147 591 159 590 q 126 602 136 591 q 117 625 117 613 q 130 645 117 636 q 178 652 142 654 z "},"j":{"ha":199,"x_min":-328,"x_max":301,"o":"m -328 -388 q -302 -283 -328 -332 q -235 -191 -275 -233 q -149 -111 -195 -148 q -63 -45 -103 -73 q 3 3 -23 -16 q 30 35 30 23 l 30 190 q 47 283 35 256 q 68 310 58 309 q 86 296 79 311 q 91 264 94 281 l 88 62 q 121 92 99 73 q 168 132 142 111 q 218 172 193 153 q 259 205 243 191 q 276 210 266 208 q 294 209 286 212 q 300 195 301 206 q 279 163 298 184 q 217 107 259 142 q 100 19 175 72 l 88 7 q 83 -9 85 5 q 79 -45 81 -24 q 75 -87 77 -65 q 72 -122 73 -109 q 68 -203 71 -152 q 59 -314 65 -254 q 40 -437 53 -374 q 5 -551 27 -500 q -50 -633 -16 -601 q -133 -665 -84 -665 q -220 -637 -183 -665 q -280 -568 -256 -610 q -316 -477 -304 -526 q -328 -388 -328 -429 m -298 -393 q -288 -462 -298 -422 q -256 -537 -277 -502 q -207 -597 -236 -572 q -141 -621 -178 -621 q -75 -593 -103 -621 q -26 -519 -46 -564 q 4 -420 -7 -475 q 21 -315 15 -366 q 30 -222 27 -264 q 33 -159 33 -179 q 33 -132 33 -151 q 32 -90 33 -113 q 31 -50 31 -68 q 30 -22 30 -31 q -73 -85 -16 -46 q -180 -172 -130 -123 q -264 -277 -231 -221 q -298 -393 -298 -334 m 127 642 q 118 592 127 605 q 97 580 109 579 q 76 591 85 581 q 66 613 66 601 q 80 634 66 625 q 127 642 94 643 z "},"k":{"ha":566,"x_min":4,"x_max":604,"o":"m 91 457 l 191 882 q 266 907 243 922 q 290 839 289 891 q 272 707 290 787 q 225 540 254 628 q 161 365 197 452 q 92 212 126 278 q 169 292 130 250 q 250 370 208 335 q 340 429 292 406 q 448 453 389 452 q 494 420 486 442 q 489 370 502 397 q 448 313 476 343 q 387 254 420 282 q 320 203 354 227 q 263 168 286 180 q 311 118 283 141 q 371 77 339 95 q 437 50 403 60 q 506 39 471 39 q 551 42 530 39 q 589 68 572 45 q 598 62 593 68 q 604 54 604 57 q 593 25 604 39 q 567 2 582 11 q 535 -12 552 -7 q 506 -16 518 -18 q 407 14 454 -12 q 316 68 359 39 q 231 121 273 98 q 149 144 189 144 q 126 142 142 144 q 106 140 110 141 q 87 95 94 121 q 72 46 80 69 q 49 7 64 23 q 4 -9 34 -9 l 91 457 m 163 225 q 247 216 201 206 q 334 255 293 227 q 404 324 374 283 q 438 406 433 365 q 361 386 400 406 q 284 338 321 366 q 216 278 247 309 q 163 225 184 247 m 106 354 q 149 436 129 400 q 184 514 168 472 q 216 612 201 556 q 248 753 232 669 q 248 772 248 758 q 246 800 248 787 q 238 821 244 812 q 220 823 232 829 l 106 354 z "},"l":{"ha":351,"x_min":5,"x_max":393,"o":"m 5 175 q 22 302 8 232 q 57 446 37 373 q 104 587 77 518 q 157 712 130 656 q 210 803 184 768 q 255 846 235 838 q 273 833 266 846 q 282 805 279 821 q 286 774 285 789 q 288 755 288 760 q 278 663 288 712 q 252 563 269 613 q 215 465 236 513 q 172 384 194 418 q 134 332 153 353 q 98 291 114 311 q 71 248 81 271 q 61 190 61 225 q 100 68 61 118 q 218 18 140 18 q 312 35 267 18 q 377 104 357 53 l 393 104 q 375 47 393 72 q 330 7 357 23 q 271 -16 302 -8 q 212 -24 239 -24 q 132 -8 167 -24 q 73 36 98 8 q 31 100 47 64 q 5 175 14 136 m 248 746 q 233 721 243 739 q 210 682 222 703 q 189 644 198 662 q 176 618 179 627 q 149 547 165 591 q 116 458 132 503 q 88 378 100 414 q 76 334 76 343 q 140 408 110 355 q 195 521 171 460 q 233 643 218 582 q 248 746 248 704 z "},"m":{"ha":1065,"x_min":-9,"x_max":1104,"o":"m 100 297 l 171 495 q 199 490 190 500 q 207 460 208 479 q 199 415 206 441 q 184 363 193 389 q 165 312 175 336 q 149 271 156 288 l 377 456 q 429 470 411 475 q 452 446 446 465 q 454 396 457 426 q 444 335 450 366 q 429 275 437 304 q 419 228 420 245 q 475 281 445 248 q 539 350 506 313 q 606 420 572 387 q 672 475 640 453 q 731 504 704 498 q 777 491 758 510 q 768 416 777 453 q 748 343 760 380 q 727 270 736 307 q 718 194 718 233 q 756 77 718 113 q 875 42 795 42 q 991 61 933 42 q 1103 100 1050 80 q 1103 97 1103 99 q 1104 92 1104 95 q 1072 54 1104 71 q 999 24 1040 37 q 918 5 958 12 q 861 -1 878 -1 q 721 41 768 -1 q 674 175 674 83 q 681 243 674 210 q 696 309 688 275 q 712 374 705 342 q 719 442 719 407 q 614 378 667 425 q 513 271 562 331 q 426 143 465 210 q 361 18 387 76 q 343 7 355 14 q 321 2 331 0 q 309 19 312 4 q 320 71 307 34 l 414 384 q 369 388 400 407 q 298 327 338 369 q 216 229 259 285 q 132 121 172 172 q 58 35 92 71 q 7 0 24 0 q -3 5 3 0 q -8 14 -9 11 l 100 297 z "},"n":{"ha":650,"x_min":-1,"x_max":701,"o":"m 343 134 q 344 199 343 172 q 345 251 345 227 q 345 302 345 275 q 346 366 346 330 q 288 330 320 361 q 227 264 256 300 q 172 195 197 228 q 134 153 148 163 q 116 131 129 146 q 87 97 103 115 q 59 63 72 79 q 42 42 46 47 q 24 27 33 30 q -1 24 15 24 l -1 57 l 64 267 q 73 353 64 313 q 94 416 81 392 q 117 443 106 439 q 134 423 127 446 q 136 398 136 416 q 136 373 136 380 q 131 328 136 350 q 121 282 126 305 q 111 235 115 259 q 106 180 106 210 q 136 214 115 190 q 178 266 156 239 q 221 317 201 293 q 251 350 241 340 q 277 374 263 359 q 309 400 292 388 q 344 420 326 412 q 381 429 362 429 q 398 427 391 429 q 410 414 406 425 q 411 332 414 368 q 403 264 408 297 q 393 197 397 232 q 387 118 388 163 q 398 66 387 85 q 445 46 410 46 q 525 68 490 46 q 589 123 560 91 q 645 189 618 155 q 701 247 671 222 l 701 232 q 674 154 701 194 q 606 81 647 114 q 519 26 566 47 q 437 4 473 4 l 388 4 q 359 32 368 18 q 347 61 350 46 q 343 94 343 76 q 343 134 343 113 z "},"o":{"ha":579,"x_min":3,"x_max":651,"o":"m 3 134 q 18 216 3 170 q 61 302 34 262 q 125 372 88 343 q 205 400 161 400 q 233 395 221 400 q 252 369 244 391 q 176 334 213 357 q 110 283 138 312 q 64 216 81 254 q 47 134 47 179 q 49 100 47 117 q 56 72 50 84 q 74 52 62 60 q 106 45 85 45 q 191 60 159 45 q 252 113 222 76 q 238 161 239 136 q 237 212 237 186 q 243 279 237 237 q 262 360 248 321 q 300 427 277 399 q 358 456 323 456 q 395 450 378 456 q 423 426 412 444 q 424 414 423 422 q 425 398 425 407 q 425 380 425 389 q 426 369 426 372 q 421 311 426 336 q 407 260 416 285 q 383 211 397 236 q 353 156 369 186 q 368 155 355 156 q 382 155 380 155 q 448 163 414 155 q 515 183 481 171 q 580 211 548 195 q 639 240 612 227 l 651 227 q 490 137 581 170 q 311 99 400 104 l 178 18 q 135 3 161 4 q 91 3 109 3 q 44 14 61 3 q 18 43 27 24 q 5 85 8 61 q 3 134 3 109 m 281 218 q 280 208 281 216 q 281 191 279 199 q 285 177 282 183 q 296 170 288 171 q 334 204 317 183 q 362 250 351 225 q 378 302 373 275 q 384 353 384 328 q 385 362 384 354 q 385 381 385 370 q 380 401 384 392 q 368 411 377 410 q 330 376 347 399 q 302 326 313 353 q 286 271 292 298 q 281 218 281 243 z "},"p":{"ha":563,"x_min":-98,"x_max":606,"o":"m -65 -543 q -68 -529 -66 -538 q -73 -509 -71 -519 q -78 -489 -76 -499 q -81 -475 -80 -479 q -90 -340 -98 -404 q -61 -214 -81 -275 q -11 -92 -41 -153 q 49 34 19 -31 q 54 84 58 54 q 46 156 49 114 q 48 253 43 198 q 80 378 53 308 q 105 370 96 382 q 117 336 114 357 q 117 292 119 316 q 109 245 115 267 q 228 379 157 326 q 369 449 298 433 q 433 412 415 444 q 448 335 450 380 q 425 239 445 290 q 378 144 406 187 q 321 69 351 100 q 264 34 290 38 q 279 24 259 22 q 334 39 300 27 q 410 70 368 52 q 489 107 452 88 q 553 146 526 126 q 587 182 581 167 q 598 201 590 203 q 605 182 606 199 q 587 136 604 165 q 525 74 571 107 q 397 7 479 41 q 184 -52 315 -26 q 158 -58 176 -54 q 140 -65 140 -62 l 127 -80 q 124 -123 127 -94 q 116 -186 121 -153 q 106 -250 111 -220 q 100 -292 102 -279 q 94 -317 99 -297 q 81 -362 88 -338 q 68 -410 75 -387 q 60 -445 62 -433 q 49 -479 56 -460 q 31 -517 42 -499 q 6 -549 20 -534 q -26 -567 -8 -563 l -33 -566 q -50 -556 -37 -566 q -65 -543 -62 -547 m -46 -439 q -37 -476 -42 -457 q -15 -505 -33 -495 q 36 -386 16 -446 q 66 -262 56 -326 q 79 -136 76 -199 q 84 -5 83 -72 q 22 -102 52 -49 q -26 -211 -7 -155 q -51 -326 -45 -267 q -46 -439 -57 -384 m 331 384 q 245 332 285 373 q 179 234 206 290 q 140 116 152 178 q 138 4 127 54 q 210 41 171 8 q 285 121 248 75 q 349 218 321 167 q 387 309 377 269 q 385 372 397 349 q 331 384 373 395 z "},"q":{"ha":589,"x_min":-4,"x_max":637,"o":"m 174 -391 q 181 -269 174 -330 q 190 -140 189 -208 q 190 -127 190 -136 q 189 -108 190 -118 q 189 -88 189 -98 q 189 -76 189 -79 q 161 -60 178 -71 q 129 -37 144 -50 q 106 -8 114 -23 q 103 23 98 7 q 117 45 106 30 q 132 65 127 61 q 65 66 96 50 q 16 111 34 81 q -3 178 -1 141 q 20 240 -4 214 q 84 302 47 274 q 163 351 121 331 q 248 382 205 370 q 334 395 292 395 q 363 382 351 395 q 374 353 374 370 q 372 334 374 340 q 366 321 370 328 q 357 307 362 315 q 346 281 351 298 q 330 231 342 269 q 304 153 317 194 q 279 74 290 111 q 263 23 267 37 q 300 16 289 19 q 318 12 311 14 q 335 11 326 11 q 369 11 345 11 q 515 134 460 90 q 600 195 571 178 q 633 209 629 213 q 625 186 637 205 q 586 139 613 168 q 525 78 559 110 q 453 16 491 46 q 381 -38 415 -15 q 399 -173 393 -98 q 395 -320 406 -248 q 347 -450 384 -392 q 239 -533 311 -509 q 202 -515 216 -533 q 182 -474 189 -498 q 175 -427 176 -450 q 174 -391 174 -403 m 251 -35 q 229 -209 237 -137 q 216 -328 220 -281 q 212 -401 212 -374 q 216 -444 212 -429 q 227 -467 220 -460 q 243 -479 233 -473 q 302 -448 281 -479 q 332 -374 323 -416 q 344 -290 342 -332 q 346 -225 346 -247 q 347 -192 346 -220 q 347 -132 347 -164 q 342 -73 346 -100 q 331 -42 339 -46 l 251 -35 m 174 1 q 203 -18 174 -18 q 215 -11 212 -18 q 218 3 218 -4 q 212 18 218 12 q 195 24 205 24 q 180 18 186 24 q 174 1 174 11 m 167 71 l 231 71 q 237 77 235 71 q 241 92 239 83 q 244 109 243 100 q 245 123 245 118 l 167 71 m 45 130 q 61 112 45 115 q 90 109 77 109 q 172 125 134 109 q 237 170 210 141 q 277 239 263 199 q 290 326 290 279 q 244 309 270 326 q 203 281 218 293 q 172 252 194 273 q 124 209 149 232 q 77 166 99 186 q 46 137 54 146 q 45 134 45 136 l 45 130 m 132 281 q 105 270 119 278 q 77 250 91 262 q 54 225 62 237 q 45 201 45 213 l 45 197 q 46 194 45 195 l 132 281 z "},"r":{"ha":574,"x_min":-5,"x_max":627,"o":"m 627 71 q 581 50 610 61 q 519 31 552 39 q 452 22 486 23 q 395 30 419 20 q 358 62 370 39 q 354 125 346 84 q 368 222 354 175 q 382 316 382 269 q 342 313 368 316 q 290 304 317 309 q 236 294 262 300 q 195 285 210 289 q 156 157 180 209 q 106 73 132 104 q 56 29 80 42 q 17 18 33 16 q -2 33 1 19 q 9 66 -5 46 q 58 83 41 65 q 89 133 76 102 q 113 203 102 164 q 138 285 123 243 q 115 295 127 289 q 92 309 103 301 q 75 330 81 317 q 68 357 68 342 q 88 426 68 399 q 136 465 109 453 q 192 473 164 476 q 235 454 220 471 q 248 404 251 437 q 212 328 245 372 q 248 337 218 330 q 315 353 278 345 q 385 370 351 362 q 431 377 418 377 q 426 306 431 340 q 414 236 420 271 q 403 165 408 201 q 397 96 397 130 q 418 67 400 73 q 461 63 437 61 q 515 73 486 65 q 569 85 544 80 q 610 90 594 91 q 627 71 627 88 m 123 372 q 138 344 123 353 q 167 328 152 335 q 197 385 195 357 q 186 425 198 412 q 156 428 175 438 q 123 372 137 418 z "},"s":{"ha":667,"x_min":-19,"x_max":701,"o":"m 129 83 q 45 45 81 52 q -5 46 8 38 q -6 73 -19 54 q 60 111 7 92 l 31 156 q 33 163 27 159 q 46 168 39 168 q 56 166 47 168 q 73 162 64 164 q 91 158 83 160 q 102 156 99 156 l 109 156 l 117 156 q 145 177 125 161 q 189 211 165 193 q 231 245 212 229 q 258 269 250 262 q 276 284 264 273 q 301 310 288 296 q 327 336 315 324 q 345 354 339 349 q 359 379 353 363 q 375 408 366 395 q 395 431 384 420 q 423 441 407 441 q 441 431 437 441 q 445 411 445 422 q 440 389 445 399 q 430 370 435 380 q 420 349 425 359 q 415 327 415 339 l 415 45 q 522 58 486 45 q 584 94 559 71 q 633 147 609 117 q 701 212 656 178 l 701 197 q 682 141 701 170 q 633 87 663 113 q 567 39 604 61 q 493 3 530 18 q 422 -16 456 -11 q 365 -16 388 -22 q 302 -7 331 -16 q 245 18 273 3 q 190 51 218 34 q 129 83 161 68 m 187 126 q 218 94 195 109 q 269 70 241 80 q 326 54 297 60 q 377 49 354 49 q 373 167 377 109 q 358 283 369 225 q 336 269 353 281 q 315 254 320 258 q 290 229 308 247 q 252 191 273 212 q 212 152 231 171 q 187 126 194 133 z "},"t":{"ha":378,"x_min":-79,"x_max":439,"o":"m 8 315 q -10 309 4 312 q -40 307 -24 307 q -67 309 -56 307 q -77 323 -79 312 q -60 355 -77 350 q -21 362 -43 361 q 23 369 1 363 q 52 401 45 374 l 122 671 l 151 700 q 164 689 163 696 q 165 673 165 682 q 165 665 165 670 q 164 656 164 659 l 94 372 l 94 365 q 136 358 111 355 q 189 369 161 361 q 241 385 216 377 q 286 395 267 393 q 267 340 286 358 q 218 316 247 323 q 155 312 189 309 q 96 320 122 315 q 74 257 84 292 q 64 194 64 222 q 71 130 64 161 q 94 73 77 98 q 136 31 110 47 q 199 15 161 15 q 293 40 263 24 q 341 68 323 56 q 379 87 359 80 q 439 88 399 95 q 398 45 427 64 q 333 16 369 27 q 260 -3 297 4 q 197 -12 224 -9 q 47 66 84 -15 q 26 320 9 148 l 8 315 z "},"u":{"ha":571,"x_min":4,"x_max":635,"o":"m 129 392 q 134 326 144 362 q 106 248 125 289 q 68 160 88 206 q 42 65 47 114 q 55 34 42 38 q 94 30 68 30 q 153 48 123 30 q 210 97 183 66 q 260 166 237 127 q 298 242 282 205 q 323 313 313 279 q 332 369 332 347 l 340 378 q 345 385 343 381 q 349 388 347 388 q 361 385 354 388 q 369 372 369 381 q 350 180 346 247 q 374 81 354 113 q 423 46 395 50 q 476 43 452 42 q 602 94 568 88 q 627 85 635 99 q 576 47 618 71 q 476 15 534 24 q 345 60 388 15 q 312 201 301 106 q 276 123 293 163 q 235 54 259 84 q 175 5 212 23 q 83 -14 138 -14 q 28 5 52 -11 q 5 66 5 22 q 32 189 4 111 q 129 392 60 267 z "},"v":{"ha":387,"x_min":30,"x_max":412,"o":"m 30 420 q 37 439 33 427 q 52 452 41 452 q 57 450 57 452 l 129 65 l 142 79 q 180 140 165 113 q 207 197 194 168 q 231 258 220 225 q 256 335 241 292 q 268 352 256 342 q 285 363 279 362 q 299 358 288 365 q 312 350 311 351 q 332 344 317 349 q 363 334 347 339 q 394 323 380 328 q 412 316 408 317 l 412 301 q 397 300 412 298 q 363 303 382 301 q 323 308 343 305 q 293 312 302 311 l 171 22 q 151 -3 163 1 q 121 -8 138 -8 q 111 -7 118 -8 q 100 -5 103 -7 q 75 155 92 47 q 30 420 57 262 z "},"w":{"ha":582,"x_min":15,"x_max":627,"o":"m 26 465 q 52 454 41 465 q 64 429 64 444 q 62 375 62 414 q 61 293 61 336 q 62 211 61 250 q 64 159 62 172 q 85 79 68 94 q 123 83 102 65 q 168 142 144 102 q 213 227 193 182 q 244 313 233 273 q 252 369 255 353 l 288 369 q 298 301 293 346 q 308 211 302 256 q 322 125 313 165 q 345 69 331 84 q 370 90 359 72 q 387 132 380 107 q 399 186 395 157 q 405 242 403 216 q 408 288 407 269 q 410 312 410 307 l 438 342 q 456 290 449 309 q 474 260 464 271 q 500 244 484 248 q 545 240 517 240 q 603 272 585 266 q 624 273 621 278 q 616 254 627 267 q 592 229 606 241 q 560 206 578 216 q 530 198 543 197 q 490 199 507 198 q 453 213 473 199 q 443 163 449 197 q 424 97 437 130 q 391 38 411 64 q 338 12 370 12 q 305 37 320 12 q 280 94 290 62 q 262 157 270 126 q 252 198 255 187 q 199 107 228 153 q 140 33 170 61 q 85 5 111 5 q 43 50 60 5 q 20 194 26 95 q 26 465 15 293 z "},"x":{"ha":457,"x_min":27,"x_max":524,"o":"m 189 163 l 58 468 q 90 481 76 486 q 114 459 103 477 q 136 411 125 441 q 159 347 146 381 q 186 281 171 313 q 222 225 201 248 q 251 263 233 236 q 286 320 269 290 q 319 376 302 350 q 342 412 335 403 q 348 419 342 412 q 362 432 354 426 q 380 439 370 438 q 399 426 391 439 l 254 153 q 302 124 279 134 q 347 108 326 114 q 390 98 368 102 q 437 90 412 94 q 459 96 449 88 q 478 112 469 103 q 498 129 487 121 q 524 137 509 137 q 475 62 511 77 q 395 55 439 47 q 304 82 350 62 q 225 111 258 102 q 171 28 194 77 q 125 -62 148 -20 q 80 -128 103 -104 q 27 -134 57 -152 l 189 163 z "},"y":{"ha":476,"x_min":-30,"x_max":513,"o":"m -30 -587 q -5 -446 -30 -522 q 59 -296 19 -370 q 146 -152 99 -221 q 243 -34 194 -83 q 256 31 256 -5 q 258 109 255 68 q 224 69 243 90 q 184 32 206 49 q 138 4 163 15 q 85 -7 114 -7 q 19 90 33 -9 q 46 388 5 190 q 60 396 49 391 q 73 401 71 401 q 85 395 81 401 q 90 378 90 388 q 90 361 91 369 q 90 354 90 354 q 84 300 90 334 q 73 229 79 266 q 63 157 68 191 q 58 102 58 122 q 58 69 58 81 q 62 50 58 57 q 75 39 65 42 q 104 37 84 35 q 190 75 156 37 q 246 166 224 113 q 281 275 269 220 q 300 365 293 331 q 328 364 315 373 q 343 351 340 355 l 343 345 q 336 267 343 305 q 321 188 330 228 q 307 104 313 148 q 300 9 300 60 q 339 35 313 19 q 393 70 365 52 q 448 104 422 88 q 486 130 473 119 q 500 143 491 134 q 511 151 509 152 q 506 134 513 151 q 473 73 499 118 q 446 50 467 68 q 401 10 425 31 q 355 -29 377 -11 q 328 -53 334 -47 q 287 -186 298 -115 q 269 -328 275 -258 q 253 -462 262 -399 q 221 -572 244 -525 q 155 -644 198 -618 q 35 -661 111 -669 q -14 -639 1 -661 q -30 -587 -30 -617 m 15 -555 q 25 -599 15 -579 q 65 -618 35 -618 q 134 -595 106 -620 q 179 -528 161 -570 q 208 -433 197 -486 q 224 -324 218 -380 q 235 -215 231 -269 q 243 -119 239 -161 q 240 -118 243 -119 l 237 -118 q 199 -143 222 -118 q 151 -208 176 -168 q 102 -298 126 -248 q 58 -396 77 -347 q 27 -487 39 -445 q 15 -555 15 -529 z "},"z":{"ha":746,"x_min":9,"x_max":823,"o":"m 195 -442 q 221 -365 195 -401 q 269 -300 247 -328 q 304 -254 278 -286 q 360 -185 331 -221 q 416 -116 389 -149 q 453 -71 442 -83 q 466 -51 464 -58 q 468 -31 468 -43 q 467 3 468 -16 q 460 41 465 23 q 442 73 454 60 q 411 85 430 85 q 378 77 393 85 q 347 56 362 68 q 313 35 331 45 q 274 26 294 26 q 238 30 252 26 q 224 58 224 34 q 237 85 224 76 q 269 100 250 95 q 311 112 288 106 q 352 132 334 118 q 384 170 370 146 q 397 237 397 194 q 388 282 397 264 q 349 300 378 300 q 259 268 301 300 q 178 191 217 236 q 105 96 140 146 q 39 11 71 46 l 9 24 q 77 120 45 66 q 148 221 109 174 q 240 300 187 269 q 368 328 293 331 q 419 307 403 328 q 441 255 435 285 q 444 193 446 225 q 439 141 441 161 q 471 109 460 125 q 490 75 481 94 q 505 39 498 57 q 524 0 511 20 q 584 42 548 18 q 659 89 620 66 q 738 126 699 111 q 810 141 777 141 q 818 136 812 141 q 823 127 823 130 l 810 114 q 656 46 731 84 q 524 -58 581 8 q 511 -141 524 -91 q 474 -246 498 -191 q 418 -353 450 -301 q 349 -436 387 -404 q 273 -473 312 -468 q 195 -442 233 -479 m 453 -129 q 396 -184 430 -146 q 330 -265 362 -221 q 274 -355 297 -309 q 251 -435 251 -401 q 252 -446 251 -438 q 254 -457 252 -454 q 332 -419 296 -456 q 395 -333 368 -382 q 438 -233 422 -283 q 454 -151 454 -182 q 454 -139 454 -148 q 453 -129 454 -130 m 317 71 q 300 67 307 71 q 282 57 293 64 q 286 56 283 57 q 290 56 288 56 q 307 60 300 56 q 326 71 313 64 l 317 71 z "},"{":{"ha":385,"x_min":33,"x_max":464,"o":"m 33 38 q 46 129 33 88 q 81 204 60 170 q 127 269 103 239 q 173 327 152 298 q 208 383 194 355 q 222 444 222 411 q 199 493 222 479 q 149 511 176 507 q 99 517 122 515 q 76 533 76 519 q 94 568 76 555 q 135 597 113 582 q 175 629 157 612 q 193 675 193 647 q 170 748 193 716 q 121 812 148 780 q 71 883 94 845 q 49 975 49 921 q 68 1050 49 1017 q 119 1107 88 1084 q 187 1142 149 1130 q 264 1154 225 1154 q 296 1152 278 1154 q 330 1143 313 1150 q 357 1124 346 1137 q 368 1093 368 1112 q 315 1103 336 1093 q 262 1112 293 1112 q 121 1040 174 1112 q 120 1027 121 1036 q 119 1008 119 1019 q 119 988 119 997 q 119 975 119 979 q 142 890 119 924 q 191 827 164 856 q 241 769 218 798 q 264 699 264 741 q 245 630 264 663 q 208 570 227 597 q 242 544 227 556 q 269 519 258 532 q 287 490 281 507 q 293 449 293 473 q 264 351 293 395 q 199 262 235 307 q 135 168 164 218 q 106 49 106 117 q 155 -81 106 -46 q 292 -115 203 -115 q 347 -113 326 -115 q 385 -104 368 -111 q 419 -81 401 -96 q 463 -43 437 -66 l 463 -46 l 463 -49 q 464 -50 463 -50 q 463 -54 464 -52 q 463 -58 463 -57 q 456 -73 461 -62 q 449 -85 452 -83 q 427 -111 441 -96 q 399 -138 412 -125 q 375 -161 385 -152 q 363 -171 365 -171 l 164 -171 q 100 -148 126 -171 q 60 -93 75 -125 q 39 -25 45 -61 q 33 38 33 11 z "},"|":{"ha":141,"x_min":33,"x_max":109,"o":"m 50 1111 q 67 1121 60 1118 q 85 1124 75 1124 q 98 1122 94 1124 q 107 1111 103 1120 q 107 1074 107 1100 q 108 1018 107 1047 q 109 962 109 989 q 109 925 109 935 q 98 477 109 700 q 92 30 88 254 q 63 14 79 18 q 33 11 47 11 q 37 561 33 288 q 50 1111 41 834 z "},"}":{"ha":541,"x_min":15,"x_max":507,"o":"m 76 -37 q 77 -18 76 -33 q 77 0 77 -3 q 113 -39 100 -15 q 141 -86 126 -62 q 174 -126 156 -110 q 227 -142 193 -142 q 319 -111 279 -142 q 384 -34 358 -80 q 423 65 410 12 q 437 161 437 118 q 420 232 437 201 q 380 287 404 263 q 328 332 355 311 q 275 376 300 353 q 235 427 251 399 q 220 491 220 454 l 220 528 q 222 535 220 529 q 228 549 225 541 q 233 562 231 556 q 235 570 235 568 q 223 585 232 579 q 203 597 214 591 q 184 614 193 604 q 176 642 176 624 q 180 669 176 656 q 191 699 183 681 q 241 745 212 716 q 298 809 270 774 q 345 881 326 844 q 363 954 363 918 q 323 1080 363 1034 q 205 1127 282 1127 q 180 1126 195 1127 q 164 1124 164 1126 q 137 1113 156 1122 q 98 1093 118 1104 q 60 1071 77 1082 q 37 1054 42 1059 l 15 1054 q 37 1098 15 1076 q 91 1139 60 1120 q 154 1170 122 1158 q 206 1181 186 1181 q 368 1125 316 1181 q 420 964 420 1069 q 400 875 420 911 q 351 807 380 838 q 294 744 323 776 q 248 670 266 712 q 251 647 245 659 q 255 635 252 642 l 358 635 q 355 621 357 628 q 349 598 353 605 q 327 570 338 579 q 308 551 316 560 q 295 531 300 543 q 290 496 290 519 q 307 450 290 469 q 347 411 323 430 q 398 370 370 392 q 450 318 426 349 q 491 245 475 288 q 507 141 507 203 q 485 28 507 88 q 424 -83 463 -33 q 332 -166 385 -133 q 220 -199 279 -199 q 113 -153 149 -199 q 76 -37 76 -107 z "},"~":{"ha":570,"x_min":60,"x_max":517,"o":"m 164 844 q 116 824 137 844 q 79 785 95 804 l 62 785 q 72 843 60 821 q 103 877 84 865 q 142 890 122 888 q 175 886 163 891 q 223 876 201 886 q 267 853 245 865 q 311 830 288 841 q 362 819 334 819 q 403 819 384 819 q 437 826 422 819 q 463 849 453 833 q 472 898 472 865 q 461 962 472 943 q 416 981 450 981 q 430 1002 416 1000 q 454 1005 444 1005 q 502 975 487 1005 q 517 907 517 945 q 504 836 517 863 q 470 793 491 808 q 421 772 449 777 q 362 766 393 766 q 308 779 334 766 q 259 805 282 791 q 212 831 236 819 q 164 844 189 844 z "},",":{"ha":244,"x_min":127,"x_max":224,"o":"m 136 -81 q 143 -64 137 -77 q 156 -35 149 -50 q 168 -6 163 -20 q 174 12 174 8 q 172 41 176 26 q 160 73 167 57 q 148 103 153 88 q 145 132 142 118 q 160 145 149 144 q 182 144 171 146 q 210 122 199 138 q 222 84 220 106 q 223 40 224 62 q 218 3 222 18 q 209 -33 214 -14 q 193 -71 203 -53 q 170 -104 183 -90 q 138 -125 157 -118 q 128 -113 127 -119 q 132 -96 129 -106 l 136 -81 z "},"!":{"ha":171,"x_min":43,"x_max":155,"o":"m 106 20 q 122 50 106 39 q 155 61 138 61 q 155 45 155 56 q 153 24 155 35 q 144 6 151 14 q 127 -1 138 -1 q 106 20 106 -1 m 64 285 q 60 332 61 297 q 57 412 58 366 q 54 508 56 457 q 52 604 53 559 q 50 683 50 648 q 47 732 49 718 q 47 748 47 736 q 45 774 46 760 q 44 800 45 788 q 43 817 43 812 q 72 815 61 834 q 90 753 83 796 q 100 652 96 711 q 104 532 103 593 q 105 417 104 472 q 107 328 106 362 l 107 304 q 104 281 107 293 q 85 270 102 270 q 64 285 71 270 z "},"\"":{"ha":298,"x_min":43,"x_max":259,"o":"m 43 747 q 49 767 43 758 q 66 776 54 776 q 92 764 83 776 q 108 736 102 753 q 116 704 114 720 q 118 677 118 688 q 115 635 118 651 q 100 590 113 618 l 95 589 q 78 610 87 589 q 62 659 69 632 q 49 712 54 686 q 43 747 43 738 m 170 762 q 180 787 170 776 q 203 799 191 799 q 241 783 229 799 q 256 746 252 768 q 258 701 259 724 q 258 663 258 678 q 258 651 258 659 q 257 635 258 643 q 256 621 256 627 q 255 614 255 614 l 241 598 q 225 633 237 612 q 201 680 213 655 q 179 728 189 705 q 170 762 170 751 z "},"#":{"ha":655,"x_min":50,"x_max":646,"o":"m 96 245 q 106 258 96 251 q 129 269 117 264 q 153 277 141 274 q 168 281 165 281 l 168 395 q 153 387 167 393 q 121 371 140 380 q 83 355 103 362 q 50 349 64 349 q 69 389 50 374 q 109 413 88 403 q 149 435 130 423 q 168 467 168 446 l 161 643 q 199 634 189 643 q 212 609 209 625 q 215 585 213 601 q 219 551 217 570 q 223 517 221 533 q 227 495 225 502 q 267 505 243 499 q 315 521 292 511 q 353 545 338 530 q 369 579 369 560 q 361 625 369 602 q 353 674 353 648 q 363 705 353 699 q 397 694 374 711 l 425 594 q 427 593 426 593 l 430 593 q 488 602 461 593 q 544 612 515 612 q 526 583 544 589 q 484 572 507 578 q 442 550 461 566 q 423 496 423 534 q 423 477 423 491 q 425 447 423 463 q 431 420 426 431 q 446 408 437 408 q 485 415 461 408 q 534 432 509 422 q 585 452 560 442 q 625 467 609 461 q 639 454 646 463 q 609 433 632 445 q 554 410 586 422 q 494 385 522 397 q 449 364 467 373 q 439 351 431 355 l 439 138 l 411 138 l 384 308 q 343 304 370 312 q 290 284 316 296 q 243 262 263 273 q 227 251 224 251 l 227 110 l 191 102 q 189 122 190 107 q 188 155 189 137 q 186 189 187 172 q 183 210 184 205 q 163 224 178 224 q 134 224 149 225 q 108 225 119 222 q 96 245 96 228 m 368 509 q 334 500 355 509 q 290 478 312 491 q 250 451 269 465 q 227 423 232 437 l 227 308 q 277 322 250 313 q 328 345 304 331 q 368 382 351 359 q 384 438 384 404 q 380 452 382 442 q 376 472 378 461 q 371 494 373 483 q 368 509 369 505 z "},"":{"ha":738,"x_min":15,"x_max":700,"o":"m 15 590 q 26 609 15 605 q 50 613 38 613 q 85 613 58 613 q 149 612 113 613 q 191 774 164 694 q 252 916 217 853 q 332 1021 288 979 q 429 1070 377 1062 q 542 1047 481 1078 q 670 932 602 1016 q 662 920 669 924 q 648 917 655 917 l 644 917 q 642 918 643 917 q 530 1009 582 986 q 435 1021 479 1032 q 355 972 392 1010 q 290 876 317 933 q 240 750 262 819 q 205 610 218 681 q 291 606 247 609 q 372 597 335 602 q 435 585 410 593 q 467 567 461 578 l 453 555 l 194 556 q 186 489 189 521 q 180 426 183 457 l 389 426 q 444 425 415 426 q 496 410 472 425 q 459 393 491 400 q 381 382 427 387 q 281 374 335 377 q 179 369 228 370 q 195 270 180 324 q 234 168 209 216 q 299 89 259 121 q 393 57 339 57 q 585 96 510 57 q 684 235 661 134 q 698 220 696 232 q 700 198 700 209 q 699 188 700 195 q 697 178 699 180 q 589 41 667 83 q 393 0 511 0 q 302 22 343 0 q 229 79 262 45 q 173 157 195 114 q 137 241 151 199 q 125 368 125 296 q 72 366 94 366 q 43 366 50 366 q 15 397 15 366 q 17 414 15 407 q 31 425 19 422 q 62 425 34 425 q 126 426 90 426 q 138 556 127 488 l 58 556 q 33 567 50 556 q 15 590 15 578 z "},"":{"ha":449,"x_min":8,"x_max":419,"o":"m 361 926 q 382 933 368 933 q 408 928 397 933 q 419 917 419 924 q 418 916 419 916 q 418 914 418 916 l 418 913 q 321 774 373 810 q 214 747 269 738 q 107 802 160 755 q 8 913 54 849 q 17 918 9 914 q 33 924 24 921 q 50 928 42 926 q 61 930 57 930 q 103 886 80 911 q 151 840 126 861 q 202 808 176 819 q 255 802 228 796 q 309 837 282 808 q 361 926 335 865 z "},"":{"ha":802,"x_min":-47,"x_max":854,"o":"m -47 -361 q -46 -271 -47 -312 q -39 -189 -45 -231 q -22 -96 -33 -146 q 8 20 -11 -46 l 224 548 q 282 526 267 553 q 292 452 297 498 q 267 349 288 406 q 217 238 245 292 q 156 141 189 184 q 96 77 123 98 q 113 41 100 56 q 144 18 126 26 q 180 7 161 9 q 218 4 199 4 q 356 27 293 4 q 480 92 419 50 q 500 109 494 100 q 513 124 507 118 q 525 134 518 130 q 545 138 532 138 q 524 88 545 113 q 470 43 503 64 q 395 6 437 23 q 314 -24 354 -11 q 239 -44 274 -37 q 184 -53 205 -52 q 197 -131 184 -94 q 212 -210 210 -168 q 205 -267 212 -231 q 189 -344 199 -302 q 164 -427 179 -385 q 129 -502 149 -468 q 85 -557 109 -536 q 34 -579 61 -579 q -13 -552 4 -579 q -37 -489 -30 -525 q -46 -417 -45 -453 q -47 -361 -47 -381 m -5 -343 q -5 -387 -5 -357 q 1 -446 -4 -416 q 16 -499 7 -476 q 46 -522 26 -522 q 77 -503 61 -522 q 106 -452 92 -483 q 130 -385 119 -422 q 150 -315 141 -349 q 163 -253 159 -281 q 168 -214 168 -225 q 165 -149 168 -178 q 151 -96 161 -119 q 120 -54 140 -72 q 66 -22 100 -37 q 31 -75 45 -34 q 8 -166 16 -115 q -3 -266 0 -217 q -5 -343 -5 -315 m 138 206 q 175 256 157 228 q 208 316 193 285 q 231 379 222 347 q 240 441 240 411 q 239 452 240 444 q 239 463 239 460 l 224 449 l 138 221 l 138 206 m 509 323 q 515 343 510 326 q 526 382 519 361 q 543 420 533 403 q 566 438 552 438 q 588 432 579 438 q 594 407 597 426 q 552 276 567 340 q 537 140 537 212 q 543 91 537 115 q 564 48 549 66 q 600 18 578 30 q 652 7 621 7 q 800 57 755 47 q 850 60 845 66 q 827 34 854 53 q 757 -1 799 15 q 666 -25 715 -16 q 581 -20 617 -34 q 542 -3 560 -14 q 512 40 524 7 q 498 140 500 73 q 509 323 496 206 m 666 652 q 656 604 666 618 q 635 591 647 590 q 614 602 624 591 q 605 625 605 613 q 618 645 605 636 q 666 652 631 654 z "},"":{"ha":841,"x_min":-47,"x_max":878,"o":"m -47 -361 q -46 -271 -47 -312 q -39 -189 -45 -231 q -22 -96 -33 -146 q 8 20 -11 -46 l 224 548 q 282 526 267 553 q 292 452 297 498 q 267 349 288 406 q 217 238 245 292 q 156 141 189 184 q 96 77 123 98 q 113 41 100 56 q 144 18 126 26 q 180 7 161 9 q 218 4 199 4 q 356 27 293 4 q 480 92 419 50 q 500 109 494 100 q 513 124 507 118 q 525 134 518 130 q 545 138 532 138 q 524 88 545 113 q 470 43 503 64 q 395 6 437 23 q 314 -24 354 -11 q 239 -44 274 -37 q 184 -53 205 -52 q 197 -131 184 -94 q 212 -210 210 -168 q 205 -267 212 -231 q 189 -344 199 -302 q 164 -427 179 -385 q 129 -502 149 -468 q 85 -557 109 -536 q 34 -579 61 -579 q -13 -552 4 -579 q -37 -489 -30 -525 q -46 -417 -45 -453 q -47 -361 -47 -381 m -5 -343 q -5 -387 -5 -357 q 1 -446 -4 -416 q 16 -499 7 -476 q 46 -522 26 -522 q 77 -503 61 -522 q 106 -452 92 -483 q 130 -385 119 -422 q 150 -315 141 -349 q 163 -253 159 -281 q 168 -214 168 -225 q 165 -149 168 -178 q 151 -96 161 -119 q 120 -54 140 -72 q 66 -22 100 -37 q 31 -75 45 -34 q 8 -166 16 -115 q -3 -266 0 -217 q -5 -343 -5 -315 m 138 206 q 175 256 157 228 q 208 316 193 285 q 231 379 222 347 q 240 441 240 411 q 239 452 240 444 q 239 463 239 460 l 224 449 l 138 221 l 138 206 m 490 127 q 507 255 492 184 q 541 398 521 326 q 588 540 562 471 q 642 665 614 609 q 694 755 669 720 q 739 799 719 791 q 757 786 750 799 q 766 758 764 773 q 770 727 769 742 q 772 708 772 712 q 762 615 772 665 q 736 515 753 566 q 699 418 720 465 q 656 336 678 370 q 618 284 637 305 q 582 243 598 263 q 555 201 566 224 q 545 142 545 178 q 585 20 545 71 q 703 -30 624 -30 q 796 -12 751 -30 q 861 57 841 5 l 878 57 q 859 0 878 24 q 814 -40 841 -24 q 755 -64 787 -56 q 696 -72 723 -72 q 616 -56 651 -72 q 557 -12 582 -39 q 515 52 532 16 q 490 127 498 88 m 732 699 q 717 673 727 692 q 694 635 707 655 q 673 597 682 614 q 661 571 663 579 q 633 500 650 544 q 600 411 616 456 q 572 331 585 366 q 560 286 560 296 q 625 360 594 308 q 679 473 655 412 q 718 595 703 534 q 732 699 732 656 z "},"":{"ha":1443,"x_min":46,"x_max":2196,"o":"m 916 236 q 854 201 899 225 q 760 149 810 176 q 665 98 709 122 q 602 65 621 73 q 472 27 540 34 q 338 20 404 20 q 239 31 290 20 q 144 66 187 42 q 74 128 102 90 q 46 224 46 167 q 69 311 46 274 q 129 374 92 347 q 212 418 165 400 q 306 446 258 435 q 398 465 354 457 q 473 477 442 472 l 500 477 q 648 455 575 477 q 788 406 720 433 q 802 399 791 404 q 827 387 812 393 q 853 374 841 381 q 872 363 865 366 q 880 358 873 362 q 894 349 886 354 q 908 340 902 345 q 916 335 914 336 q 932 327 921 332 q 944 321 943 321 q 1031 445 991 384 q 1086 553 1072 506 q 1000 557 1054 551 q 885 581 947 564 q 760 623 823 597 q 646 684 697 650 q 563 760 595 718 q 530 853 530 803 q 534 873 530 864 q 553 882 538 882 q 573 856 555 882 q 618 798 591 830 q 671 735 644 765 q 715 696 699 705 q 881 628 796 652 q 1057 604 966 604 q 1096 608 1073 604 q 1127 620 1119 612 l 1497 989 q 1560 1027 1518 1009 q 1645 1047 1602 1044 q 1721 1034 1687 1050 q 1756 971 1754 1019 q 1731 849 1756 902 q 1663 756 1705 796 q 1566 687 1621 716 q 1452 637 1511 658 q 1335 599 1393 616 q 1229 568 1278 582 q 1215 563 1226 567 q 1192 555 1204 559 q 1168 546 1179 551 q 1153 538 1157 541 q 1112 477 1131 506 q 1075 419 1093 448 q 1038 359 1057 391 q 994 290 1019 328 q 1095 127 1048 222 q 1187 -73 1142 31 q 1280 -278 1233 -176 q 1383 -460 1328 -380 q 1503 -589 1438 -540 q 1652 -637 1568 -639 q 1836 -634 1747 -637 q 1997 -605 1926 -631 q 2109 -520 2067 -579 q 2151 -349 2151 -461 q 2139 -276 2151 -311 q 2105 -210 2127 -241 q 2055 -155 2083 -179 q 1992 -114 2026 -130 q 2007 -113 1995 -114 q 2021 -111 2018 -111 q 2100 -135 2067 -111 q 2154 -194 2132 -159 q 2186 -271 2176 -229 q 2196 -350 2196 -312 q 2148 -544 2196 -475 q 2024 -646 2101 -613 q 1845 -686 1946 -680 q 1637 -693 1744 -693 q 1521 -675 1576 -703 q 1418 -593 1466 -647 q 1325 -467 1370 -540 q 1240 -313 1280 -395 q 1160 -149 1199 -232 q 1083 9 1120 -65 q 1008 143 1046 83 q 930 236 970 203 l 922 236 l 916 236 m 102 221 q 124 145 102 175 q 180 97 146 115 q 253 71 213 79 q 330 64 293 64 q 463 69 396 64 q 587 107 529 75 q 657 144 614 121 q 741 190 700 167 q 812 229 783 213 q 845 248 842 245 l 872 278 q 806 338 854 312 q 698 384 757 365 q 579 412 639 403 q 480 422 519 422 q 364 415 430 422 q 240 387 298 408 q 142 326 182 365 q 102 221 102 286 m 1706 948 q 1687 994 1706 982 q 1641 1004 1668 1006 q 1586 989 1614 1001 q 1541 960 1557 977 l 1226 632 l 1249 632 q 1333 642 1284 632 q 1433 672 1382 652 q 1533 720 1484 692 q 1621 782 1581 747 q 1683 859 1660 817 q 1706 948 1706 902 m 876 454 q 881 475 876 469 q 895 483 886 481 q 913 484 903 484 q 935 483 924 483 q 993 485 952 484 q 1080 486 1034 486 q 1166 488 1126 487 q 1223 490 1207 488 l 1232 490 q 1250 481 1245 490 q 1255 460 1255 472 q 1249 441 1255 448 q 1223 433 1244 434 l 892 427 q 878 437 880 426 q 876 454 876 449 z "},"":{"ha":351,"x_min":5,"x_max":456,"o":"m 5 175 q 22 302 8 232 q 57 446 37 373 q 104 587 77 518 q 157 712 130 656 q 210 803 184 768 q 255 846 235 838 q 273 833 266 846 q 282 805 279 821 q 286 774 285 789 q 288 755 288 760 q 278 663 288 712 q 252 563 269 613 q 215 465 236 513 q 172 384 194 418 q 134 332 153 353 q 98 291 114 311 q 71 248 81 271 q 61 190 61 225 q 100 68 61 118 q 218 18 140 18 q 312 35 267 18 q 377 104 357 53 l 393 104 q 375 47 393 72 q 330 7 357 23 q 271 -16 302 -8 q 212 -24 239 -24 q 132 -8 167 -24 q 73 36 98 8 q 31 100 47 64 q 5 175 14 136 m 248 746 q 233 721 243 739 q 210 682 222 703 q 189 644 198 662 q 176 618 179 627 q 149 547 165 591 q 116 458 132 503 q 88 378 100 414 q 76 334 76 343 q 140 408 110 355 q 195 521 171 460 q 233 643 218 582 q 248 746 248 704 m 77 363 q 82 385 77 378 q 96 392 87 391 q 115 393 104 393 q 136 392 125 392 q 194 394 153 393 q 281 395 235 395 q 368 397 327 396 q 425 399 408 397 l 433 399 q 451 390 446 399 q 456 369 456 381 q 450 350 456 357 q 425 342 445 343 l 94 336 q 79 347 81 335 q 77 363 77 358 z "},"":{"ha":1089,"x_min":20,"x_max":1674,"o":"m 1674 -38 q 1524 -163 1606 -127 q 1347 -199 1442 -199 q 1171 -176 1263 -199 q 985 -115 1080 -152 q 795 -37 890 -79 q 608 41 700 5 q 430 102 517 77 q 267 126 343 126 q 158 110 209 126 q 62 56 107 94 q 52 55 58 56 q 40 56 46 54 q 28 60 34 57 q 20 71 22 64 q 68 112 47 96 q 110 140 90 127 q 156 162 130 152 q 220 186 182 172 q 235 191 224 186 q 248 198 245 197 l 804 627 l 933 769 l 933 783 q 870 775 902 783 q 808 760 838 768 q 746 746 777 753 q 684 739 715 739 q 633 741 655 739 q 591 748 612 743 q 546 761 570 753 q 491 784 522 769 q 467 757 480 768 q 435 742 453 746 l 435 903 q 460 899 454 903 q 469 887 467 894 q 475 871 472 880 q 491 854 479 863 q 548 821 521 833 q 602 805 575 810 q 659 799 629 800 q 726 798 689 798 q 856 806 791 798 q 975 854 921 815 q 1021 901 1000 872 q 1063 958 1042 930 q 1110 1006 1085 986 q 1169 1027 1135 1027 q 1195 1022 1185 1027 q 1204 997 1204 1017 q 1173 943 1204 981 q 1094 857 1142 906 q 988 754 1046 808 q 878 652 930 700 q 786 566 826 604 q 734 514 746 529 q 688 479 718 503 q 620 427 658 456 q 541 364 582 397 q 460 302 499 331 q 392 249 422 273 q 349 214 362 225 q 334 200 345 212 q 320 186 323 189 q 421 168 358 190 q 564 110 484 146 q 738 31 644 73 q 932 -50 831 -12 q 1137 -113 1034 -88 q 1343 -137 1241 -137 q 1493 -119 1423 -137 q 1552 -104 1530 -113 q 1590 -83 1573 -95 q 1622 -56 1606 -72 q 1666 -19 1637 -41 q 1669 -28 1667 -18 q 1674 -38 1671 -38 m 1147 970 q 1141 970 1147 974 q 1128 959 1135 966 q 1118 946 1122 952 q 1118 940 1114 940 q 1136 950 1124 939 q 1147 970 1147 962 m 1010 1179 q 1032 1185 1017 1185 q 1058 1181 1047 1185 q 1069 1169 1069 1176 q 1068 1168 1069 1168 q 1067 1166 1067 1168 l 1067 1165 q 970 1026 1023 1062 q 864 999 918 990 q 757 1055 810 1008 q 658 1165 704 1101 q 667 1170 659 1166 q 683 1176 674 1173 q 699 1181 692 1179 q 711 1183 707 1183 q 753 1139 730 1164 q 801 1093 776 1114 q 852 1060 826 1072 q 905 1055 878 1048 q 958 1089 932 1061 q 1010 1179 985 1118 z "},"":{"ha":746,"x_min":9,"x_max":823,"o":"m 195 -442 q 221 -365 195 -401 q 269 -300 247 -328 q 304 -254 278 -286 q 360 -185 331 -221 q 416 -116 389 -149 q 453 -71 442 -83 q 466 -51 464 -58 q 468 -31 468 -43 q 467 3 468 -16 q 460 41 465 23 q 442 73 454 60 q 411 85 430 85 q 378 77 393 85 q 347 56 362 68 q 313 35 331 45 q 274 26 294 26 q 238 30 252 26 q 224 58 224 34 q 237 85 224 76 q 269 100 250 95 q 311 112 288 106 q 352 132 334 118 q 384 170 370 146 q 397 237 397 194 q 388 282 397 264 q 349 300 378 300 q 259 268 301 300 q 178 191 217 236 q 105 96 140 146 q 39 11 71 46 l 9 24 q 77 120 45 66 q 148 221 109 174 q 240 300 187 269 q 368 328 293 331 q 419 307 403 328 q 441 255 435 285 q 444 193 446 225 q 439 141 441 161 q 471 109 460 125 q 490 75 481 94 q 505 39 498 57 q 524 0 511 20 q 584 42 548 18 q 659 89 620 66 q 738 126 699 111 q 810 141 777 141 q 818 136 812 141 q 823 127 823 130 l 810 114 q 656 46 731 84 q 524 -58 581 8 q 511 -141 524 -91 q 474 -246 498 -191 q 418 -353 450 -301 q 349 -436 387 -404 q 273 -473 312 -468 q 195 -442 233 -479 m 453 -129 q 396 -184 430 -146 q 330 -265 362 -221 q 274 -355 297 -309 q 251 -435 251 -401 q 252 -446 251 -438 q 254 -457 252 -454 q 332 -419 296 -456 q 395 -333 368 -382 q 438 -233 422 -283 q 454 -151 454 -182 q 454 -139 454 -148 q 453 -129 454 -130 m 317 71 q 300 67 307 71 q 282 57 293 64 q 286 56 283 57 q 290 56 288 56 q 307 60 300 56 q 326 71 313 64 l 317 71 m 429 617 q 450 624 435 624 q 476 619 465 624 q 487 608 487 614 q 486 606 487 606 q 486 605 486 606 l 486 604 q 389 465 441 500 q 282 437 336 429 q 175 493 228 446 q 76 604 122 540 q 85 608 77 605 q 101 614 92 612 q 117 619 110 617 q 129 621 125 621 q 171 577 148 602 q 219 531 194 552 q 270 498 244 510 q 323 493 296 487 q 376 528 350 499 q 429 617 403 556 z "},"":{"ha":1157,"x_min":122,"x_max":313,"o":"m 208 814 q 148 842 174 814 q 125 910 122 869 q 152 987 125 959 q 222 1015 179 1015 q 286 997 259 1015 q 313 932 313 979 q 282 847 313 880 q 208 814 251 814 m 140 909 q 164 854 140 872 q 217 836 189 836 q 239 841 227 836 q 265 854 252 846 q 286 874 278 863 q 294 901 294 886 q 294 948 300 930 q 276 975 288 966 q 250 987 264 985 q 228 991 236 990 q 165 971 191 991 q 140 909 140 951 z "},"":{"ha":441,"x_min":72,"x_max":366,"o":"m 326 700 q 312 730 321 708 q 293 775 302 751 q 275 821 283 799 q 262 850 266 842 q 250 869 259 856 q 239 886 241 882 q 198 844 217 873 q 161 784 179 814 q 125 730 142 754 q 85 707 107 707 q 72 716 77 707 q 101 768 80 734 q 149 842 122 803 q 206 916 176 880 q 262 968 236 951 q 264 968 263 968 q 267 967 264 967 l 271 967 q 279 911 271 941 q 300 852 288 882 q 325 797 312 823 q 346 753 338 770 q 349 746 346 751 q 356 735 353 741 q 362 724 359 730 q 365 716 365 718 l 365 715 q 366 713 365 713 q 366 711 366 712 q 358 697 366 704 q 339 690 350 690 q 326 700 330 690 z "},"`":{"ha":250,"x_min":50,"x_max":191,"o":"m 189 750 q 189 739 191 746 q 183 730 186 731 q 119 767 142 739 q 75 827 96 795 q 51 889 52 867 q 62 913 50 911 q 94 897 75 916 q 133 838 114 879 q 147 812 140 823 q 161 793 155 802 q 175 774 168 784 q 189 750 182 764 z "},"":{"ha":250,"x_min":56,"x_max":218,"o":"m 58 747 q 74 773 66 762 q 90 794 81 784 q 106 816 98 804 q 122 845 114 827 q 167 907 144 887 q 204 925 190 928 q 218 899 218 922 q 190 831 217 875 q 140 766 167 796 q 65 726 113 736 q 58 735 61 727 q 58 747 56 743 z "},"":{"ha":559,"x_min":84,"x_max":533,"o":"m 118 103 q 145 87 129 103 q 161 58 161 71 q 132 23 152 24 q 98 37 113 22 q 85 72 84 52 q 118 103 85 92 m 304 103 q 331 87 315 103 q 347 58 347 71 q 318 23 338 24 q 285 37 298 22 q 272 72 271 52 q 304 103 273 92 m 490 103 q 517 87 502 103 q 533 58 533 71 q 504 23 524 24 q 471 37 484 22 q 458 72 457 52 q 490 103 458 92 z "},"":{"ha":1206,"x_min":14,"x_max":1394,"o":"m 38 38 q 29 45 34 38 q 21 62 24 53 q 16 80 18 71 q 14 92 14 90 q 45 111 14 100 q 123 136 77 121 q 218 173 170 152 q 300 225 267 194 q 276 381 277 312 q 304 503 275 450 q 392 595 332 556 q 551 662 452 633 q 543 650 543 655 q 547 640 544 644 q 553 633 551 636 q 551 625 555 629 q 426 560 479 590 q 345 490 373 530 q 314 391 316 449 q 342 241 312 332 q 496 352 422 301 q 646 457 570 403 q 805 574 722 511 q 990 722 888 637 l 1019 1107 q 1042 1202 1023 1153 q 1096 1290 1062 1251 q 1173 1354 1130 1329 q 1264 1379 1215 1379 q 1369 1320 1344 1362 q 1381 1225 1394 1279 q 1327 1106 1369 1171 q 1235 975 1286 1042 q 1133 844 1184 909 q 1050 727 1082 780 q 1061 471 1069 597 q 1017 241 1053 346 q 920 66 982 137 q 770 -23 859 -4 q 568 1 682 -42 q 313 171 454 45 l 38 38 m 369 191 q 582 46 484 84 q 755 24 680 8 q 886 99 831 39 q 971 246 940 159 q 1009 441 1002 334 q 996 659 1016 548 l 369 191 m 1263 1336 q 1164 1298 1203 1329 q 1104 1221 1126 1267 q 1072 1120 1082 1176 q 1059 1007 1062 1065 q 1053 896 1055 949 q 1044 800 1051 842 q 1092 849 1062 815 q 1156 927 1122 883 q 1223 1021 1190 971 q 1284 1117 1257 1072 q 1329 1201 1312 1162 q 1345 1263 1345 1240 q 1320 1318 1345 1299 q 1263 1336 1295 1336 m 1336 1617 q 1358 1624 1343 1624 q 1383 1619 1373 1624 q 1394 1607 1394 1614 q 1394 1606 1394 1606 q 1393 1605 1393 1606 l 1393 1603 q 1296 1464 1348 1500 q 1190 1437 1244 1428 q 1082 1493 1135 1446 q 983 1603 1029 1539 q 992 1608 985 1605 q 1008 1614 1000 1611 q 1025 1619 1017 1617 q 1036 1621 1032 1621 q 1078 1577 1055 1602 q 1126 1531 1101 1552 q 1177 1498 1152 1510 q 1230 1493 1203 1487 q 1284 1527 1257 1499 q 1336 1617 1310 1556 z "},"":{"ha":570,"x_min":60,"x_max":517,"o":"m 164 844 q 116 824 137 844 q 79 785 95 804 l 62 785 q 72 843 60 821 q 103 877 84 865 q 142 890 122 888 q 175 886 163 891 q 223 876 201 886 q 267 853 245 865 q 311 830 288 841 q 362 819 334 819 q 403 819 384 819 q 437 826 422 819 q 463 849 453 833 q 472 898 472 865 q 461 962 472 943 q 416 981 450 981 q 430 1002 416 1000 q 454 1005 444 1005 q 502 975 487 1005 q 517 907 517 945 q 504 836 517 863 q 470 793 491 808 q 421 772 449 777 q 362 766 393 766 q 308 779 334 766 q 259 805 282 791 q 212 831 236 819 q 164 844 189 844 z "},"":{"ha":208,"x_min":72,"x_max":201,"o":"m 72 562 q 102 618 80 589 q 132 678 123 648 q 135 726 138 705 q 140 772 132 746 q 183 735 165 764 q 190 677 201 707 q 173 640 183 659 q 148 602 163 620 q 117 567 133 583 q 81 544 100 551 q 75 551 79 544 q 72 562 72 557 z "},"":{"ha":141,"x_min":37,"x_max":123,"o":"m 37 591 q 50 654 37 620 q 64 719 64 688 q 56 766 64 747 q 47 811 47 784 q 99 788 75 811 q 121 734 123 765 q 113 693 118 715 q 100 650 109 671 q 79 608 91 628 q 50 576 66 589 q 42 582 47 576 q 37 591 37 587 z "},"":{"ha":667,"x_min":-19,"x_max":701,"o":"m 129 83 q 45 45 81 52 q -5 46 8 38 q -6 73 -19 54 q 60 111 7 92 l 31 156 q 33 163 27 159 q 46 168 39 168 q 56 166 47 168 q 73 162 64 164 q 91 158 83 160 q 102 156 99 156 l 109 156 l 117 156 q 145 177 125 161 q 189 211 165 193 q 231 245 212 229 q 258 269 250 262 q 276 284 264 273 q 301 310 288 296 q 327 336 315 324 q 345 354 339 349 q 359 379 353 363 q 375 408 366 395 q 395 431 384 420 q 423 441 407 441 q 441 431 437 441 q 445 411 445 422 q 440 389 445 399 q 430 370 435 380 q 420 349 425 359 q 415 327 415 339 l 415 45 q 522 58 486 45 q 584 94 559 71 q 633 147 609 117 q 701 212 656 178 l 701 197 q 682 141 701 170 q 633 87 663 113 q 567 39 604 61 q 493 3 530 18 q 422 -16 456 -11 q 365 -16 388 -22 q 302 -7 331 -16 q 245 18 273 3 q 190 51 218 34 q 129 83 161 68 m 187 126 q 218 94 195 109 q 269 70 241 80 q 326 54 297 60 q 377 49 354 49 q 373 167 377 109 q 358 283 369 225 q 336 269 353 281 q 315 254 320 258 q 290 229 308 247 q 252 191 273 212 q 212 152 231 171 q 187 126 194 133 m 476 684 q 498 690 483 690 q 524 686 513 690 q 534 674 534 681 q 534 673 534 673 q 533 671 533 673 l 533 670 q 436 531 488 567 q 330 504 384 495 q 222 559 275 513 q 123 670 170 606 q 132 675 125 671 q 149 681 140 678 q 165 686 157 684 q 176 688 172 688 q 218 644 195 669 q 267 597 241 618 q 317 565 292 576 q 370 559 343 553 q 424 594 397 566 q 476 684 450 623 z "},"":{"ha":392,"x_min":137,"x_max":353,"o":"m 137 747 q 142 767 137 758 q 160 776 148 776 q 186 764 176 776 q 201 736 195 753 q 210 704 208 720 q 212 677 212 688 q 209 635 212 651 q 194 590 206 618 l 189 589 q 172 610 180 589 q 155 659 163 632 q 142 712 148 686 q 137 747 137 738 m 263 762 q 274 787 263 776 q 297 799 285 799 q 334 783 323 799 q 349 746 346 768 q 352 701 353 724 q 351 663 351 678 q 351 651 351 659 q 351 635 351 643 q 349 621 350 627 q 349 614 349 614 l 335 598 q 319 633 331 612 q 294 680 307 655 q 273 728 282 705 q 263 762 263 751 z "},"":{"ha":392,"x_min":137,"x_max":353,"o":"m 137 747 q 142 767 137 758 q 160 776 148 776 q 186 764 176 776 q 201 736 195 753 q 210 704 208 720 q 212 677 212 688 q 209 635 212 651 q 194 590 206 618 l 189 589 q 172 610 180 589 q 155 659 163 632 q 142 712 148 686 q 137 747 137 738 m 263 762 q 274 787 263 776 q 297 799 285 799 q 334 783 323 799 q 349 746 346 768 q 352 701 353 724 q 351 663 351 678 q 351 651 351 659 q 351 635 351 643 q 349 621 350 627 q 349 614 349 614 l 335 598 q 319 633 331 612 q 294 680 307 655 q 273 728 282 705 q 263 762 263 751 z "},"":{"ha":457,"x_min":84,"x_max":347,"o":"m 118 906 q 145 890 129 906 q 161 861 161 873 q 132 826 152 827 q 98 840 113 825 q 85 874 84 854 q 118 906 85 894 m 304 906 q 331 890 315 906 q 347 861 347 873 q 318 826 338 827 q 285 840 298 825 q 272 874 271 854 q 304 906 273 894 z "},"":{"ha":585,"x_min":149,"x_max":458,"o":"m 149 -298 q 160 -254 149 -275 q 199 -233 171 -233 q 214 -235 208 -233 q 221 -245 221 -237 l 221 -247 q 220 -250 221 -248 l 180 -290 q 179 -297 179 -292 q 198 -334 179 -320 q 236 -349 217 -349 q 295 -341 263 -349 q 355 -317 327 -334 q 401 -275 382 -300 q 419 -218 419 -251 q 382 -130 419 -157 q 288 -102 346 -102 q 238 -110 262 -102 q 189 -118 214 -118 l 172 -118 q 170 -102 172 -114 q 165 -77 168 -91 q 161 -52 163 -64 q 157 -37 159 -41 q 157 16 149 -1 q 177 30 165 34 q 197 2 189 26 q 197 -69 206 -22 q 203 -76 197 -76 q 213 -76 209 -76 q 256 -72 235 -76 q 300 -68 277 -68 q 413 -107 368 -68 q 458 -217 458 -146 q 437 -287 458 -256 q 385 -338 416 -317 q 315 -370 353 -359 q 244 -381 278 -381 l 197 -381 q 161 -347 172 -369 q 149 -298 149 -324 z "},"":{"ha":902,"x_min":50,"x_max":859,"o":"m 98 -286 q 66 -229 77 -259 q 53 -175 56 -198 q 55 -138 50 -152 q 71 -130 60 -123 q 100 -168 83 -137 q 141 -264 118 -198 q 278 -471 214 -404 q 399 -548 342 -537 q 504 -519 456 -559 q 592 -407 552 -480 q 664 -234 632 -334 q 719 -23 696 -134 q 755 202 742 88 q 773 419 769 316 q 711 286 750 334 q 627 230 671 239 q 538 250 582 221 q 463 347 495 279 q 416 522 430 415 q 416 774 403 629 q 383 761 403 772 q 343 736 363 750 q 302 709 323 722 q 264 691 281 697 q 236 688 247 685 q 224 712 225 692 q 267 736 243 720 q 317 770 292 753 q 368 801 343 787 q 411 821 392 815 q 443 823 430 827 q 458 796 456 818 q 462 706 463 755 q 462 606 461 656 q 467 504 463 555 q 487 410 472 453 q 529 335 502 368 q 601 288 556 302 q 697 343 661 301 q 753 441 734 385 q 782 564 773 498 q 796 696 791 631 q 808 821 802 762 q 829 921 814 879 l 859 910 q 840 533 854 720 q 800 176 825 346 q 739 -140 774 5 q 657 -391 704 -286 q 553 -554 610 -496 q 425 -606 495 -612 q 273 -524 355 -600 q 98 -286 191 -449 m 491 1055 q 518 1039 502 1055 q 534 1010 534 1023 q 505 975 525 977 q 471 989 486 974 q 458 1023 457 1004 q 491 1055 458 1043 m 677 1055 q 704 1039 688 1055 q 720 1010 720 1023 q 691 975 711 977 q 658 989 671 974 q 645 1023 644 1004 q 677 1055 646 1043 z "},"":{"ha":563,"x_min":83,"x_max":449,"o":"m 441 839 q 430 815 436 822 q 412 809 424 807 q 401 822 402 812 q 404 846 400 832 q 404 847 404 847 q 405 848 405 847 l 406 851 q 420 865 410 857 q 432 874 430 874 q 444 870 440 874 q 447 862 447 867 q 445 850 447 857 q 441 839 444 842 m 361 644 q 394 671 386 673 q 401 648 402 668 q 391 596 400 628 q 373 532 382 564 q 355 474 364 500 q 349 441 347 448 q 245 380 284 412 q 185 317 207 349 q 155 261 164 286 q 141 217 146 235 q 129 147 131 182 q 134 83 127 112 q 156 35 141 55 q 195 8 171 15 q 249 11 220 3 q 304 36 277 19 q 354 81 330 54 q 395 143 377 107 q 402 175 404 161 q 408 225 401 188 q 432 226 415 261 q 432 135 450 191 q 390 57 420 92 q 325 -2 360 22 q 254 -37 290 -26 q 190 -42 217 -49 q 130 -10 154 -35 q 95 49 106 14 q 86 129 84 84 q 102 222 87 174 q 139 310 117 274 q 187 375 160 346 q 248 427 215 403 q 320 475 281 450 q 323 486 320 477 q 326 496 326 494 q 345 569 337 532 q 361 644 354 606 z "},"":{"ha":1016,"x_min":12,"x_max":1050,"o":"m 844 406 q 764 418 807 408 q 677 438 722 427 q 587 458 632 449 q 506 468 543 467 q 448 394 476 438 q 389 302 419 350 q 326 208 358 254 q 257 125 293 161 q 182 65 221 88 q 99 42 142 42 q 84 42 95 42 q 62 43 73 42 q 42 43 52 43 q 27 43 33 43 q 12 65 12 53 q 27 85 12 77 q 113 92 69 75 q 197 142 156 109 q 277 220 239 175 q 351 315 316 266 q 414 411 385 363 q 463 496 442 458 q 451 504 458 498 q 434 517 444 510 q 416 530 425 524 q 406 538 408 536 q 372 569 395 548 q 326 614 350 590 q 284 660 302 637 q 262 696 266 682 q 267 714 262 708 q 281 723 273 720 q 299 726 289 726 q 321 726 309 726 q 389 716 355 726 q 456 696 423 707 q 524 676 490 685 q 591 667 557 667 q 643 758 617 700 q 694 881 669 817 q 745 1004 719 945 q 798 1099 772 1063 q 836 1154 823 1143 q 853 1160 849 1165 q 856 1143 857 1156 q 854 1126 854 1131 q 859 1057 856 1108 q 864 940 861 1006 q 870 800 867 873 q 878 661 873 726 q 884 551 882 595 q 890 496 887 506 l 905 496 q 997 534 964 525 q 1040 540 1029 544 q 1042 522 1050 536 q 1015 492 1035 509 q 965 461 994 476 q 905 439 936 446 q 902 366 901 411 q 909 267 903 320 q 922 155 914 213 q 937 43 929 98 q 949 -58 944 -12 q 956 -134 954 -104 q 955 -145 956 -142 q 951 -149 954 -148 q 942 -150 948 -149 q 926 -156 936 -151 q 899 -17 907 -85 q 884 121 890 52 q 871 262 879 191 q 844 406 863 334 m 547 510 q 663 488 605 495 q 753 472 720 481 q 699 532 735 496 q 604 595 663 567 q 574 557 593 581 q 547 510 556 533 m 836 481 q 835 610 837 533 q 830 767 833 686 q 823 919 827 848 q 815 1031 819 990 l 640 639 l 836 481 m 377 681 q 339 675 345 686 q 345 646 334 665 q 380 606 357 628 q 431 568 404 585 q 481 541 457 551 q 519 538 506 532 q 530 553 526 545 q 538 571 534 562 q 547 593 541 581 q 563 624 552 606 q 527 636 553 628 q 471 653 500 644 q 414 670 441 662 q 377 681 388 678 m 888 1253 q 888 1242 891 1249 q 883 1233 886 1234 q 819 1270 842 1242 q 774 1331 796 1298 q 751 1392 751 1370 q 762 1417 750 1415 q 794 1400 774 1419 q 833 1341 814 1382 q 847 1316 840 1326 q 861 1296 854 1305 q 875 1277 868 1287 q 888 1253 882 1267 z "},"":{"ha":1016,"x_min":12,"x_max":1050,"o":"m 844 406 q 764 418 807 408 q 677 438 722 427 q 587 458 632 449 q 506 468 543 467 q 448 394 476 438 q 389 302 419 350 q 326 208 358 254 q 257 125 293 161 q 182 65 221 88 q 99 42 142 42 q 84 42 95 42 q 62 43 73 42 q 42 43 52 43 q 27 43 33 43 q 12 65 12 53 q 27 85 12 77 q 113 92 69 75 q 197 142 156 109 q 277 220 239 175 q 351 315 316 266 q 414 411 385 363 q 463 496 442 458 q 451 504 458 498 q 434 517 444 510 q 416 530 425 524 q 406 538 408 536 q 372 569 395 548 q 326 614 350 590 q 284 660 302 637 q 262 696 266 682 q 267 714 262 708 q 281 723 273 720 q 299 726 289 726 q 321 726 309 726 q 389 716 355 726 q 456 696 423 707 q 524 676 490 685 q 591 667 557 667 q 643 758 617 700 q 694 881 669 817 q 745 1004 719 945 q 798 1099 772 1063 q 836 1154 823 1143 q 853 1160 849 1165 q 856 1143 857 1156 q 854 1126 854 1131 q 859 1057 856 1108 q 864 940 861 1006 q 870 800 867 873 q 878 661 873 726 q 884 551 882 595 q 890 496 887 506 l 905 496 q 997 534 964 525 q 1040 540 1029 544 q 1042 522 1050 536 q 1015 492 1035 509 q 965 461 994 476 q 905 439 936 446 q 902 366 901 411 q 909 267 903 320 q 922 155 914 213 q 937 43 929 98 q 949 -58 944 -12 q 956 -134 954 -104 q 955 -145 956 -142 q 951 -149 954 -148 q 942 -150 948 -149 q 926 -156 936 -151 q 899 -17 907 -85 q 884 121 890 52 q 871 262 879 191 q 844 406 863 334 m 547 510 q 663 488 605 495 q 753 472 720 481 q 699 532 735 496 q 604 595 663 567 q 574 557 593 581 q 547 510 556 533 m 836 481 q 835 610 837 533 q 830 767 833 686 q 823 919 827 848 q 815 1031 819 990 l 640 639 l 836 481 m 377 681 q 339 675 345 686 q 345 646 334 665 q 380 606 357 628 q 431 568 404 585 q 481 541 457 551 q 519 538 506 532 q 530 553 526 545 q 538 571 534 562 q 547 593 541 581 q 563 624 552 606 q 527 636 553 628 q 471 653 500 644 q 414 670 441 662 q 377 681 388 678 m 795 1263 q 810 1289 803 1278 q 826 1310 818 1299 q 842 1331 834 1320 q 859 1360 850 1343 q 903 1423 880 1402 q 941 1440 926 1443 q 954 1414 955 1438 q 926 1347 954 1390 q 876 1282 903 1312 q 802 1241 849 1252 q 795 1251 798 1242 q 795 1263 792 1259 z "},"":{"ha":1016,"x_min":12,"x_max":1050,"o":"m 844 406 q 764 418 807 408 q 677 438 722 427 q 587 458 632 449 q 506 468 543 467 q 448 394 476 438 q 389 302 419 350 q 326 208 358 254 q 257 125 293 161 q 182 65 221 88 q 99 42 142 42 q 84 42 95 42 q 62 43 73 42 q 42 43 52 43 q 27 43 33 43 q 12 65 12 53 q 27 85 12 77 q 113 92 69 75 q 197 142 156 109 q 277 220 239 175 q 351 315 316 266 q 414 411 385 363 q 463 496 442 458 q 451 504 458 498 q 434 517 444 510 q 416 530 425 524 q 406 538 408 536 q 372 569 395 548 q 326 614 350 590 q 284 660 302 637 q 262 696 266 682 q 267 714 262 708 q 281 723 273 720 q 299 726 289 726 q 321 726 309 726 q 389 716 355 726 q 456 696 423 707 q 524 676 490 685 q 591 667 557 667 q 643 758 617 700 q 694 881 669 817 q 745 1004 719 945 q 798 1099 772 1063 q 836 1154 823 1143 q 853 1160 849 1165 q 856 1143 857 1156 q 854 1126 854 1131 q 859 1057 856 1108 q 864 940 861 1006 q 870 800 867 873 q 878 661 873 726 q 884 551 882 595 q 890 496 887 506 l 905 496 q 997 534 964 525 q 1040 540 1029 544 q 1042 522 1050 536 q 1015 492 1035 509 q 965 461 994 476 q 905 439 936 446 q 902 366 901 411 q 909 267 903 320 q 922 155 914 213 q 937 43 929 98 q 949 -58 944 -12 q 956 -134 954 -104 q 955 -145 956 -142 q 951 -149 954 -148 q 942 -150 948 -149 q 926 -156 936 -151 q 899 -17 907 -85 q 884 121 890 52 q 871 262 879 191 q 844 406 863 334 m 547 510 q 663 488 605 495 q 753 472 720 481 q 699 532 735 496 q 604 595 663 567 q 574 557 593 581 q 547 510 556 533 m 836 481 q 835 610 837 533 q 830 767 833 686 q 823 919 827 848 q 815 1031 819 990 l 640 639 l 836 481 m 377 681 q 339 675 345 686 q 345 646 334 665 q 380 606 357 628 q 431 568 404 585 q 481 541 457 551 q 519 538 506 532 q 530 553 526 545 q 538 571 534 562 q 547 593 541 581 q 563 624 552 606 q 527 636 553 628 q 471 653 500 644 q 414 670 441 662 q 377 681 388 678 m 945 1203 q 932 1233 941 1211 q 913 1278 922 1255 q 895 1324 903 1302 q 882 1354 886 1345 q 870 1372 879 1359 q 859 1389 861 1385 q 818 1347 837 1377 q 781 1287 799 1317 q 745 1234 762 1257 q 705 1210 727 1210 q 692 1219 697 1210 q 721 1272 700 1237 q 769 1345 742 1306 q 826 1419 796 1383 q 882 1472 856 1454 q 884 1471 883 1472 q 887 1470 884 1470 l 891 1470 q 899 1415 891 1444 q 920 1356 907 1385 q 945 1300 932 1326 q 966 1256 958 1274 q 969 1249 966 1255 q 976 1238 972 1244 q 982 1227 979 1233 q 985 1219 985 1221 l 985 1218 q 985 1216 985 1217 q 986 1214 986 1215 q 978 1200 986 1207 q 959 1194 970 1194 q 945 1203 949 1194 z "},"":{"ha":1016,"x_min":12,"x_max":1065,"o":"m 844 406 q 764 418 807 408 q 677 438 722 427 q 587 458 632 449 q 506 468 543 467 q 448 394 476 438 q 389 302 419 350 q 326 208 358 254 q 257 125 293 161 q 182 65 221 88 q 99 42 142 42 q 84 42 95 42 q 62 43 73 42 q 42 43 52 43 q 27 43 33 43 q 12 65 12 53 q 27 85 12 77 q 113 92 69 75 q 197 142 156 109 q 277 220 239 175 q 351 315 316 266 q 414 411 385 363 q 463 496 442 458 q 451 504 458 498 q 434 517 444 510 q 416 530 425 524 q 406 538 408 536 q 372 569 395 548 q 326 614 350 590 q 284 660 302 637 q 262 696 266 682 q 267 714 262 708 q 281 723 273 720 q 299 726 289 726 q 321 726 309 726 q 389 716 355 726 q 456 696 423 707 q 524 676 490 685 q 591 667 557 667 q 643 758 617 700 q 694 881 669 817 q 745 1004 719 945 q 798 1099 772 1063 q 836 1154 823 1143 q 853 1160 849 1165 q 856 1143 857 1156 q 854 1126 854 1131 q 859 1057 856 1108 q 864 940 861 1006 q 870 800 867 873 q 878 661 873 726 q 884 551 882 595 q 890 496 887 506 l 905 496 q 997 534 964 525 q 1040 540 1029 544 q 1042 522 1050 536 q 1015 492 1035 509 q 965 461 994 476 q 905 439 936 446 q 902 366 901 411 q 909 267 903 320 q 922 155 914 213 q 937 43 929 98 q 949 -58 944 -12 q 956 -134 954 -104 q 955 -145 956 -142 q 951 -149 954 -148 q 942 -150 948 -149 q 926 -156 936 -151 q 899 -17 907 -85 q 884 121 890 52 q 871 262 879 191 q 844 406 863 334 m 547 510 q 663 488 605 495 q 753 472 720 481 q 699 532 735 496 q 604 595 663 567 q 574 557 593 581 q 547 510 556 533 m 836 481 q 835 610 837 533 q 830 767 833 686 q 823 919 827 848 q 815 1031 819 990 l 640 639 l 836 481 m 377 681 q 339 675 345 686 q 345 646 334 665 q 380 606 357 628 q 431 568 404 585 q 481 541 457 551 q 519 538 506 532 q 530 553 526 545 q 538 571 534 562 q 547 593 541 581 q 563 624 552 606 q 527 636 553 628 q 471 653 500 644 q 414 670 441 662 q 377 681 388 678 m 712 1362 q 664 1342 685 1362 q 627 1303 643 1322 l 610 1303 q 620 1361 608 1339 q 651 1395 632 1383 q 690 1408 670 1407 q 723 1404 711 1409 q 771 1394 749 1404 q 814 1371 793 1383 q 859 1348 836 1359 q 910 1337 882 1337 q 951 1337 932 1337 q 985 1344 970 1337 q 1010 1367 1001 1351 q 1020 1416 1020 1383 q 1009 1480 1020 1461 q 964 1499 998 1499 q 978 1520 964 1518 q 1002 1523 991 1523 q 1050 1493 1035 1523 q 1065 1426 1065 1463 q 1052 1354 1065 1381 q 1018 1311 1039 1326 q 969 1290 997 1295 q 910 1284 941 1284 q 856 1297 882 1284 q 807 1323 830 1309 q 760 1350 784 1337 q 712 1362 736 1362 z "},"":{"ha":1016,"x_min":12,"x_max":1050,"o":"m 844 406 q 764 418 807 408 q 677 438 722 427 q 587 458 632 449 q 506 468 543 467 q 448 394 476 438 q 389 302 419 350 q 326 208 358 254 q 257 125 293 161 q 182 65 221 88 q 99 42 142 42 q 84 42 95 42 q 62 43 73 42 q 42 43 52 43 q 27 43 33 43 q 12 65 12 53 q 27 85 12 77 q 113 92 69 75 q 197 142 156 109 q 277 220 239 175 q 351 315 316 266 q 414 411 385 363 q 463 496 442 458 q 451 504 458 498 q 434 517 444 510 q 416 530 425 524 q 406 538 408 536 q 372 569 395 548 q 326 614 350 590 q 284 660 302 637 q 262 696 266 682 q 267 714 262 708 q 281 723 273 720 q 299 726 289 726 q 321 726 309 726 q 389 716 355 726 q 456 696 423 707 q 524 676 490 685 q 591 667 557 667 q 643 758 617 700 q 694 881 669 817 q 745 1004 719 945 q 798 1099 772 1063 q 836 1154 823 1143 q 853 1160 849 1165 q 856 1143 857 1156 q 854 1126 854 1131 q 859 1057 856 1108 q 864 940 861 1006 q 870 800 867 873 q 878 661 873 726 q 884 551 882 595 q 890 496 887 506 l 905 496 q 997 534 964 525 q 1040 540 1029 544 q 1042 522 1050 536 q 1015 492 1035 509 q 965 461 994 476 q 905 439 936 446 q 902 366 901 411 q 909 267 903 320 q 922 155 914 213 q 937 43 929 98 q 949 -58 944 -12 q 956 -134 954 -104 q 955 -145 956 -142 q 951 -149 954 -148 q 942 -150 948 -149 q 926 -156 936 -151 q 899 -17 907 -85 q 884 121 890 52 q 871 262 879 191 q 844 406 863 334 m 547 510 q 663 488 605 495 q 753 472 720 481 q 699 532 735 496 q 604 595 663 567 q 574 557 593 581 q 547 510 556 533 m 836 481 q 835 610 837 533 q 830 767 833 686 q 823 919 827 848 q 815 1031 819 990 l 640 639 l 836 481 m 377 681 q 339 675 345 686 q 345 646 334 665 q 380 606 357 628 q 431 568 404 585 q 481 541 457 551 q 519 538 506 532 q 530 553 526 545 q 538 571 534 562 q 547 593 541 581 q 563 624 552 606 q 527 636 553 628 q 471 653 500 644 q 414 670 441 662 q 377 681 388 678 m 766 1382 q 793 1366 777 1382 q 810 1337 810 1350 q 781 1302 800 1303 q 747 1316 761 1301 q 733 1350 732 1331 q 766 1382 734 1370 m 952 1382 q 979 1366 963 1382 q 996 1337 996 1350 q 966 1302 986 1303 q 933 1316 947 1301 q 920 1350 920 1331 q 952 1382 921 1370 z "},"":{"ha":1016,"x_min":12,"x_max":1050,"o":"m 844 406 q 764 418 807 408 q 677 438 722 427 q 587 458 632 449 q 506 468 543 467 q 448 394 476 438 q 389 302 419 350 q 326 208 358 254 q 257 125 293 161 q 182 65 221 88 q 99 42 142 42 q 84 42 95 42 q 62 43 73 42 q 42 43 52 43 q 27 43 33 43 q 12 65 12 53 q 27 85 12 77 q 113 92 69 75 q 197 142 156 109 q 277 220 239 175 q 351 315 316 266 q 414 411 385 363 q 463 496 442 458 q 451 504 458 498 q 434 517 444 510 q 416 530 425 524 q 406 538 408 536 q 372 569 395 548 q 326 614 350 590 q 284 660 302 637 q 262 696 266 682 q 267 714 262 708 q 281 723 273 720 q 299 726 289 726 q 321 726 309 726 q 389 716 355 726 q 456 696 423 707 q 524 676 490 685 q 591 667 557 667 q 643 758 617 700 q 694 881 669 817 q 745 1004 719 945 q 798 1099 772 1063 q 836 1154 823 1143 q 853 1160 849 1165 q 856 1143 857 1156 q 854 1126 854 1131 q 859 1057 856 1108 q 864 940 861 1006 q 870 800 867 873 q 878 661 873 726 q 884 551 882 595 q 890 496 887 506 l 905 496 q 997 534 964 525 q 1040 540 1029 544 q 1042 522 1050 536 q 1015 492 1035 509 q 965 461 994 476 q 905 439 936 446 q 902 366 901 411 q 909 267 903 320 q 922 155 914 213 q 937 43 929 98 q 949 -58 944 -12 q 956 -134 954 -104 q 955 -145 956 -142 q 951 -149 954 -148 q 942 -150 948 -149 q 926 -156 936 -151 q 899 -17 907 -85 q 884 121 890 52 q 871 262 879 191 q 844 406 863 334 m 547 510 q 663 488 605 495 q 753 472 720 481 q 699 532 735 496 q 604 595 663 567 q 574 557 593 581 q 547 510 556 533 m 836 481 q 835 610 837 533 q 830 767 833 686 q 823 919 827 848 q 815 1031 819 990 l 640 639 l 836 481 m 377 681 q 339 675 345 686 q 345 646 334 665 q 380 606 357 628 q 431 568 404 585 q 481 541 457 551 q 519 538 506 532 q 530 553 526 545 q 538 571 534 562 q 547 593 541 581 q 563 624 552 606 q 527 636 553 628 q 471 653 500 644 q 414 670 441 662 q 377 681 388 678 m 819 1146 q 760 1174 785 1146 q 736 1242 734 1202 q 764 1319 736 1291 q 834 1347 791 1347 q 898 1329 871 1347 q 925 1264 925 1312 q 894 1179 925 1213 q 819 1146 863 1146 m 751 1241 q 776 1186 751 1204 q 829 1168 800 1168 q 851 1173 838 1168 q 877 1187 864 1179 q 898 1206 890 1195 q 906 1233 906 1218 q 905 1280 911 1263 q 888 1308 899 1298 q 862 1320 876 1317 q 840 1324 848 1322 q 777 1303 803 1324 q 751 1241 751 1283 z "},"":{"ha":662,"x_min":24,"x_max":636,"o":"m 37 241 q 33 376 24 293 q 66 555 42 460 q 128 751 91 651 q 212 935 165 852 q 313 1075 259 1019 q 426 1142 368 1131 q 453 1139 442 1142 q 476 1124 464 1137 q 504 1096 487 1114 q 536 1049 521 1078 q 559 979 551 1020 q 563 883 568 937 q 555 871 562 875 q 541 868 548 868 l 537 868 q 534 869 536 868 q 530 931 533 894 q 515 1003 526 968 q 481 1062 505 1038 q 419 1086 458 1086 q 347 1045 387 1086 q 271 939 308 1004 q 198 793 233 873 q 136 635 163 712 q 94 490 110 557 q 77 385 77 423 q 90 283 77 340 q 129 176 103 227 q 195 92 155 126 q 292 57 235 57 q 404 90 350 57 q 503 171 458 122 q 578 277 547 220 q 620 385 609 335 q 634 370 632 382 q 636 349 636 358 q 635 338 636 346 q 633 328 635 331 q 585 224 618 281 q 506 117 552 167 q 405 33 460 66 q 292 0 350 0 q 201 22 241 0 q 127 79 160 45 q 72 157 95 114 q 37 241 49 199 m 258 -290 q 269 -246 258 -267 q 308 -225 279 -225 q 323 -227 316 -225 q 330 -237 330 -229 l 330 -239 q 328 -241 330 -240 l 289 -282 q 288 -289 288 -283 q 307 -326 288 -312 q 345 -340 326 -340 q 404 -333 372 -340 q 463 -309 435 -326 q 509 -267 491 -292 q 528 -210 528 -243 q 491 -121 528 -149 q 396 -94 454 -94 q 347 -102 370 -94 q 297 -110 323 -110 l 281 -110 q 279 -94 281 -106 q 274 -69 277 -83 q 269 -44 271 -56 q 266 -28 267 -33 q 266 24 258 7 q 286 38 274 42 q 306 10 297 34 q 305 -61 315 -14 q 311 -68 305 -68 q 321 -68 317 -68 q 364 -64 343 -68 q 408 -60 385 -60 q 522 -99 476 -60 q 567 -209 567 -138 q 546 -279 567 -248 q 493 -330 525 -309 q 424 -362 461 -351 q 353 -373 387 -373 l 305 -373 q 269 -338 281 -361 q 258 -290 258 -316 z "},"":{"ha":712,"x_min":19,"x_max":741,"o":"m 19 236 q 35 326 19 282 q 77 410 52 369 q 132 488 102 452 q 191 556 163 524 l 191 563 q 184 627 191 597 q 176 694 176 658 q 187 770 176 727 q 218 859 198 812 q 267 951 239 906 q 327 1032 294 997 q 395 1090 359 1067 q 469 1112 431 1112 q 525 1099 499 1112 q 568 1065 551 1086 q 596 1015 586 1043 q 606 959 606 987 q 608 942 606 952 q 607 922 609 932 q 600 905 605 913 q 583 898 594 898 l 576 898 q 568 939 574 910 q 550 996 562 967 q 522 1047 538 1025 q 479 1069 505 1069 q 376 1029 423 1069 q 294 934 330 990 q 239 814 259 878 q 220 705 220 751 q 224 654 220 677 q 235 597 228 632 l 248 597 q 307 607 278 597 q 367 628 336 617 q 429 648 397 639 q 491 658 460 658 q 524 658 505 658 q 562 654 543 658 q 593 640 581 650 q 606 609 606 629 q 579 542 606 568 q 513 499 552 515 q 433 476 475 483 q 363 469 392 469 q 326 476 343 469 q 292 492 308 483 q 261 507 277 500 q 228 514 245 514 l 220 514 q 115 394 153 463 q 76 241 76 326 q 110 123 76 164 q 220 57 144 83 q 367 56 298 42 q 496 99 435 71 q 614 162 557 127 q 727 222 670 197 q 736 204 732 212 q 741 186 741 197 q 739 174 741 178 q 727 164 736 170 q 528 73 606 106 q 401 24 450 41 q 328 4 353 8 q 292 0 302 0 q 191 17 240 0 q 104 65 142 34 q 43 140 66 96 q 19 236 19 183 m 292 548 q 301 528 292 536 q 325 517 311 521 q 353 513 339 514 q 377 513 368 513 q 425 517 399 513 q 478 529 452 521 q 526 551 505 537 q 563 585 548 566 q 535 607 552 600 q 500 614 518 614 q 453 610 487 614 q 383 597 419 605 q 319 578 347 590 q 292 548 292 566 m 483 1179 q 483 1167 486 1175 q 477 1158 480 1160 q 414 1196 437 1168 q 369 1256 391 1223 q 345 1318 346 1295 q 357 1342 345 1340 q 389 1326 369 1344 q 427 1267 408 1308 q 441 1241 434 1252 q 456 1221 449 1230 q 469 1202 463 1213 q 483 1179 476 1192 z "},"":{"ha":712,"x_min":19,"x_max":741,"o":"m 19 236 q 35 326 19 282 q 77 410 52 369 q 132 488 102 452 q 191 556 163 524 l 191 563 q 184 627 191 597 q 176 694 176 658 q 187 770 176 727 q 218 859 198 812 q 267 951 239 906 q 327 1032 294 997 q 395 1090 359 1067 q 469 1112 431 1112 q 525 1099 499 1112 q 568 1065 551 1086 q 596 1015 586 1043 q 606 959 606 987 q 608 942 606 952 q 607 922 609 932 q 600 905 605 913 q 583 898 594 898 l 576 898 q 568 939 574 910 q 550 996 562 967 q 522 1047 538 1025 q 479 1069 505 1069 q 376 1029 423 1069 q 294 934 330 990 q 239 814 259 878 q 220 705 220 751 q 224 654 220 677 q 235 597 228 632 l 248 597 q 307 607 278 597 q 367 628 336 617 q 429 648 397 639 q 491 658 460 658 q 524 658 505 658 q 562 654 543 658 q 593 640 581 650 q 606 609 606 629 q 579 542 606 568 q 513 499 552 515 q 433 476 475 483 q 363 469 392 469 q 326 476 343 469 q 292 492 308 483 q 261 507 277 500 q 228 514 245 514 l 220 514 q 115 394 153 463 q 76 241 76 326 q 110 123 76 164 q 220 57 144 83 q 367 56 298 42 q 496 99 435 71 q 614 162 557 127 q 727 222 670 197 q 736 204 732 212 q 741 186 741 197 q 739 174 741 178 q 727 164 736 170 q 528 73 606 106 q 401 24 450 41 q 328 4 353 8 q 292 0 302 0 q 191 17 240 0 q 104 65 142 34 q 43 140 66 96 q 19 236 19 183 m 292 548 q 301 528 292 536 q 325 517 311 521 q 353 513 339 514 q 377 513 368 513 q 425 517 399 513 q 478 529 452 521 q 526 551 505 537 q 563 585 548 566 q 535 607 552 600 q 500 614 518 614 q 453 610 487 614 q 383 597 419 605 q 319 578 347 590 q 292 548 292 566 m 378 1192 q 394 1218 387 1207 q 410 1239 401 1229 q 426 1261 418 1249 q 442 1290 434 1272 q 487 1352 464 1332 q 524 1370 510 1373 q 538 1343 538 1367 q 510 1276 537 1320 q 460 1211 487 1241 q 385 1171 433 1181 q 378 1180 381 1172 q 378 1192 376 1188 z "},"":{"ha":712,"x_min":19,"x_max":741,"o":"m 19 236 q 35 326 19 282 q 77 410 52 369 q 132 488 102 452 q 191 556 163 524 l 191 563 q 184 627 191 597 q 176 694 176 658 q 187 770 176 727 q 218 859 198 812 q 267 951 239 906 q 327 1032 294 997 q 395 1090 359 1067 q 469 1112 431 1112 q 525 1099 499 1112 q 568 1065 551 1086 q 596 1015 586 1043 q 606 959 606 987 q 608 942 606 952 q 607 922 609 932 q 600 905 605 913 q 583 898 594 898 l 576 898 q 568 939 574 910 q 550 996 562 967 q 522 1047 538 1025 q 479 1069 505 1069 q 376 1029 423 1069 q 294 934 330 990 q 239 814 259 878 q 220 705 220 751 q 224 654 220 677 q 235 597 228 632 l 248 597 q 307 607 278 597 q 367 628 336 617 q 429 648 397 639 q 491 658 460 658 q 524 658 505 658 q 562 654 543 658 q 593 640 581 650 q 606 609 606 629 q 579 542 606 568 q 513 499 552 515 q 433 476 475 483 q 363 469 392 469 q 326 476 343 469 q 292 492 308 483 q 261 507 277 500 q 228 514 245 514 l 220 514 q 115 394 153 463 q 76 241 76 326 q 110 123 76 164 q 220 57 144 83 q 367 56 298 42 q 496 99 435 71 q 614 162 557 127 q 727 222 670 197 q 736 204 732 212 q 741 186 741 197 q 739 174 741 178 q 727 164 736 170 q 528 73 606 106 q 401 24 450 41 q 328 4 353 8 q 292 0 302 0 q 191 17 240 0 q 104 65 142 34 q 43 140 66 96 q 19 236 19 183 m 292 548 q 301 528 292 536 q 325 517 311 521 q 353 513 339 514 q 377 513 368 513 q 425 517 399 513 q 478 529 452 521 q 526 551 505 537 q 563 585 548 566 q 535 607 552 600 q 500 614 518 614 q 453 610 487 614 q 383 597 419 605 q 319 578 347 590 q 292 548 292 566 m 574 1169 q 560 1199 570 1177 q 541 1244 551 1221 q 523 1290 532 1268 q 510 1320 514 1312 q 498 1338 507 1325 q 487 1355 490 1351 q 446 1313 465 1343 q 409 1253 427 1283 q 373 1200 391 1223 q 334 1176 355 1176 q 320 1185 326 1176 q 349 1238 328 1203 q 397 1311 370 1272 q 454 1385 425 1350 q 510 1438 484 1420 q 512 1437 511 1438 q 515 1436 513 1436 l 519 1436 q 528 1381 519 1411 q 548 1322 536 1351 q 573 1266 560 1293 q 594 1222 586 1240 q 597 1215 594 1221 q 604 1204 601 1210 q 610 1193 608 1199 q 613 1185 613 1187 l 613 1184 q 614 1182 613 1183 q 614 1180 614 1181 q 606 1166 614 1173 q 587 1160 598 1160 q 574 1169 578 1160 z "},"":{"ha":712,"x_min":19,"x_max":741,"o":"m 19 236 q 35 326 19 282 q 77 410 52 369 q 132 488 102 452 q 191 556 163 524 l 191 563 q 184 627 191 597 q 176 694 176 658 q 187 770 176 727 q 218 859 198 812 q 267 951 239 906 q 327 1032 294 997 q 395 1090 359 1067 q 469 1112 431 1112 q 525 1099 499 1112 q 568 1065 551 1086 q 596 1015 586 1043 q 606 959 606 987 q 608 942 606 952 q 607 922 609 932 q 600 905 605 913 q 583 898 594 898 l 576 898 q 568 939 574 910 q 550 996 562 967 q 522 1047 538 1025 q 479 1069 505 1069 q 376 1029 423 1069 q 294 934 330 990 q 239 814 259 878 q 220 705 220 751 q 224 654 220 677 q 235 597 228 632 l 248 597 q 307 607 278 597 q 367 628 336 617 q 429 648 397 639 q 491 658 460 658 q 524 658 505 658 q 562 654 543 658 q 593 640 581 650 q 606 609 606 629 q 579 542 606 568 q 513 499 552 515 q 433 476 475 483 q 363 469 392 469 q 326 476 343 469 q 292 492 308 483 q 261 507 277 500 q 228 514 245 514 l 220 514 q 115 394 153 463 q 76 241 76 326 q 110 123 76 164 q 220 57 144 83 q 367 56 298 42 q 496 99 435 71 q 614 162 557 127 q 727 222 670 197 q 736 204 732 212 q 741 186 741 197 q 739 174 741 178 q 727 164 736 170 q 528 73 606 106 q 401 24 450 41 q 328 4 353 8 q 292 0 302 0 q 191 17 240 0 q 104 65 142 34 q 43 140 66 96 q 19 236 19 183 m 292 548 q 301 528 292 536 q 325 517 311 521 q 353 513 339 514 q 377 513 368 513 q 425 517 399 513 q 478 529 452 521 q 526 551 505 537 q 563 585 548 566 q 535 607 552 600 q 500 614 518 614 q 453 610 487 614 q 383 597 419 605 q 319 578 347 590 q 292 548 292 566 m 373 1238 q 400 1222 384 1238 q 416 1194 416 1206 q 387 1158 407 1160 q 353 1172 368 1157 q 340 1206 339 1187 q 373 1238 340 1226 m 559 1238 q 586 1222 570 1238 q 602 1194 602 1206 q 573 1158 593 1160 q 540 1172 553 1157 q 527 1206 526 1187 q 559 1238 528 1226 z "},"":{"ha":825,"x_min":30,"x_max":846,"o":"m 30 30 q 35 50 30 41 q 53 60 41 60 q 93 52 76 60 q 137 43 110 43 q 315 83 229 43 q 475 191 400 123 q 613 347 551 259 q 721 528 675 434 q 791 716 766 623 q 817 891 817 810 q 772 1047 817 994 q 625 1100 728 1100 q 543 1065 579 1100 q 482 979 507 1029 q 444 876 457 929 q 430 787 430 822 q 465 659 430 712 q 574 585 499 606 l 544 572 q 532 576 543 571 q 509 587 522 581 q 481 601 495 593 q 458 614 467 609 q 399 692 412 643 q 385 789 385 741 q 401 898 385 837 q 446 1013 416 959 q 520 1105 476 1067 q 623 1142 564 1142 q 729 1122 686 1142 q 798 1065 772 1101 q 836 980 825 1029 q 846 872 846 930 q 802 616 846 742 q 682 378 758 490 q 505 178 606 267 q 289 30 403 88 q 211 0 255 14 q 125 -14 167 -14 q 99 -12 115 -14 q 68 -5 83 -9 q 41 9 53 0 q 30 30 30 18 m 614 1206 q 614 1194 617 1202 q 609 1185 612 1187 q 545 1223 568 1195 q 500 1283 522 1251 q 477 1345 477 1322 q 488 1369 476 1367 q 520 1353 500 1371 q 559 1294 540 1335 q 573 1268 566 1279 q 587 1249 581 1257 q 601 1230 594 1240 q 614 1206 608 1219 z "},"":{"ha":825,"x_min":19,"x_max":836,"o":"m 19 42 q 24 62 19 53 q 42 72 30 72 q 82 64 65 72 q 126 56 99 56 q 304 96 218 56 q 465 203 389 136 q 602 359 540 271 q 710 541 665 446 q 781 728 755 635 q 806 903 806 822 q 762 1059 806 1006 q 614 1112 718 1112 q 532 1077 568 1112 q 471 991 496 1042 q 433 888 446 941 q 419 799 419 834 q 454 671 419 724 q 563 597 488 618 l 533 585 q 522 588 532 583 q 498 599 511 593 q 470 613 484 605 q 448 627 456 621 q 388 704 401 655 q 374 802 374 753 q 390 910 374 849 q 435 1025 406 971 q 509 1117 465 1080 q 612 1154 553 1154 q 718 1134 675 1154 q 787 1078 761 1114 q 825 992 814 1042 q 836 884 836 943 q 791 628 836 754 q 671 391 747 502 q 494 190 595 279 q 278 42 392 100 q 200 12 244 26 q 114 -1 156 -1 q 88 1 104 -1 q 57 7 72 3 q 31 21 42 12 q 19 42 19 30 m 519 1211 q 535 1237 528 1226 q 551 1258 543 1248 q 567 1280 559 1268 q 583 1309 575 1291 q 628 1371 605 1351 q 665 1389 651 1392 q 679 1362 680 1386 q 651 1295 678 1339 q 601 1230 628 1260 q 526 1190 574 1200 q 519 1199 522 1191 q 519 1211 517 1207 z "},"":{"ha":825,"x_min":19,"x_max":836,"o":"m 19 42 q 24 62 19 53 q 42 72 30 72 q 82 64 65 72 q 126 56 99 56 q 304 96 218 56 q 465 203 389 136 q 602 359 540 271 q 710 541 665 446 q 781 728 755 635 q 806 903 806 822 q 762 1059 806 1006 q 614 1112 718 1112 q 532 1077 568 1112 q 471 991 496 1042 q 433 888 446 941 q 419 799 419 834 q 454 671 419 724 q 563 597 488 618 l 533 585 q 522 588 532 583 q 498 599 511 593 q 470 613 484 605 q 448 627 456 621 q 388 704 401 655 q 374 802 374 753 q 390 910 374 849 q 435 1025 406 971 q 509 1117 465 1080 q 612 1154 553 1154 q 718 1134 675 1154 q 787 1078 761 1114 q 825 992 814 1042 q 836 884 836 943 q 791 628 836 754 q 671 391 747 502 q 494 190 595 279 q 278 42 392 100 q 200 12 244 26 q 114 -1 156 -1 q 88 1 104 -1 q 57 7 72 3 q 31 21 42 12 q 19 42 19 30 m 728 1238 q 715 1268 724 1246 q 696 1314 705 1290 q 677 1359 686 1337 q 665 1389 669 1381 q 653 1407 662 1394 q 642 1424 644 1420 q 601 1382 620 1412 q 564 1322 582 1352 q 528 1269 545 1293 q 488 1245 510 1245 q 475 1255 480 1245 q 504 1307 483 1272 q 552 1380 525 1341 q 609 1454 579 1419 q 665 1507 639 1489 q 667 1506 666 1507 q 670 1506 667 1506 l 674 1506 q 682 1450 674 1480 q 703 1391 690 1420 q 728 1335 715 1362 q 749 1291 741 1309 q 752 1284 749 1290 q 759 1274 755 1279 q 765 1262 762 1268 q 768 1255 768 1256 l 768 1253 q 768 1251 768 1252 q 769 1249 769 1251 q 761 1236 769 1242 q 742 1229 753 1229 q 728 1238 732 1229 z "},"":{"ha":825,"x_min":19,"x_max":836,"o":"m 19 42 q 24 62 19 53 q 42 72 30 72 q 82 64 65 72 q 126 56 99 56 q 304 96 218 56 q 465 203 389 136 q 602 359 540 271 q 710 541 665 446 q 781 728 755 635 q 806 903 806 822 q 762 1059 806 1006 q 614 1112 718 1112 q 532 1077 568 1112 q 471 991 496 1042 q 433 888 446 941 q 419 799 419 834 q 454 671 419 724 q 563 597 488 618 l 533 585 q 522 588 532 583 q 498 599 511 593 q 470 613 484 605 q 448 627 456 621 q 388 704 401 655 q 374 802 374 753 q 390 910 374 849 q 435 1025 406 971 q 509 1117 465 1080 q 612 1154 553 1154 q 718 1134 675 1154 q 787 1078 761 1114 q 825 992 814 1042 q 836 884 836 943 q 791 628 836 754 q 671 391 747 502 q 494 190 595 279 q 278 42 392 100 q 200 12 244 26 q 114 -1 156 -1 q 88 1 104 -1 q 57 7 72 3 q 31 21 42 12 q 19 42 19 30 m 479 1305 q 506 1289 490 1305 q 522 1260 522 1272 q 493 1225 513 1226 q 459 1238 473 1223 q 446 1273 445 1253 q 479 1305 446 1293 m 665 1305 q 692 1289 675 1305 q 708 1260 708 1272 q 679 1225 699 1226 q 646 1238 659 1223 q 633 1273 632 1253 q 665 1305 633 1293 z "},"":{"ha":975,"x_min":8,"x_max":1000,"o":"m 8 433 q 13 454 8 448 q 26 461 18 460 q 45 462 35 463 q 66 461 56 461 q 96 463 76 463 q 138 464 115 464 l 187 834 q 190 866 189 848 q 194 905 191 884 q 199 948 197 925 l 232 948 q 229 887 232 920 q 218 802 225 854 q 201 668 212 749 q 175 465 190 587 q 238 466 206 465 q 299 467 270 467 q 350 469 328 468 q 384 469 372 469 l 392 469 q 409 460 404 469 q 414 441 414 452 q 408 420 414 427 q 384 412 403 414 l 168 408 q 156 307 161 359 q 142 193 151 254 q 191 234 170 217 q 243 251 213 251 q 302 235 277 251 q 349 193 328 218 q 389 139 369 168 q 431 85 408 110 q 481 43 453 60 q 545 26 509 26 q 635 51 589 26 q 725 117 681 76 q 809 210 769 157 q 879 315 849 262 q 926 421 909 369 q 943 514 943 473 q 942 517 943 515 q 941 521 941 519 q 878 469 909 490 q 814 433 848 448 q 743 413 780 419 q 662 407 707 407 q 524 439 581 407 q 434 524 468 471 q 385 644 400 576 q 370 785 370 712 q 387 920 370 845 q 437 1063 403 996 q 526 1175 472 1130 q 656 1219 581 1219 q 764 1196 716 1219 q 850 1132 812 1172 q 916 1040 888 1092 q 962 931 944 987 q 989 819 981 875 q 998 713 998 762 q 988 574 1000 648 q 951 426 977 500 q 890 281 926 351 q 810 153 854 210 q 713 54 765 95 q 602 0 661 14 q 482 4 544 -14 q 357 79 420 22 q 317 139 334 109 q 271 193 301 170 q 256 203 267 197 q 243 208 245 209 q 183 164 203 198 q 149 92 163 130 q 120 22 134 53 q 76 -8 106 -8 l 88 65 l 132 407 l 23 406 q 10 416 12 404 q 8 433 8 427 m 412 779 q 427 650 412 711 q 472 546 441 590 q 553 475 503 502 q 678 449 604 449 q 812 468 757 442 q 900 541 867 494 q 945 652 933 589 q 951 785 958 716 q 923 922 945 854 q 864 1046 901 990 q 779 1141 827 1103 q 671 1191 730 1180 q 551 1147 600 1191 q 471 1039 502 1103 q 427 904 441 975 q 412 779 412 833 z "},"":{"ha":951,"x_min":18,"x_max":1232,"o":"m 804 79 q 804 114 804 90 q 804 167 804 138 q 803 221 803 195 q 803 256 803 247 q 810 411 803 335 q 825 564 817 487 q 842 716 834 640 q 849 869 849 792 l 849 963 l 363 506 q 358 461 362 494 q 350 392 354 429 q 341 323 346 355 q 335 278 336 290 q 311 189 330 239 q 264 96 293 140 q 198 22 236 53 q 113 -8 160 -8 q 45 21 72 -8 q 20 94 18 50 q 56 219 26 157 q 127 338 85 281 q 216 445 168 395 q 305 534 264 495 q 307 563 307 541 q 308 591 308 585 q 307 652 308 625 q 301 705 305 678 q 292 763 297 732 q 278 833 286 793 q 266 847 274 845 q 248 849 258 849 q 242 848 247 849 q 235 848 237 848 q 140 789 193 814 q 33 764 88 764 q 37 789 33 780 q 49 803 41 799 q 68 810 57 807 q 94 819 79 812 q 127 836 103 823 q 179 861 152 848 q 230 888 206 875 q 264 905 254 901 q 271 905 266 905 q 278 906 277 906 q 306 892 294 906 q 321 863 317 879 l 365 566 l 876 1061 l 905 1034 q 906 1021 905 1032 q 908 996 907 1009 q 909 970 909 983 q 910 947 910 956 q 899 775 910 860 q 877 606 888 690 q 855 435 865 521 q 845 264 845 350 q 846 233 845 255 q 847 185 846 210 q 848 138 848 160 q 849 107 849 115 q 1118 -136 878 -136 q 1141 -134 1124 -136 q 1175 -130 1157 -132 q 1209 -125 1194 -127 q 1232 -121 1225 -122 q 1202 -146 1221 -137 q 1164 -159 1184 -155 q 1122 -163 1143 -163 q 1084 -164 1100 -164 q 974 -149 1020 -164 q 895 -102 928 -133 q 840 -26 863 -72 q 804 79 818 19 m 76 103 q 76 83 76 95 q 78 60 76 71 q 87 43 80 50 q 106 35 94 35 q 173 58 142 35 q 226 119 203 81 q 264 202 248 156 q 290 295 281 248 q 304 382 300 342 q 309 449 309 422 l 293 449 q 280 439 290 449 q 256 415 270 429 q 229 387 241 401 q 208 363 216 373 q 161 308 184 339 q 120 243 138 277 q 89 173 102 209 q 76 103 76 137 m 439 1139 q 391 1120 412 1139 q 354 1081 370 1100 l 338 1081 q 347 1139 335 1116 q 378 1173 359 1161 q 418 1185 397 1184 q 450 1181 438 1187 q 498 1171 476 1181 q 542 1149 521 1161 q 586 1126 563 1137 q 637 1115 609 1115 q 678 1115 659 1115 q 713 1122 697 1115 q 738 1145 728 1128 q 747 1194 747 1161 q 736 1257 747 1238 q 692 1276 726 1276 q 705 1298 692 1295 q 730 1301 719 1301 q 777 1271 762 1301 q 792 1203 792 1241 q 779 1131 792 1158 q 745 1088 766 1104 q 696 1067 724 1073 q 637 1062 669 1062 q 583 1074 609 1062 q 534 1101 557 1086 q 488 1127 511 1115 q 439 1139 464 1139 z "},"":{"ha":766,"x_min":35,"x_max":819,"o":"m 35 435 q 35 474 35 449 q 35 522 35 499 q 36 564 35 545 q 37 585 37 582 q 40 614 37 589 q 47 671 43 639 q 56 734 52 703 q 64 784 61 765 q 79 845 68 806 q 106 924 90 884 q 149 991 123 963 q 208 1019 174 1019 l 208 997 q 102 722 127 863 q 76 425 76 581 q 79 320 76 368 q 96 230 83 273 q 136 149 110 187 q 208 71 161 110 q 231 58 221 60 q 255 57 240 57 q 397 96 332 57 q 514 197 463 136 q 600 330 566 258 q 647 469 633 403 q 467 482 540 463 q 348 549 393 502 q 283 671 302 595 q 263 854 263 747 q 267 945 263 891 q 280 1055 270 998 q 309 1168 290 1112 q 357 1269 328 1225 q 428 1341 387 1313 q 526 1369 469 1369 q 609 1339 574 1369 q 669 1268 644 1310 q 711 1179 694 1226 q 734 1097 727 1133 q 734 1055 734 1085 q 735 990 735 1024 q 735 926 735 956 q 735 883 735 895 q 727 718 735 798 q 719 556 719 639 l 719 541 l 819 585 l 819 576 q 804 556 819 566 q 785 545 800 553 q 753 528 770 537 q 722 511 736 519 q 704 499 707 503 q 695 476 701 495 q 682 435 689 457 q 669 393 675 412 q 662 369 663 373 q 598 241 635 305 q 512 127 562 178 q 401 45 463 76 q 263 14 339 14 q 136 58 180 14 q 68 166 91 102 q 40 304 45 231 q 35 435 35 377 m 304 817 q 318 705 304 762 q 361 602 332 648 q 436 527 391 556 q 547 498 481 498 q 578 497 560 498 q 613 498 595 496 q 644 507 631 500 q 662 526 658 513 q 668 553 663 534 q 677 592 673 571 q 685 631 681 613 q 692 655 689 648 l 692 670 q 694 722 692 680 q 698 812 696 764 q 702 901 700 860 q 704 954 704 943 q 698 1053 704 993 q 673 1170 692 1112 q 622 1272 655 1227 q 534 1325 589 1317 q 454 1301 488 1331 q 393 1223 419 1272 q 351 1112 368 1173 q 323 992 334 1051 q 308 885 312 933 q 304 817 304 837 m 509 1417 q 509 1406 511 1413 q 503 1397 506 1398 q 439 1434 463 1407 q 395 1495 416 1462 q 371 1556 372 1534 q 382 1581 370 1579 q 414 1565 395 1583 q 453 1506 434 1546 q 467 1480 460 1491 q 481 1460 475 1469 q 495 1441 488 1451 q 509 1417 502 1431 z "},"":{"ha":766,"x_min":35,"x_max":819,"o":"m 35 435 q 35 474 35 449 q 35 522 35 499 q 36 564 35 545 q 37 585 37 582 q 40 614 37 589 q 47 671 43 639 q 56 734 52 703 q 64 784 61 765 q 79 845 68 806 q 106 924 90 884 q 149 991 123 963 q 208 1019 174 1019 l 208 997 q 102 722 127 863 q 76 425 76 581 q 79 320 76 368 q 96 230 83 273 q 136 149 110 187 q 208 71 161 110 q 231 58 221 60 q 255 57 240 57 q 397 96 332 57 q 514 197 463 136 q 600 330 566 258 q 647 469 633 403 q 467 482 540 463 q 348 549 393 502 q 283 671 302 595 q 263 854 263 747 q 267 945 263 891 q 280 1055 270 998 q 309 1168 290 1112 q 357 1269 328 1225 q 428 1341 387 1313 q 526 1369 469 1369 q 609 1339 574 1369 q 669 1268 644 1310 q 711 1179 694 1226 q 734 1097 727 1133 q 734 1055 734 1085 q 735 990 735 1024 q 735 926 735 956 q 735 883 735 895 q 727 718 735 798 q 719 556 719 639 l 719 541 l 819 585 l 819 576 q 804 556 819 566 q 785 545 800 553 q 753 528 770 537 q 722 511 736 519 q 704 499 707 503 q 695 476 701 495 q 682 435 689 457 q 669 393 675 412 q 662 369 663 373 q 598 241 635 305 q 512 127 562 178 q 401 45 463 76 q 263 14 339 14 q 136 58 180 14 q 68 166 91 102 q 40 304 45 231 q 35 435 35 377 m 304 817 q 318 705 304 762 q 361 602 332 648 q 436 527 391 556 q 547 498 481 498 q 578 497 560 498 q 613 498 595 496 q 644 507 631 500 q 662 526 658 513 q 668 553 663 534 q 677 592 673 571 q 685 631 681 613 q 692 655 689 648 l 692 670 q 694 722 692 680 q 698 812 696 764 q 702 901 700 860 q 704 954 704 943 q 698 1053 704 993 q 673 1170 692 1112 q 622 1272 655 1227 q 534 1325 589 1317 q 454 1301 488 1331 q 393 1223 419 1272 q 351 1112 368 1173 q 323 992 334 1051 q 308 885 312 933 q 304 817 304 837 m 313 1392 q 329 1417 321 1407 q 345 1438 336 1428 q 361 1460 353 1449 q 377 1489 369 1472 q 422 1552 399 1531 q 459 1569 445 1572 q 473 1543 473 1567 q 445 1476 472 1519 q 395 1411 422 1440 q 320 1370 368 1381 q 313 1379 316 1371 q 313 1392 311 1388 z "},"":{"ha":766,"x_min":35,"x_max":819,"o":"m 35 435 q 35 474 35 449 q 35 522 35 499 q 36 564 35 545 q 37 585 37 582 q 40 614 37 589 q 47 671 43 639 q 56 734 52 703 q 64 784 61 765 q 79 845 68 806 q 106 924 90 884 q 149 991 123 963 q 208 1019 174 1019 l 208 997 q 102 722 127 863 q 76 425 76 581 q 79 320 76 368 q 96 230 83 273 q 136 149 110 187 q 208 71 161 110 q 231 58 221 60 q 255 57 240 57 q 397 96 332 57 q 514 197 463 136 q 600 330 566 258 q 647 469 633 403 q 467 482 540 463 q 348 549 393 502 q 283 671 302 595 q 263 854 263 747 q 267 945 263 891 q 280 1055 270 998 q 309 1168 290 1112 q 357 1269 328 1225 q 428 1341 387 1313 q 526 1369 469 1369 q 609 1339 574 1369 q 669 1268 644 1310 q 711 1179 694 1226 q 734 1097 727 1133 q 734 1055 734 1085 q 735 990 735 1024 q 735 926 735 956 q 735 883 735 895 q 727 718 735 798 q 719 556 719 639 l 719 541 l 819 585 l 819 576 q 804 556 819 566 q 785 545 800 553 q 753 528 770 537 q 722 511 736 519 q 704 499 707 503 q 695 476 701 495 q 682 435 689 457 q 669 393 675 412 q 662 369 663 373 q 598 241 635 305 q 512 127 562 178 q 401 45 463 76 q 263 14 339 14 q 136 58 180 14 q 68 166 91 102 q 40 304 45 231 q 35 435 35 377 m 304 817 q 318 705 304 762 q 361 602 332 648 q 436 527 391 556 q 547 498 481 498 q 578 497 560 498 q 613 498 595 496 q 644 507 631 500 q 662 526 658 513 q 668 553 663 534 q 677 592 673 571 q 685 631 681 613 q 692 655 689 648 l 692 670 q 694 722 692 680 q 698 812 696 764 q 702 901 700 860 q 704 954 704 943 q 698 1053 704 993 q 673 1170 692 1112 q 622 1272 655 1227 q 534 1325 589 1317 q 454 1301 488 1331 q 393 1223 419 1272 q 351 1112 368 1173 q 323 992 334 1051 q 308 885 312 933 q 304 817 304 837 m 533 1465 q 519 1495 529 1473 q 500 1540 510 1516 q 482 1586 491 1564 q 469 1615 473 1607 q 458 1634 467 1621 q 446 1651 449 1647 q 406 1609 425 1638 q 368 1549 387 1579 q 332 1495 350 1519 q 293 1472 315 1472 q 279 1481 285 1472 q 309 1533 288 1499 q 357 1607 330 1568 q 414 1681 384 1645 q 469 1733 444 1716 q 471 1733 471 1733 q 475 1732 472 1732 l 479 1732 q 487 1676 479 1706 q 507 1617 495 1647 q 532 1562 519 1588 q 553 1518 545 1535 q 557 1511 553 1516 q 564 1500 560 1506 q 570 1489 567 1495 q 572 1481 572 1482 l 572 1480 q 573 1478 572 1478 q 574 1476 574 1477 q 566 1462 574 1469 q 547 1455 557 1455 q 533 1465 537 1455 z "},"":{"ha":766,"x_min":35,"x_max":819,"o":"m 35 435 q 35 474 35 449 q 35 522 35 499 q 36 564 35 545 q 37 585 37 582 q 40 614 37 589 q 47 671 43 639 q 56 734 52 703 q 64 784 61 765 q 79 845 68 806 q 106 924 90 884 q 149 991 123 963 q 208 1019 174 1019 l 208 997 q 102 722 127 863 q 76 425 76 581 q 79 320 76 368 q 96 230 83 273 q 136 149 110 187 q 208 71 161 110 q 231 58 221 60 q 255 57 240 57 q 397 96 332 57 q 514 197 463 136 q 600 330 566 258 q 647 469 633 403 q 467 482 540 463 q 348 549 393 502 q 283 671 302 595 q 263 854 263 747 q 267 945 263 891 q 280 1055 270 998 q 309 1168 290 1112 q 357 1269 328 1225 q 428 1341 387 1313 q 526 1369 469 1369 q 609 1339 574 1369 q 669 1268 644 1310 q 711 1179 694 1226 q 734 1097 727 1133 q 734 1055 734 1085 q 735 990 735 1024 q 735 926 735 956 q 735 883 735 895 q 727 718 735 798 q 719 556 719 639 l 719 541 l 819 585 l 819 576 q 804 556 819 566 q 785 545 800 553 q 753 528 770 537 q 722 511 736 519 q 704 499 707 503 q 695 476 701 495 q 682 435 689 457 q 669 393 675 412 q 662 369 663 373 q 598 241 635 305 q 512 127 562 178 q 401 45 463 76 q 263 14 339 14 q 136 58 180 14 q 68 166 91 102 q 40 304 45 231 q 35 435 35 377 m 304 817 q 318 705 304 762 q 361 602 332 648 q 436 527 391 556 q 547 498 481 498 q 578 497 560 498 q 613 498 595 496 q 644 507 631 500 q 662 526 658 513 q 668 553 663 534 q 677 592 673 571 q 685 631 681 613 q 692 655 689 648 l 692 670 q 694 722 692 680 q 698 812 696 764 q 702 901 700 860 q 704 954 704 943 q 698 1053 704 993 q 673 1170 692 1112 q 622 1272 655 1227 q 534 1325 589 1317 q 454 1301 488 1331 q 393 1223 419 1272 q 351 1112 368 1173 q 323 992 334 1051 q 308 885 312 933 q 304 817 304 837 m 323 1484 q 275 1464 296 1484 q 237 1426 254 1444 l 221 1426 q 231 1483 218 1461 q 262 1517 243 1506 q 301 1530 281 1529 q 334 1526 321 1531 q 382 1516 359 1526 q 425 1493 404 1506 q 469 1470 446 1481 q 521 1459 492 1459 q 562 1459 543 1459 q 596 1466 581 1459 q 621 1489 612 1473 q 631 1538 631 1506 q 620 1602 631 1583 q 575 1621 609 1621 q 589 1643 575 1640 q 613 1645 602 1645 q 661 1615 646 1645 q 675 1548 675 1586 q 663 1476 675 1503 q 629 1433 650 1449 q 580 1412 608 1417 q 521 1407 552 1407 q 467 1419 492 1407 q 418 1445 441 1431 q 371 1472 395 1459 q 323 1484 347 1484 z "},"":{"ha":766,"x_min":35,"x_max":819,"o":"m 35 435 q 35 474 35 449 q 35 522 35 499 q 36 564 35 545 q 37 585 37 582 q 40 614 37 589 q 47 671 43 639 q 56 734 52 703 q 64 784 61 765 q 79 845 68 806 q 106 924 90 884 q 149 991 123 963 q 208 1019 174 1019 l 208 997 q 102 722 127 863 q 76 425 76 581 q 79 320 76 368 q 96 230 83 273 q 136 149 110 187 q 208 71 161 110 q 231 58 221 60 q 255 57 240 57 q 397 96 332 57 q 514 197 463 136 q 600 330 566 258 q 647 469 633 403 q 467 482 540 463 q 348 549 393 502 q 283 671 302 595 q 263 854 263 747 q 267 945 263 891 q 280 1055 270 998 q 309 1168 290 1112 q 357 1269 328 1225 q 428 1341 387 1313 q 526 1369 469 1369 q 609 1339 574 1369 q 669 1268 644 1310 q 711 1179 694 1226 q 734 1097 727 1133 q 734 1055 734 1085 q 735 990 735 1024 q 735 926 735 956 q 735 883 735 895 q 727 718 735 798 q 719 556 719 639 l 719 541 l 819 585 l 819 576 q 804 556 819 566 q 785 545 800 553 q 753 528 770 537 q 722 511 736 519 q 704 499 707 503 q 695 476 701 495 q 682 435 689 457 q 669 393 675 412 q 662 369 663 373 q 598 241 635 305 q 512 127 562 178 q 401 45 463 76 q 263 14 339 14 q 136 58 180 14 q 68 166 91 102 q 40 304 45 231 q 35 435 35 377 m 304 817 q 318 705 304 762 q 361 602 332 648 q 436 527 391 556 q 547 498 481 498 q 578 497 560 498 q 613 498 595 496 q 644 507 631 500 q 662 526 658 513 q 668 553 663 534 q 677 592 673 571 q 685 631 681 613 q 692 655 689 648 l 692 670 q 694 722 692 680 q 698 812 696 764 q 702 901 700 860 q 704 954 704 943 q 698 1053 704 993 q 673 1170 692 1112 q 622 1272 655 1227 q 534 1325 589 1317 q 454 1301 488 1331 q 393 1223 419 1272 q 351 1112 368 1173 q 323 992 334 1051 q 308 885 312 933 q 304 817 304 837 m 372 1545 q 399 1529 382 1545 q 415 1500 415 1512 q 386 1465 406 1466 q 352 1478 366 1463 q 338 1513 338 1493 q 372 1545 339 1533 m 557 1545 q 585 1529 568 1545 q 601 1500 601 1512 q 572 1465 591 1466 q 538 1478 552 1463 q 526 1513 525 1493 q 557 1545 526 1533 z "},"":{"ha":766,"x_min":35,"x_max":819,"o":"m 37 76 q 37 80 37 77 q 39 92 37 83 q 48 119 42 102 q 66 167 54 136 q 40 304 45 232 q 35 435 35 377 q 35 474 35 449 q 35 522 35 499 q 36 564 35 545 q 37 585 37 582 q 40 614 37 589 q 47 671 43 639 q 56 734 52 703 q 64 784 61 765 q 79 845 68 806 q 106 924 90 884 q 149 991 123 963 q 208 1019 174 1019 l 208 997 q 102 722 127 863 q 76 425 76 581 q 79 321 76 368 q 95 233 81 275 q 169 397 122 297 q 289 648 216 498 q 263 854 263 728 q 267 945 263 891 q 280 1055 270 998 q 309 1168 290 1112 q 357 1269 328 1225 q 428 1341 387 1313 q 526 1369 469 1369 q 579 1357 555 1369 q 624 1326 604 1345 q 653 1381 639 1354 q 682 1440 667 1409 q 686 1442 684 1440 q 694 1444 692 1444 q 718 1430 704 1444 q 724 1369 731 1415 q 716 1345 722 1362 q 704 1312 711 1329 q 691 1282 697 1295 q 682 1267 685 1268 q 677 1257 680 1263 q 713 1174 699 1217 q 734 1097 727 1131 q 734 1055 734 1085 q 735 990 735 1024 q 735 926 735 956 q 735 883 735 895 q 727 718 735 798 q 719 556 719 639 l 719 541 l 819 585 l 819 576 q 804 556 819 566 q 785 545 800 553 q 753 528 770 537 q 722 511 736 519 q 704 499 707 503 q 695 476 701 495 q 682 435 689 457 q 669 393 675 412 q 662 369 663 373 q 598 241 635 305 q 512 127 562 178 q 401 45 463 76 q 263 14 339 14 q 165 37 205 14 q 100 98 126 60 q 81 49 91 73 q 64 1 72 24 q 61 0 62 0 q 58 -1 60 -1 l 57 -1 q 41 24 46 -1 q 37 76 37 49 m 647 469 q 438 490 518 461 q 315 589 358 518 q 219 380 267 486 q 126 163 171 274 q 208 71 155 115 q 231 58 221 60 q 255 57 240 57 q 397 96 332 57 q 514 197 463 136 q 600 330 566 258 q 647 469 633 403 m 704 954 q 702 1010 704 978 q 694 1079 700 1043 q 680 1152 689 1115 q 654 1221 670 1190 q 496 941 575 1086 q 340 640 418 796 q 418 538 368 578 q 547 498 469 498 q 578 497 560 498 q 613 498 595 496 q 644 507 631 500 q 662 526 658 513 q 668 553 663 534 q 677 592 673 571 q 685 631 681 613 q 692 655 689 648 l 692 670 q 694 722 692 680 q 698 812 696 764 q 702 901 700 860 q 704 954 704 943 m 304 817 q 317 705 304 760 q 445 965 374 822 q 605 1289 515 1108 q 573 1313 590 1303 q 534 1325 556 1322 q 454 1301 488 1331 q 393 1223 419 1272 q 351 1112 368 1173 q 323 992 334 1051 q 308 885 312 933 q 304 817 304 837 z "},"":{"ha":1142,"x_min":27,"x_max":1198,"o":"m 197 258 q 197 272 197 263 q 197 290 197 281 q 199 305 198 298 q 199 313 199 312 l 286 841 l 286 898 q 248 879 266 884 q 212 871 229 873 q 178 868 195 868 q 138 868 161 868 q 115 867 133 868 q 78 869 98 867 q 43 880 58 872 q 27 905 27 887 q 28 909 27 906 q 30 913 30 911 q 64 934 49 926 q 100 941 79 941 q 106 937 103 941 q 100 913 110 933 q 121 911 106 911 q 142 910 137 910 q 199 920 172 910 q 252 941 227 929 q 304 964 278 954 q 357 974 330 974 l 357 940 l 241 285 l 241 264 q 249 201 241 236 q 273 134 256 165 q 316 79 290 102 q 378 57 342 57 q 420 66 400 57 q 458 92 441 76 q 489 124 475 107 q 514 157 503 141 q 590 293 560 224 q 646 433 620 362 q 701 574 673 503 q 769 712 728 644 l 842 997 q 850 1008 844 1005 q 863 1012 856 1012 q 881 1000 878 1012 q 884 977 884 987 q 873 851 884 914 q 848 724 861 788 q 823 597 834 661 q 811 469 811 533 q 820 336 811 404 q 857 213 829 269 q 935 121 884 157 q 1067 84 986 84 q 1129 94 1107 84 q 1181 127 1152 104 q 1191 122 1184 127 q 1198 114 1198 117 q 1182 75 1198 90 q 1145 53 1166 60 q 1101 44 1123 46 q 1062 42 1078 42 q 934 69 986 42 q 848 140 882 96 q 797 243 814 184 q 772 366 780 302 q 766 493 765 429 q 769 613 766 557 q 754 572 765 600 q 730 511 743 545 q 701 440 716 477 q 670 370 685 403 q 644 310 655 336 q 627 271 632 283 q 585 188 609 233 q 530 104 562 142 q 459 40 499 66 q 369 14 419 14 q 286 36 320 14 q 233 94 252 58 q 205 172 214 129 q 197 258 197 216 m 663 1097 q 663 1086 666 1093 q 658 1077 661 1078 q 594 1114 617 1086 q 549 1175 571 1142 q 526 1236 526 1214 q 537 1261 525 1259 q 569 1244 549 1263 q 608 1185 589 1226 q 622 1160 614 1171 q 636 1140 629 1149 q 650 1121 643 1131 q 663 1097 656 1111 z "},"":{"ha":1142,"x_min":27,"x_max":1198,"o":"m 197 258 q 197 272 197 263 q 197 290 197 281 q 199 305 198 298 q 199 313 199 312 l 286 841 l 286 898 q 248 879 266 884 q 212 871 229 873 q 178 868 195 868 q 138 868 161 868 q 115 867 133 868 q 78 869 98 867 q 43 880 58 872 q 27 905 27 887 q 28 909 27 906 q 30 913 30 911 q 64 934 49 926 q 100 941 79 941 q 106 937 103 941 q 100 913 110 933 q 121 911 106 911 q 142 910 137 910 q 199 920 172 910 q 252 941 227 929 q 304 964 278 954 q 357 974 330 974 l 357 940 l 241 285 l 241 264 q 249 201 241 236 q 273 134 256 165 q 316 79 290 102 q 378 57 342 57 q 420 66 400 57 q 458 92 441 76 q 489 124 475 107 q 514 157 503 141 q 590 293 560 224 q 646 433 620 362 q 701 574 673 503 q 769 712 728 644 l 842 997 q 850 1008 844 1005 q 863 1012 856 1012 q 881 1000 878 1012 q 884 977 884 987 q 873 851 884 914 q 848 724 861 788 q 823 597 834 661 q 811 469 811 533 q 820 336 811 404 q 857 213 829 269 q 935 121 884 157 q 1067 84 986 84 q 1129 94 1107 84 q 1181 127 1152 104 q 1191 122 1184 127 q 1198 114 1198 117 q 1182 75 1198 90 q 1145 53 1166 60 q 1101 44 1123 46 q 1062 42 1078 42 q 934 69 986 42 q 848 140 882 96 q 797 243 814 184 q 772 366 780 302 q 766 493 765 429 q 769 613 766 557 q 754 572 765 600 q 730 511 743 545 q 701 440 716 477 q 670 370 685 403 q 644 310 655 336 q 627 271 632 283 q 585 188 609 233 q 530 104 562 142 q 459 40 499 66 q 369 14 419 14 q 286 36 320 14 q 233 94 252 58 q 205 172 214 129 q 197 258 197 216 m 533 1114 q 549 1139 541 1128 q 564 1160 556 1150 q 581 1182 572 1171 q 597 1211 589 1194 q 642 1274 618 1253 q 679 1291 665 1294 q 692 1265 693 1289 q 665 1198 692 1241 q 614 1133 642 1162 q 540 1092 587 1103 q 533 1101 536 1093 q 533 1114 530 1109 z "},"":{"ha":1142,"x_min":27,"x_max":1198,"o":"m 197 258 q 197 272 197 263 q 197 290 197 281 q 199 305 198 298 q 199 313 199 312 l 286 841 l 286 898 q 248 879 266 884 q 212 871 229 873 q 178 868 195 868 q 138 868 161 868 q 115 867 133 868 q 78 869 98 867 q 43 880 58 872 q 27 905 27 887 q 28 909 27 906 q 30 913 30 911 q 64 934 49 926 q 100 941 79 941 q 106 937 103 941 q 100 913 110 933 q 121 911 106 911 q 142 910 137 910 q 199 920 172 910 q 252 941 227 929 q 304 964 278 954 q 357 974 330 974 l 357 940 l 241 285 l 241 264 q 249 201 241 236 q 273 134 256 165 q 316 79 290 102 q 378 57 342 57 q 420 66 400 57 q 458 92 441 76 q 489 124 475 107 q 514 157 503 141 q 590 293 560 224 q 646 433 620 362 q 701 574 673 503 q 769 712 728 644 l 842 997 q 850 1008 844 1005 q 863 1012 856 1012 q 881 1000 878 1012 q 884 977 884 987 q 873 851 884 914 q 848 724 861 788 q 823 597 834 661 q 811 469 811 533 q 820 336 811 404 q 857 213 829 269 q 935 121 884 157 q 1067 84 986 84 q 1129 94 1107 84 q 1181 127 1152 104 q 1191 122 1184 127 q 1198 114 1198 117 q 1182 75 1198 90 q 1145 53 1166 60 q 1101 44 1123 46 q 1062 42 1078 42 q 934 69 986 42 q 848 140 882 96 q 797 243 814 184 q 772 366 780 302 q 766 493 765 429 q 769 613 766 557 q 754 572 765 600 q 730 511 743 545 q 701 440 716 477 q 670 370 685 403 q 644 310 655 336 q 627 271 632 283 q 585 188 609 233 q 530 104 562 142 q 459 40 499 66 q 369 14 419 14 q 286 36 320 14 q 233 94 252 58 q 205 172 214 129 q 197 258 197 216 m 700 1090 q 686 1120 696 1099 q 667 1166 677 1142 q 649 1211 658 1190 q 636 1241 640 1233 q 625 1259 633 1246 q 613 1276 616 1272 q 572 1234 591 1264 q 535 1175 553 1204 q 499 1121 517 1145 q 460 1097 481 1097 q 446 1107 452 1097 q 475 1159 454 1124 q 524 1232 496 1194 q 581 1306 551 1271 q 636 1359 610 1341 q 638 1358 637 1359 q 642 1358 639 1358 l 646 1358 q 654 1302 646 1332 q 674 1243 662 1272 q 699 1187 686 1214 q 720 1143 712 1161 q 724 1137 720 1142 q 730 1126 727 1131 q 736 1114 734 1120 q 739 1107 739 1108 l 739 1105 q 740 1103 739 1104 q 741 1101 741 1103 q 732 1088 741 1095 q 713 1081 724 1081 q 700 1090 704 1081 z "},"":{"ha":1142,"x_min":27,"x_max":1198,"o":"m 197 258 q 197 272 197 263 q 197 290 197 281 q 199 305 198 298 q 199 313 199 312 l 286 841 l 286 898 q 248 879 266 884 q 212 871 229 873 q 178 868 195 868 q 138 868 161 868 q 115 867 133 868 q 78 869 98 867 q 43 880 58 872 q 27 905 27 887 q 28 909 27 906 q 30 913 30 911 q 64 934 49 926 q 100 941 79 941 q 106 937 103 941 q 100 913 110 933 q 121 911 106 911 q 142 910 137 910 q 199 920 172 910 q 252 941 227 929 q 304 964 278 954 q 357 974 330 974 l 357 940 l 241 285 l 241 264 q 249 201 241 236 q 273 134 256 165 q 316 79 290 102 q 378 57 342 57 q 420 66 400 57 q 458 92 441 76 q 489 124 475 107 q 514 157 503 141 q 590 293 560 224 q 646 433 620 362 q 701 574 673 503 q 769 712 728 644 l 842 997 q 850 1008 844 1005 q 863 1012 856 1012 q 881 1000 878 1012 q 884 977 884 987 q 873 851 884 914 q 848 724 861 788 q 823 597 834 661 q 811 469 811 533 q 820 336 811 404 q 857 213 829 269 q 935 121 884 157 q 1067 84 986 84 q 1129 94 1107 84 q 1181 127 1152 104 q 1191 122 1184 127 q 1198 114 1198 117 q 1182 75 1198 90 q 1145 53 1166 60 q 1101 44 1123 46 q 1062 42 1078 42 q 934 69 986 42 q 848 140 882 96 q 797 243 814 184 q 772 366 780 302 q 766 493 765 429 q 769 613 766 557 q 754 572 765 600 q 730 511 743 545 q 701 440 716 477 q 670 370 685 403 q 644 310 655 336 q 627 271 632 283 q 585 188 609 233 q 530 104 562 142 q 459 40 499 66 q 369 14 419 14 q 286 36 320 14 q 233 94 252 58 q 205 172 214 129 q 197 258 197 216 m 529 1180 q 556 1164 540 1180 q 572 1135 572 1147 q 543 1100 563 1101 q 509 1114 524 1099 q 496 1148 495 1128 q 529 1180 496 1168 m 715 1180 q 742 1164 726 1180 q 758 1135 758 1147 q 729 1100 749 1101 q 696 1114 709 1099 q 683 1148 682 1128 q 715 1180 684 1168 z "},"":{"ha":902,"x_min":50,"x_max":859,"o":"m 98 -286 q 66 -229 77 -259 q 53 -175 56 -198 q 55 -138 50 -152 q 71 -130 60 -123 q 100 -168 83 -137 q 141 -264 118 -198 q 278 -471 214 -404 q 399 -548 342 -537 q 504 -519 456 -559 q 592 -407 552 -480 q 664 -234 632 -334 q 719 -23 696 -134 q 755 202 742 88 q 773 419 769 316 q 711 286 750 334 q 627 230 671 239 q 538 250 582 221 q 463 347 495 279 q 416 522 430 415 q 416 774 403 629 q 383 761 403 772 q 343 736 363 750 q 302 709 323 722 q 264 691 281 697 q 236 688 247 685 q 224 712 225 692 q 267 736 243 720 q 317 770 292 753 q 368 801 343 787 q 411 821 392 815 q 443 823 430 827 q 458 796 456 818 q 462 706 463 755 q 462 606 461 656 q 467 504 463 555 q 487 410 472 453 q 529 335 502 368 q 601 288 556 302 q 697 343 661 301 q 753 441 734 385 q 782 564 773 498 q 796 696 791 631 q 808 821 802 762 q 829 921 814 879 l 859 910 q 840 533 854 720 q 800 176 825 346 q 739 -140 774 5 q 657 -391 704 -286 q 553 -554 610 -496 q 425 -606 495 -612 q 273 -524 355 -600 q 98 -286 191 -449 m 545 1024 q 561 1050 553 1039 q 576 1071 568 1061 q 593 1093 585 1081 q 609 1122 601 1104 q 654 1184 631 1164 q 691 1202 677 1204 q 705 1175 705 1199 q 677 1108 704 1152 q 627 1043 654 1073 q 552 1002 600 1013 q 545 1012 548 1004 q 545 1024 543 1020 z "},"":{"ha":605,"x_min":-1,"x_max":678,"o":"m 94 -4 q 23 39 45 9 q 0 105 1 68 q 16 184 -1 142 q 63 266 34 227 q 130 337 92 305 q 210 387 168 369 q 296 406 252 406 q 378 382 339 407 q 353 309 365 349 q 336 228 342 269 q 335 149 331 187 q 357 81 339 110 q 412 33 374 52 q 509 15 449 15 q 564 30 545 20 q 597 53 583 39 q 627 84 612 66 q 671 123 642 102 l 678 123 q 656 50 674 77 q 612 6 639 22 q 553 -14 586 -9 q 483 -19 519 -19 q 339 18 392 -19 q 279 138 286 54 q 256 96 275 122 q 211 47 237 71 q 153 8 184 23 q 94 -4 122 -7 m 47 114 q 49 85 47 99 q 56 61 50 72 q 71 44 61 50 q 100 38 81 38 q 172 72 136 39 q 238 149 209 104 q 286 241 267 193 q 307 321 304 289 q 254 353 290 351 q 178 328 218 354 q 100 247 137 301 q 47 114 64 193 m 313 524 q 313 512 316 519 q 308 503 311 505 q 244 541 267 513 q 199 601 221 568 q 176 663 176 640 q 187 687 175 685 q 219 671 199 689 q 258 612 239 652 q 272 586 264 597 q 286 566 279 575 q 300 547 293 557 q 313 524 307 537 z "},"":{"ha":605,"x_min":-1,"x_max":678,"o":"m 168 484 q 184 511 176 500 q 199 531 191 521 q 216 553 208 541 q 232 582 224 566 q 277 645 254 625 q 314 662 300 665 q 328 636 328 659 q 300 570 327 613 q 250 503 277 533 q 175 463 222 473 q 168 472 171 464 q 168 484 165 480 m 94 -4 q 23 39 45 9 q 0 105 1 68 q 16 184 -1 142 q 63 266 34 227 q 130 337 92 305 q 210 387 168 369 q 296 406 252 406 q 378 382 339 407 q 353 309 365 349 q 336 228 342 269 q 335 149 331 187 q 357 81 339 110 q 412 33 374 52 q 509 15 449 15 q 564 30 545 20 q 597 53 583 39 q 627 84 612 66 q 671 123 642 102 l 678 123 q 656 50 674 77 q 612 6 639 22 q 553 -14 586 -9 q 483 -19 519 -19 q 339 18 392 -19 q 279 138 286 54 q 256 96 275 122 q 211 47 237 71 q 153 8 184 23 q 94 -4 122 -7 m 47 114 q 49 85 47 99 q 56 61 50 72 q 71 44 61 50 q 100 38 81 38 q 172 72 136 39 q 238 149 209 104 q 286 241 267 193 q 307 321 304 289 q 254 353 290 351 q 178 328 218 354 q 100 247 137 301 q 47 114 64 193 z "},"":{"ha":605,"x_min":-1,"x_max":678,"o":"m 94 -4 q 23 39 45 9 q 0 105 1 68 q 16 184 -1 142 q 63 266 34 227 q 130 337 92 305 q 210 387 168 369 q 296 406 252 406 q 378 382 339 407 q 353 309 365 349 q 336 228 342 269 q 335 149 331 187 q 357 81 339 110 q 412 33 374 52 q 509 15 449 15 q 564 30 545 20 q 597 53 583 39 q 627 84 612 66 q 671 123 642 102 l 678 123 q 656 50 674 77 q 612 6 639 22 q 553 -14 586 -9 q 483 -19 519 -19 q 339 18 392 -19 q 279 138 286 54 q 256 96 275 122 q 211 47 237 71 q 153 8 184 23 q 94 -4 122 -7 m 47 114 q 49 85 47 99 q 56 61 50 72 q 71 44 61 50 q 100 38 81 38 q 172 72 136 39 q 238 149 209 104 q 286 241 267 193 q 307 321 304 289 q 254 353 290 351 q 178 328 218 354 q 100 247 137 301 q 47 114 64 193 m 369 457 q 355 487 365 465 q 336 532 346 509 q 318 578 327 556 q 305 608 309 600 q 294 626 302 613 q 282 643 285 639 q 241 601 260 631 q 204 541 222 571 q 168 488 186 511 q 129 464 151 464 q 115 473 121 464 q 144 526 123 491 q 193 599 165 560 q 250 673 220 637 q 305 726 279 708 q 307 725 307 726 q 311 724 308 724 l 315 724 q 323 669 315 699 q 343 610 331 639 q 368 554 355 581 q 389 510 381 528 q 393 503 389 509 q 399 492 396 498 q 406 481 403 487 q 408 473 408 475 l 408 472 q 409 470 408 471 q 410 468 410 469 q 401 454 410 461 q 382 448 393 448 q 369 457 373 448 z "},"":{"ha":605,"x_min":-1,"x_max":678,"o":"m 94 -4 q 23 39 45 9 q 0 105 1 68 q 16 184 -1 142 q 63 266 34 227 q 130 337 92 305 q 210 387 168 369 q 296 406 252 406 q 378 382 339 407 q 353 309 365 349 q 336 228 342 269 q 335 149 331 187 q 357 81 339 110 q 412 33 374 52 q 509 15 449 15 q 564 30 545 20 q 597 53 583 39 q 627 84 612 66 q 671 123 642 102 l 678 123 q 656 50 674 77 q 612 6 639 22 q 553 -14 586 -9 q 483 -19 519 -19 q 339 18 392 -19 q 279 138 286 54 q 256 96 275 122 q 211 47 237 71 q 153 8 184 23 q 94 -4 122 -7 m 47 114 q 49 85 47 99 q 56 61 50 72 q 71 44 61 50 q 100 38 81 38 q 172 72 136 39 q 238 149 209 104 q 286 241 267 193 q 307 321 304 289 q 254 353 290 351 q 178 328 218 354 q 100 247 137 301 q 47 114 64 193 m 167 538 q 119 519 140 538 q 81 480 98 499 l 65 480 q 75 538 62 515 q 106 572 87 560 q 145 585 125 583 q 178 581 165 586 q 226 570 203 581 q 269 548 248 560 q 313 525 290 536 q 365 514 336 514 q 406 514 387 514 q 440 521 425 514 q 465 544 456 528 q 475 593 475 560 q 464 656 475 637 q 419 675 453 675 q 433 697 419 694 q 457 700 446 700 q 505 670 490 700 q 519 602 519 640 q 507 530 519 557 q 473 488 494 503 q 424 467 452 472 q 365 461 396 461 q 311 473 336 461 q 262 500 285 486 q 215 526 239 514 q 167 538 191 538 z "},"":{"ha":605,"x_min":-1,"x_max":678,"o":"m 94 -4 q 23 39 45 9 q 0 105 1 68 q 16 184 -1 142 q 63 266 34 227 q 130 337 92 305 q 210 387 168 369 q 296 406 252 406 q 378 382 339 407 q 353 309 365 349 q 336 228 342 269 q 335 149 331 187 q 357 81 339 110 q 412 33 374 52 q 509 15 449 15 q 564 30 545 20 q 597 53 583 39 q 627 84 612 66 q 671 123 642 102 l 678 123 q 656 50 674 77 q 612 6 639 22 q 553 -14 586 -9 q 483 -19 519 -19 q 339 18 392 -19 q 279 138 286 54 q 256 96 275 122 q 211 47 237 71 q 153 8 184 23 q 94 -4 122 -7 m 47 114 q 49 85 47 99 q 56 61 50 72 q 71 44 61 50 q 100 38 81 38 q 172 72 136 39 q 238 149 209 104 q 286 241 267 193 q 307 321 304 289 q 254 353 290 351 q 178 328 218 354 q 100 247 137 301 q 47 114 64 193 m 171 581 q 198 564 182 581 q 214 536 214 548 q 185 500 205 502 q 151 514 165 499 q 138 549 137 529 q 171 581 138 568 m 357 581 q 384 564 368 581 q 400 536 400 548 q 371 500 391 502 q 338 514 351 499 q 325 549 324 529 q 357 581 326 568 z "},"":{"ha":605,"x_min":-1,"x_max":678,"o":"m 94 -4 q 23 39 45 9 q 0 105 1 68 q 16 184 -1 142 q 63 266 34 227 q 130 337 92 305 q 210 387 168 369 q 296 406 252 406 q 378 382 339 407 q 353 309 365 349 q 336 228 342 269 q 335 149 331 187 q 357 81 339 110 q 412 33 374 52 q 509 15 449 15 q 564 30 545 20 q 597 53 583 39 q 627 84 612 66 q 671 123 642 102 l 678 123 q 656 50 674 77 q 612 6 639 22 q 553 -14 586 -9 q 483 -19 519 -19 q 339 18 392 -19 q 279 138 286 54 q 256 96 275 122 q 211 47 237 71 q 153 8 184 23 q 94 -4 122 -7 m 47 114 q 49 85 47 99 q 56 61 50 72 q 71 44 61 50 q 100 38 81 38 q 172 72 136 39 q 238 149 209 104 q 286 241 267 193 q 307 321 304 289 q 254 353 290 351 q 178 328 218 354 q 100 247 137 301 q 47 114 64 193 m 275 388 q 216 416 241 388 q 193 484 190 444 q 220 561 193 533 q 290 589 247 589 q 354 571 327 589 q 381 506 381 553 q 350 421 381 454 q 275 388 319 388 m 208 483 q 232 428 208 446 q 285 410 256 410 q 307 415 294 410 q 333 429 320 420 q 354 448 346 437 q 362 475 362 460 q 361 522 368 505 q 344 549 355 540 q 318 562 332 559 q 296 566 304 564 q 233 545 259 566 q 208 483 208 525 z "},"":{"ha":503,"x_min":4,"x_max":528,"o":"m 518 106 q 243 12 349 30 q 83 16 138 -5 q 16 86 27 38 q 22 189 4 134 q 79 295 39 244 q 170 371 119 346 q 272 385 220 396 q 363 305 324 373 l 363 300 q 350 286 361 296 q 336 273 339 275 q 290 328 317 312 q 230 338 262 343 q 167 312 198 334 q 111 258 136 290 q 71 184 85 225 q 56 100 56 142 q 93 60 65 71 q 157 52 121 50 q 238 65 194 54 q 325 90 282 76 q 407 117 368 104 q 474 134 446 129 q 515 134 502 140 q 518 106 528 129 m 155 -298 q 165 -254 155 -275 q 205 -233 176 -233 q 220 -235 213 -233 q 227 -245 227 -237 l 227 -247 q 225 -250 227 -248 l 186 -290 q 184 -297 184 -292 q 203 -334 184 -320 q 241 -349 222 -349 q 300 -341 269 -349 q 360 -317 332 -334 q 406 -275 388 -300 q 425 -218 425 -251 q 388 -130 425 -157 q 293 -102 351 -102 q 243 -110 267 -102 q 194 -118 220 -118 l 178 -118 q 176 -102 178 -114 q 171 -77 174 -91 q 166 -52 168 -64 q 163 -37 164 -41 q 163 16 155 -1 q 182 30 171 34 q 203 2 194 26 q 202 -69 212 -22 q 208 -76 202 -76 q 218 -76 214 -76 q 261 -72 240 -76 q 305 -68 282 -68 q 418 -107 373 -68 q 464 -217 464 -146 q 443 -287 464 -256 q 390 -338 422 -317 q 321 -370 358 -359 q 250 -381 283 -381 l 202 -381 q 166 -347 178 -369 q 155 -298 155 -324 z "},"":{"ha":491,"x_min":-4,"x_max":519,"o":"m 0 159 q 10 267 -4 209 q 55 372 24 324 q 130 453 85 420 q 228 486 175 486 q 259 474 247 486 q 271 444 271 463 q 248 355 271 399 q 190 273 224 312 q 119 199 156 233 q 57 141 81 165 q 56 135 57 140 q 56 127 56 130 q 68 90 56 106 q 98 63 80 73 q 138 47 117 53 q 176 42 159 42 q 271 52 231 42 q 347 83 312 62 q 412 134 381 104 q 475 201 442 164 q 486 217 484 212 q 489 227 488 222 q 492 234 490 231 q 505 244 495 237 q 517 232 515 240 q 519 216 519 224 q 475 132 509 176 q 393 52 441 88 q 290 -7 346 15 q 180 -22 235 -30 q 79 26 126 -15 q 0 159 31 68 m 231 430 q 165 410 197 430 q 109 359 133 389 q 69 292 84 328 q 54 228 54 256 q 55 213 54 225 q 57 198 56 201 q 112 238 81 212 q 169 297 142 264 q 213 364 195 330 q 231 430 231 399 m 195 644 q 195 633 198 640 q 190 624 193 625 q 126 661 149 633 q 81 722 103 689 q 58 783 58 761 q 69 808 57 806 q 101 791 81 810 q 140 732 121 773 q 154 707 146 718 q 168 687 161 696 q 182 668 175 678 q 195 644 189 658 z "},"":{"ha":491,"x_min":-4,"x_max":519,"o":"m 0 159 q 10 267 -4 209 q 55 372 24 324 q 130 453 85 420 q 228 486 175 486 q 259 474 247 486 q 271 444 271 463 q 248 355 271 399 q 190 273 224 312 q 119 199 156 233 q 57 141 81 165 q 56 135 57 140 q 56 127 56 130 q 68 90 56 106 q 98 63 80 73 q 138 47 117 53 q 176 42 159 42 q 271 52 231 42 q 347 83 312 62 q 412 134 381 104 q 475 201 442 164 q 486 217 484 212 q 489 227 488 222 q 492 234 490 231 q 505 244 495 237 q 517 232 515 240 q 519 216 519 224 q 475 132 509 176 q 393 52 441 88 q 290 -7 346 15 q 180 -22 235 -30 q 79 26 126 -15 q 0 159 31 68 m 231 430 q 165 410 197 430 q 109 359 133 389 q 69 292 84 328 q 54 228 54 256 q 55 213 54 225 q 57 198 56 201 q 112 238 81 212 q 169 297 142 264 q 213 364 195 330 q 231 430 231 399 m 122 570 q 138 595 130 585 q 153 616 145 606 q 170 638 161 627 q 186 667 178 650 q 231 730 208 709 q 268 747 254 750 q 281 721 282 745 q 254 654 281 697 q 203 589 231 618 q 129 548 176 559 q 122 557 125 549 q 122 570 119 566 z "},"":{"ha":491,"x_min":-4,"x_max":519,"o":"m 0 159 q 10 267 -4 209 q 55 372 24 324 q 130 453 85 420 q 228 486 175 486 q 259 474 247 486 q 271 444 271 463 q 248 355 271 399 q 190 273 224 312 q 119 199 156 233 q 57 141 81 165 q 56 135 57 140 q 56 127 56 130 q 68 90 56 106 q 98 63 80 73 q 138 47 117 53 q 176 42 159 42 q 271 52 231 42 q 347 83 312 62 q 412 134 381 104 q 475 201 442 164 q 486 217 484 212 q 489 227 488 222 q 492 234 490 231 q 505 244 495 237 q 517 232 515 240 q 519 216 519 224 q 475 132 509 176 q 393 52 441 88 q 290 -7 346 15 q 180 -22 235 -30 q 79 26 126 -15 q 0 159 31 68 m 231 430 q 165 410 197 430 q 109 359 133 389 q 69 292 84 328 q 54 228 54 256 q 55 213 54 225 q 57 198 56 201 q 112 238 81 212 q 169 297 142 264 q 213 364 195 330 q 231 430 231 399 m 305 563 q 292 593 301 571 q 273 638 282 614 q 254 684 263 662 q 241 713 245 705 q 230 732 239 719 q 218 749 221 745 q 178 707 197 736 q 140 647 159 677 q 104 593 122 617 q 65 570 87 570 q 52 579 57 570 q 81 631 60 597 q 129 705 102 666 q 186 779 156 743 q 241 831 216 814 q 243 831 243 831 q 247 830 244 830 l 251 830 q 259 774 251 804 q 279 715 267 745 q 304 660 292 686 q 326 616 317 633 q 329 609 326 614 q 336 598 332 604 q 342 587 339 593 q 345 579 345 581 l 345 578 q 345 576 345 576 q 346 574 346 575 q 338 560 346 567 q 319 553 330 553 q 305 563 309 553 z "},"":{"ha":491,"x_min":-4,"x_max":519,"o":"m 0 159 q 10 267 -4 209 q 55 372 24 324 q 130 453 85 420 q 228 486 175 486 q 259 474 247 486 q 271 444 271 463 q 248 355 271 399 q 190 273 224 312 q 119 199 156 233 q 57 141 81 165 q 56 135 57 140 q 56 127 56 130 q 68 90 56 106 q 98 63 80 73 q 138 47 117 53 q 176 42 159 42 q 271 52 231 42 q 347 83 312 62 q 412 134 381 104 q 475 201 442 164 q 486 217 484 212 q 489 227 488 222 q 492 234 490 231 q 505 244 495 237 q 517 232 515 240 q 519 216 519 224 q 475 132 509 176 q 393 52 441 88 q 290 -7 346 15 q 180 -22 235 -30 q 79 26 126 -15 q 0 159 31 68 m 231 430 q 165 410 197 430 q 109 359 133 389 q 69 292 84 328 q 54 228 54 256 q 55 213 54 225 q 57 198 56 201 q 112 238 81 212 q 169 297 142 264 q 213 364 195 330 q 231 430 231 399 m 104 667 q 132 651 115 667 q 148 623 148 635 q 119 587 138 589 q 85 601 99 586 q 71 635 71 616 q 104 667 72 655 m 290 667 q 317 651 301 667 q 334 623 334 635 q 304 587 324 589 q 271 601 285 586 q 258 635 258 616 q 290 667 259 655 z "},"":{"ha":312,"x_min":8,"x_max":366,"o":"m 20 323 q 10 140 8 206 q 24 40 12 73 q 54 -3 35 7 q 92 -20 72 -14 q 178 -25 129 -34 q 269 -1 227 -16 q 338 34 311 15 q 361 60 366 53 q 312 57 357 66 q 164 7 267 47 q 111 18 133 7 q 75 48 90 30 q 55 91 61 66 q 49 140 49 115 q 64 276 49 212 q 106 407 79 340 q 100 432 109 426 q 77 438 91 438 q 54 420 64 438 q 38 382 45 403 q 26 343 31 361 q 20 323 22 326 m 194 578 q 194 566 197 574 q 189 557 191 559 q 125 595 149 567 q 80 655 102 623 q 56 717 57 694 q 68 741 56 739 q 100 725 80 743 q 138 667 119 707 q 153 640 146 651 q 167 621 160 629 q 180 602 174 612 q 194 578 187 591 z "},"":{"ha":312,"x_min":8,"x_max":366,"o":"m 20 323 q 26 343 22 326 q 38 382 31 361 q 54 420 45 403 q 77 438 64 438 q 100 432 91 438 q 106 407 109 426 q 64 276 79 340 q 49 140 49 212 q 55 91 49 115 q 75 48 61 66 q 111 18 90 30 q 164 7 133 7 q 312 57 267 47 q 361 60 357 66 q 338 34 366 53 q 269 -1 311 15 q 178 -25 227 -16 q 92 -20 129 -34 q 54 -3 72 -14 q 24 40 35 7 q 10 140 12 73 q 20 323 8 206 m 38 612 q 54 637 46 627 q 68 658 61 647 q 85 680 76 669 q 102 708 94 692 q 146 772 123 751 q 183 789 170 792 q 196 763 197 787 q 170 696 195 739 q 119 629 146 659 q 45 589 92 600 q 38 598 41 590 q 38 612 35 606 z "},"":{"ha":312,"x_min":-18,"x_max":366,"o":"m 20 323 q 26 343 22 326 q 38 382 31 361 q 54 420 45 403 q 77 438 64 438 q 100 432 91 438 q 106 407 109 426 q 64 276 79 340 q 49 140 49 212 q 55 91 49 115 q 75 48 61 66 q 111 18 90 30 q 164 7 133 7 q 312 57 267 47 q 361 60 357 66 q 338 34 366 53 q 269 -1 311 15 q 178 -25 227 -16 q 92 -20 129 -34 q 54 -3 72 -14 q 24 40 35 7 q 10 140 12 73 q 20 323 8 206 m 235 594 q 222 624 231 602 q 203 669 213 646 q 184 715 193 693 q 171 745 175 736 q 161 763 170 750 q 149 780 152 776 q 108 738 126 768 q 71 678 90 708 q 35 625 53 648 q -4 601 16 601 q -18 612 -12 601 q 12 663 -9 628 q 59 736 33 697 q 116 810 85 774 q 171 863 146 846 q 173 862 172 863 q 176 861 174 861 l 180 861 q 189 806 180 836 q 210 747 197 776 q 235 691 222 718 q 255 647 247 665 q 259 640 255 646 q 267 629 263 635 q 273 618 270 624 q 275 612 275 613 l 275 610 q 276 608 275 609 q 277 605 277 606 q 268 591 277 598 q 248 585 259 585 q 235 594 239 585 z "},"":{"ha":312,"x_min":4,"x_max":366,"o":"m 20 323 q 26 343 22 326 q 38 382 31 361 q 54 420 45 403 q 77 438 64 438 q 100 432 91 438 q 106 407 109 426 q 64 276 79 340 q 49 140 49 212 q 55 91 49 115 q 75 48 61 66 q 111 18 90 30 q 164 7 133 7 q 312 57 267 47 q 361 60 357 66 q 338 34 366 53 q 269 -1 311 15 q 178 -25 227 -16 q 92 -20 129 -34 q 54 -3 72 -14 q 24 40 35 7 q 10 140 12 73 q 20 323 8 206 m 38 675 q 64 659 49 675 q 80 631 80 643 q 52 595 71 597 q 18 609 33 594 q 5 644 4 624 q 38 675 5 663 m 224 675 q 251 659 235 675 q 267 631 267 643 q 237 595 256 597 q 204 609 218 594 q 191 644 190 624 q 224 675 191 663 z "},"":{"ha":650,"x_min":-1,"x_max":701,"o":"m 343 134 q 344 199 343 172 q 345 251 345 227 q 345 302 345 275 q 346 366 346 330 q 288 330 320 361 q 227 264 256 300 q 172 195 197 228 q 134 153 148 163 q 116 131 129 146 q 87 97 103 115 q 59 63 72 79 q 42 42 46 47 q 24 27 33 30 q -1 24 15 24 l -1 57 l 64 267 q 73 353 64 313 q 94 416 81 392 q 117 443 106 439 q 134 423 127 446 q 136 398 136 416 q 136 373 136 380 q 131 328 136 350 q 121 282 126 305 q 111 235 115 259 q 106 180 106 210 q 136 214 115 190 q 178 266 156 239 q 221 317 201 293 q 251 350 241 340 q 277 374 263 359 q 309 400 292 388 q 344 420 326 412 q 381 429 362 429 q 398 427 391 429 q 410 414 406 425 q 411 332 414 368 q 403 264 408 297 q 393 197 397 232 q 387 118 388 163 q 398 66 387 85 q 445 46 410 46 q 525 68 490 46 q 589 123 560 91 q 645 189 618 155 q 701 247 671 222 l 701 232 q 674 154 701 194 q 606 81 647 114 q 519 26 566 47 q 437 4 473 4 l 388 4 q 359 32 368 18 q 347 61 350 46 q 343 94 343 76 q 343 134 343 113 m 195 663 q 147 644 168 663 q 110 605 126 624 l 94 605 q 103 663 91 640 q 134 696 115 685 q 174 709 153 708 q 206 705 194 711 q 254 695 232 705 q 298 673 277 685 q 342 650 319 661 q 393 639 365 639 q 434 639 415 639 q 469 646 453 639 q 494 669 484 652 q 503 718 503 685 q 492 781 503 762 q 448 800 481 800 q 461 822 448 819 q 486 825 475 825 q 533 795 518 825 q 548 727 548 765 q 535 655 548 682 q 501 612 522 628 q 452 591 480 597 q 393 586 425 586 q 339 598 365 586 q 290 625 313 610 q 243 651 267 639 q 195 663 220 663 z "},"":{"ha":579,"x_min":3,"x_max":651,"o":"m 3 134 q 18 216 3 170 q 61 302 34 262 q 125 372 88 343 q 205 400 161 400 q 233 395 221 400 q 252 369 244 391 q 176 334 213 357 q 110 283 138 312 q 64 216 81 254 q 47 134 47 179 q 49 100 47 117 q 56 72 50 84 q 74 52 62 60 q 106 45 85 45 q 191 60 159 45 q 252 113 222 76 q 238 161 239 136 q 237 212 237 186 q 243 279 237 237 q 262 360 248 321 q 300 427 277 399 q 358 456 323 456 q 395 450 378 456 q 423 426 412 444 q 424 414 423 422 q 425 398 425 407 q 425 380 425 389 q 426 369 426 372 q 421 311 426 336 q 407 260 416 285 q 383 211 397 236 q 353 156 369 186 q 368 155 355 156 q 382 155 380 155 q 448 163 414 155 q 515 183 481 171 q 580 211 548 195 q 639 240 612 227 l 651 227 q 490 137 581 170 q 311 99 400 104 l 178 18 q 135 3 161 4 q 91 3 109 3 q 44 14 61 3 q 18 43 27 24 q 5 85 8 61 q 3 134 3 109 m 281 218 q 280 208 281 216 q 281 191 279 199 q 285 177 282 183 q 296 170 288 171 q 334 204 317 183 q 362 250 351 225 q 378 302 373 275 q 384 353 384 328 q 385 362 384 354 q 385 381 385 370 q 380 401 384 392 q 368 411 377 410 q 330 376 347 399 q 302 326 313 353 q 286 271 292 298 q 281 218 281 243 m 353 593 q 353 581 355 589 q 347 572 350 574 q 283 610 307 582 q 239 670 260 637 q 215 732 216 709 q 227 756 214 754 q 258 740 239 758 q 297 681 278 722 q 311 655 304 666 q 326 635 319 644 q 339 616 332 627 q 353 593 346 606 z "},"":{"ha":579,"x_min":3,"x_max":651,"o":"m 3 134 q 18 216 3 170 q 61 302 34 262 q 125 372 88 343 q 205 400 161 400 q 233 395 221 400 q 252 369 244 391 q 176 334 213 357 q 110 283 138 312 q 64 216 81 254 q 47 134 47 179 q 49 100 47 117 q 56 72 50 84 q 74 52 62 60 q 106 45 85 45 q 191 60 159 45 q 252 113 222 76 q 238 161 239 136 q 237 212 237 186 q 243 279 237 237 q 262 360 248 321 q 300 427 277 399 q 358 456 323 456 q 395 450 378 456 q 423 426 412 444 q 424 414 423 422 q 425 398 425 407 q 425 380 425 389 q 426 369 426 372 q 421 311 426 336 q 407 260 416 285 q 383 211 397 236 q 353 156 369 186 q 368 155 355 156 q 382 155 380 155 q 448 163 414 155 q 515 183 481 171 q 580 211 548 195 q 639 240 612 227 l 651 227 q 490 137 581 170 q 311 99 400 104 l 178 18 q 135 3 161 4 q 91 3 109 3 q 44 14 61 3 q 18 43 27 24 q 5 85 8 61 q 3 134 3 109 m 281 218 q 280 208 281 216 q 281 191 279 199 q 285 177 282 183 q 296 170 288 171 q 334 204 317 183 q 362 250 351 225 q 378 302 373 275 q 384 353 384 328 q 385 362 384 354 q 385 381 385 370 q 380 401 384 392 q 368 411 377 410 q 330 376 347 399 q 302 326 313 353 q 286 271 292 298 q 281 218 281 243 m 175 528 q 191 553 183 543 q 206 574 198 564 q 222 596 214 585 q 239 625 231 608 q 283 688 260 667 q 321 705 307 708 q 334 679 335 703 q 307 612 334 655 q 256 547 283 576 q 182 506 229 517 q 175 515 178 507 q 175 528 172 524 z "},"":{"ha":579,"x_min":3,"x_max":651,"o":"m 3 134 q 18 216 3 170 q 61 302 34 262 q 125 372 88 343 q 205 400 161 400 q 233 395 221 400 q 252 369 244 391 q 176 334 213 357 q 110 283 138 312 q 64 216 81 254 q 47 134 47 179 q 49 100 47 117 q 56 72 50 84 q 74 52 62 60 q 106 45 85 45 q 191 60 159 45 q 252 113 222 76 q 238 161 239 136 q 237 212 237 186 q 243 279 237 237 q 262 360 248 321 q 300 427 277 399 q 358 456 323 456 q 395 450 378 456 q 423 426 412 444 q 424 414 423 422 q 425 398 425 407 q 425 380 425 389 q 426 369 426 372 q 421 311 426 336 q 407 260 416 285 q 383 211 397 236 q 353 156 369 186 q 368 155 355 156 q 382 155 380 155 q 448 163 414 155 q 515 183 481 171 q 580 211 548 195 q 639 240 612 227 l 651 227 q 490 137 581 170 q 311 99 400 104 l 178 18 q 135 3 161 4 q 91 3 109 3 q 44 14 61 3 q 18 43 27 24 q 5 85 8 61 q 3 134 3 109 m 281 218 q 280 208 281 216 q 281 191 279 199 q 285 177 282 183 q 296 170 288 171 q 334 204 317 183 q 362 250 351 225 q 378 302 373 275 q 384 353 384 328 q 385 362 384 354 q 385 381 385 370 q 380 401 384 392 q 368 411 377 410 q 330 376 347 399 q 302 326 313 353 q 286 271 292 298 q 281 218 281 243 m 376 553 q 362 583 372 562 q 343 629 353 605 q 325 674 334 652 q 312 704 316 696 q 300 722 309 709 q 289 739 292 735 q 248 697 267 727 q 211 637 229 667 q 175 584 193 608 q 136 560 157 560 q 122 570 127 560 q 151 622 130 587 q 199 695 172 656 q 256 769 227 734 q 312 822 286 804 q 314 821 313 822 q 317 821 315 821 l 321 821 q 330 765 321 795 q 350 706 338 735 q 375 650 362 677 q 396 606 388 624 q 399 600 396 605 q 406 589 403 594 q 412 577 410 583 q 415 570 415 571 l 415 568 q 416 566 415 567 q 416 564 416 566 q 408 551 416 557 q 389 544 400 544 q 376 553 380 544 z "},"":{"ha":579,"x_min":3,"x_max":651,"o":"m 3 134 q 18 216 3 170 q 61 302 34 262 q 125 372 88 343 q 205 400 161 400 q 233 395 221 400 q 252 369 244 391 q 176 334 213 357 q 110 283 138 312 q 64 216 81 254 q 47 134 47 179 q 49 100 47 117 q 56 72 50 84 q 74 52 62 60 q 106 45 85 45 q 191 60 159 45 q 252 113 222 76 q 238 161 239 136 q 237 212 237 186 q 243 279 237 237 q 262 360 248 321 q 300 427 277 399 q 358 456 323 456 q 395 450 378 456 q 423 426 412 444 q 424 414 423 422 q 425 398 425 407 q 425 380 425 389 q 426 369 426 372 q 421 311 426 336 q 407 260 416 285 q 383 211 397 236 q 353 156 369 186 q 368 155 355 156 q 382 155 380 155 q 448 163 414 155 q 515 183 481 171 q 580 211 548 195 q 639 240 612 227 l 651 227 q 490 137 581 170 q 311 99 400 104 l 178 18 q 135 3 161 4 q 91 3 109 3 q 44 14 61 3 q 18 43 27 24 q 5 85 8 61 q 3 134 3 109 m 281 218 q 280 208 281 216 q 281 191 279 199 q 285 177 282 183 q 296 170 288 171 q 334 204 317 183 q 362 250 351 225 q 378 302 373 275 q 384 353 384 328 q 385 362 384 354 q 385 381 385 370 q 380 401 384 392 q 368 411 377 410 q 330 376 347 399 q 302 326 313 353 q 286 271 292 298 q 281 218 281 243 m 170 628 q 121 608 142 628 q 84 570 100 589 l 68 570 q 77 627 65 605 q 109 661 90 650 q 148 674 127 673 q 180 670 168 675 q 229 660 206 670 q 272 637 251 650 q 316 614 293 625 q 368 604 339 604 q 408 604 389 604 q 443 610 427 604 q 468 633 458 617 q 477 682 477 650 q 467 746 477 727 q 422 765 456 765 q 435 787 422 784 q 460 789 449 789 q 507 760 492 789 q 522 692 522 730 q 509 620 522 647 q 475 577 496 593 q 427 556 454 562 q 368 551 399 551 q 313 563 339 551 q 264 589 288 575 q 218 616 241 604 q 170 628 194 628 z "},"":{"ha":579,"x_min":3,"x_max":651,"o":"m 3 134 q 18 216 3 170 q 61 302 34 262 q 125 372 88 343 q 205 400 161 400 q 233 395 221 400 q 252 369 244 391 q 176 334 213 357 q 110 283 138 312 q 64 216 81 254 q 47 134 47 179 q 49 100 47 117 q 56 72 50 84 q 74 52 62 60 q 106 45 85 45 q 191 60 159 45 q 252 113 222 76 q 238 161 239 136 q 237 212 237 186 q 243 279 237 237 q 262 360 248 321 q 300 427 277 399 q 358 456 323 456 q 395 450 378 456 q 423 426 412 444 q 424 414 423 422 q 425 398 425 407 q 425 380 425 389 q 426 369 426 372 q 421 311 426 336 q 407 260 416 285 q 383 211 397 236 q 353 156 369 186 q 368 155 355 156 q 382 155 380 155 q 448 163 414 155 q 515 183 481 171 q 580 211 548 195 q 639 240 612 227 l 651 227 q 490 137 581 170 q 311 99 400 104 l 178 18 q 135 3 161 4 q 91 3 109 3 q 44 14 61 3 q 18 43 27 24 q 5 85 8 61 q 3 134 3 109 m 281 218 q 280 208 281 216 q 281 191 279 199 q 285 177 282 183 q 296 170 288 171 q 334 204 317 183 q 362 250 351 225 q 378 302 373 275 q 384 353 384 328 q 385 362 384 354 q 385 381 385 370 q 380 401 384 392 q 368 411 377 410 q 330 376 347 399 q 302 326 313 353 q 286 271 292 298 q 281 218 281 243 m 201 639 q 228 623 212 639 q 244 594 244 606 q 215 559 235 560 q 181 572 195 557 q 168 607 167 587 q 201 639 168 627 m 387 639 q 414 623 397 639 q 430 594 430 606 q 401 559 420 560 q 368 572 381 557 q 355 607 354 587 q 387 639 355 627 z "}}}
